<?xml version="1.0" standalone="no"?>
<!DOCTYPE svg PUBLIC "-//W3C//DTD SVG 1.1//EN" "http://www.w3.org/Graphics/SVG/1.1/DTD/svg11.dtd" >
<svg xmlns="http://www.w3.org/2000/svg" xmlns:xlink="http://www.w3.org/1999/xlink" version="1.1">
<metadata></metadata>
<defs>
<font id="nouvelrregular" horiz-adv-x="1292" >
<font-face units-per-em="2048" ascent="1638" descent="-410" />
<missing-glyph horiz-adv-x="356" />
<glyph horiz-adv-x="0" />
<glyph horiz-adv-x="682" />
<glyph unicode="&#xd;" horiz-adv-x="0" />
<glyph unicode=" "  horiz-adv-x="356" />
<glyph unicode="&#x09;" horiz-adv-x="356" />
<glyph unicode="&#xa0;" horiz-adv-x="356" />
<glyph unicode="!" horiz-adv-x="528" d="M158 0v207h213v-207h-213zM172 770v541h182v-541l-28 -356h-123z" />
<glyph unicode="&#x22;" horiz-adv-x="923" d="M147 1311h205l-39 -510h-127zM569 1311h207l-39 -510h-127z" />
<glyph unicode="#" horiz-adv-x="1474" d="M61 305v156h230l94 389h-215v156h252l74 305h174l-74 -305h451l73 305h176l-73 -305h190v-156h-227l-94 -389h213v-156h-250l-74 -305h-176l74 305h-451l-74 -305h-174l74 305h-193zM465 461h450l95 389h-451z" />
<glyph unicode="$" horiz-adv-x="1247" d="M104 412h191q8 -123 105 -197t253 -74q141 0 222 55.5t81 155.5q0 88 -67.5 136.5t-214.5 68.5l-119 16q-209 31 -320.5 130.5t-111.5 254.5q0 156 106.5 254.5t292.5 114.5v186h162v-186q190 -20 302 -128.5t124 -285.5h-186q-14 127 -96.5 191.5t-231.5 64.5 q-137 0 -213 -53t-76 -149q0 -92 75 -143.5t236 -73.5l119 -19q201 -29 304.5 -122t103.5 -247q0 -172 -123 -274t-338 -111v-180h-162v191q-186 31 -298.5 144.5t-119.5 279.5z" />
<glyph unicode="%" horiz-adv-x="1902" d="M78 956q0 164 108.5 269.5t276.5 105.5t276.5 -105.5t108.5 -269.5t-108.5 -269t-276.5 -105t-276.5 105.5t-108.5 268.5zM236 956q0 -102 63 -165.5t164 -63.5q100 0 163.5 64.5t63.5 164.5t-63.5 165t-163.5 65t-163.5 -65t-63.5 -165zM453 0l807 1311h176l-807 -1311 h-176zM1040 352q0 166 107.5 270.5t277.5 104.5t276.5 -104.5t106.5 -270.5t-107.5 -270.5t-275.5 -104.5t-276.5 105.5t-108.5 269.5zM1196 352q0 -102 64.5 -165.5t164.5 -63.5t163 63.5t63 165.5t-62.5 167t-163.5 65q-100 0 -164.5 -66t-64.5 -166z" />
<glyph unicode="&#x26;" horiz-adv-x="1447" d="M96 356q0 119 60.5 212.5t175.5 150.5q-55 66 -83 134.5t-28 143.5q0 152 104.5 243t274.5 91q184 0 301 -118.5t117 -303.5h-180q-2 119 -65.5 189.5t-166.5 70.5q-88 0 -144 -51t-56 -131q0 -61 35.5 -122.5t105.5 -121.5l844 -743h-250l-195 170q-80 -94 -184.5 -142 t-231.5 -48q-197 0 -315.5 103t-118.5 273zM270 375q0 -109 72 -172.5t197 -63.5q86 0 158.5 35t127.5 100l-395 349q-78 -41 -119 -104.5t-41 -143.5zM879 496v157h421v-157h-421z" />
<glyph unicode="'" horiz-adv-x="501" d="M147 1311h205l-39 -510h-127z" />
<glyph unicode="(" horiz-adv-x="604" d="M147 569q0 231 59.5 443.5t176.5 400.5h190q-119 -186 -179 -401t-60 -443q0 -221 61 -434.5t178 -408.5h-190q-117 197 -176.5 408.5t-59.5 434.5z" />
<glyph unicode=")" horiz-adv-x="604" d="M31 -274q117 188 177 402t60 441q0 225 -60.5 439.5t-176.5 404.5h190q117 -193 176.5 -405t59.5 -439t-59.5 -439t-176.5 -404h-190z" />
<glyph unicode="*" horiz-adv-x="878" d="M47 965l51 159l289 -129l-31 316h168l-30 -316l286 127l54 -159l-310 -66l209 -235l-135 -101l-160 275l-157 -273l-138 99l211 237z" />
<glyph unicode="+" horiz-adv-x="1187" d="M145 498v155h371v371h156v-371h370v-155h-370v-371h-156v371h-371z" />
<glyph unicode="," horiz-adv-x="399" d="M10 -303l103 510h204l-147 -510h-160z" />
<glyph unicode="-" horiz-adv-x="724" d="M92 498v155h541v-155h-541z" />
<glyph unicode="." horiz-adv-x="421" d="M104 0v207h213v-207h-213z" />
<glyph unicode="/" horiz-adv-x="653" d="M-111 -274l627 1687h186l-626 -1687h-187z" />
<glyph unicode="0" horiz-adv-x="1290" d="M119 653q0 309 142 493.5t384 184.5t385.5 -184t143.5 -494q0 -307 -143.5 -491.5t-385.5 -184.5t-384 183.5t-142 492.5zM305 653q0 -240 90 -375t250 -135q162 0 251 134t89 376t-90 377t-250 135t-250 -136t-90 -376z" />
<glyph unicode="1" horiz-adv-x="663" d="M41 1145l49 166h383v-1311h-178v1145h-254z" />
<glyph unicode="2" horiz-adv-x="1103" d="M90 895q2 193 128 314.5t329 121.5q195 0 313.5 -111.5t118.5 -293.5q0 -127 -70.5 -240t-267.5 -280l-289 -246h647v-160h-893v160l435 375q143 127 198.5 210.5t55.5 174.5q0 111 -71 180t-183 69q-119 0 -192 -73.5t-79 -200.5h-180z" />
<glyph unicode="3" horiz-adv-x="1126" d="M88 383h180q8 -117 85 -182.5t200 -65.5q127 0 202.5 61.5t75.5 165.5t-69.5 167t-183.5 63h-234v149h215q106 0 174 60.5t68 156.5q0 98 -69.5 158t-182.5 60q-115 0 -189.5 -67t-85.5 -181h-180q12 182 137 292.5t320 110.5q190 0 309 -101.5t119 -264.5 q0 -96 -48 -173t-134 -118q102 -41 157.5 -124t55.5 -194q0 -164 -128 -270t-325 -106t-327 111.5t-142 291.5z" />
<glyph unicode="4" horiz-adv-x="1177" d="M59 301v156l668 854h203v-854h188v-156h-188v-301h-176v301h-695zM248 457h510v653z" />
<glyph unicode="5" horiz-adv-x="1146" d="M125 373h178q12 -106 91 -172t194 -66q129 0 207.5 81t78.5 210q0 127 -80.5 204t-211.5 77q-98 0 -171 -41t-108 -117h-164l78 762h766v-160h-618l-39 -379q57 41 127.5 61.5t148.5 20.5q201 0 325 -116.5t124 -307.5q0 -199 -128 -324.5t-331 -125.5q-193 0 -324 109.5 t-143 283.5z" />
<glyph unicode="6" horiz-adv-x="1144" d="M88 440q0 106 46.5 211t152.5 252l293 408h200l-323 -441q29 10 60.5 14.5t72.5 4.5q211 0 341 -125t130 -324q0 -201 -137.5 -330.5t-352.5 -129.5q-213 0 -348 129t-135 331zM260 440q0 -135 87 -217t224 -82t224.5 83t87.5 216q0 135 -87 217t-225 82q-139 0 -225 -82 t-86 -217z" />
<glyph unicode="7" horiz-adv-x="1013" d="M41 1151v160h913v-160l-526 -1151h-195l527 1151h-719z" />
<glyph unicode="8" horiz-adv-x="1208" d="M113 360q0 106 59 189.5t168 130.5q-92 43 -142.5 120t-50.5 175q0 154 129.5 255t327.5 101q197 0 327 -101.5t130 -254.5q0 -98 -50 -175t-143 -120q109 -47 168.5 -130t59.5 -190q0 -170 -137.5 -275t-354.5 -105t-354 105t-137 275zM293 375q0 -109 83 -172.5 t228 -63.5t227 63.5t82 172.5t-82.5 172t-226.5 63q-143 0 -227 -63.5t-84 -171.5zM322 963q0 -100 74.5 -156.5t207.5 -56.5t208 57t75 156q0 96 -76 153.5t-207 57.5t-206.5 -57.5t-75.5 -153.5z" />
<glyph unicode="9" horiz-adv-x="1144" d="M84 870q0 201 137 331t352 130q213 0 348.5 -130t135.5 -331q0 -104 -45 -207t-154 -255l-293 -408h-203l326 440q-31 -10 -62.5 -14t-70.5 -4q-211 0 -341 125t-130 323zM262 870q0 -135 87 -217t224 -82t224.5 82t87.5 217t-87 217t-225 82q-137 0 -224 -82.5 t-87 -216.5z" />
<glyph unicode=":" horiz-adv-x="454" d="M121 0v207h213v-207h-213zM121 799v209h213v-209h-213z" />
<glyph unicode=";" horiz-adv-x="440" d="M27 -303l102 510h207l-150 -510h-159zM123 799v209h213v-209h-213z" />
<glyph unicode="&#x3c;" horiz-adv-x="1187" d="M145 502v147l897 377v-170l-696 -278l696 -279v-176z" />
<glyph unicode="=" horiz-adv-x="1187" d="M145 293v156h897v-156h-897zM145 702v156h897v-156h-897z" />
<glyph unicode="&#x3e;" horiz-adv-x="1187" d="M145 123v170l697 278l-697 279v176l897 -379v-147z" />
<glyph unicode="?" horiz-adv-x="1019" d="M49 895q4 195 130 315.5t333 120.5q201 0 322.5 -111.5t121.5 -293.5q0 -154 -91 -265.5t-287 -195.5l-207 -84v172l145 61q129 59 191.5 134t62.5 174q0 115 -70.5 181t-189.5 66q-125 0 -199.5 -73.5t-81.5 -200.5h-180zM371 0v207h213v-207h-213z" />
<glyph unicode="@" horiz-adv-x="2013" d="M119 532q0 395 257 646.5t658 251.5q381 0 626 -232.5t245 -595.5q0 -258 -132.5 -420t-349.5 -162h-45l-32 160q-66 -86 -162.5 -133t-210.5 -47q-213 0 -356.5 148.5t-143.5 375.5t143.5 376t356.5 149q115 0 211 -47.5t162 -133.5l32 160h129v-876q113 12 189 139 t76 311q0 307 -206 504t-532 197q-344 0 -563 -216.5t-219 -554.5q0 -342 213 -546.5t592 -204.5h473v-127h-473q-436 0 -687 240.5t-251 637.5zM651 524q0 -164 96 -265t250 -101q152 0 249 102t97 264t-97 264.5t-249 102.5t-249 -102.5t-97 -264.5z" />
<glyph unicode="A" horiz-adv-x="1437" d="M43 0l582 1311h188l580 -1311h-199l-154 354h-653l-154 -354h-190zM459 516h512l-256 592z" />
<glyph unicode="B" horiz-adv-x="1300" d="M190 0v1311h510q207 0 327 -93.5t120 -256.5q0 -100 -45 -173t-135 -114q111 -39 166 -118t55 -194q0 -170 -121 -266t-330 -96h-547zM371 156h356q133 0 205 56.5t72 162.5q0 104 -72 160.5t-205 56.5h-356v-436zM371 741h321q131 0 201 52.5t70 152.5q0 102 -69 155.5 t-202 53.5h-321v-414z" />
<glyph unicode="C" horiz-adv-x="1495" d="M104 655q0 295 186.5 485.5t473.5 190.5q246 0 421 -146.5t220 -389.5h-191q-41 174 -159.5 272t-290.5 98q-211 0 -342 -140t-131 -370q0 -229 131 -369.5t342 -140.5q174 0 292.5 98.5t157.5 272.5h191q-43 -244 -218 -390t-423 -146q-287 0 -473.5 190t-186.5 485z " />
<glyph unicode="D" horiz-adv-x="1460" d="M190 0v1311h500q293 0 481.5 -184.5t188.5 -471.5t-188.5 -471t-481.5 -184h-500zM371 166h319q215 0 349.5 135t134.5 354t-134.5 354.5t-349.5 135.5h-319v-979z" />
<glyph unicode="E" horiz-adv-x="1173" d="M190 0v1311h895v-164h-714v-404h653v-159h-653v-420h714v-164h-895z" />
<glyph unicode="F" horiz-adv-x="1130" d="M190 0v1311h881v-166h-700v-440h639v-162h-639v-543h-181z" />
<glyph unicode="G" horiz-adv-x="1515" d="M104 655q0 297 186.5 486.5t473.5 189.5q236 0 405.5 -128t221.5 -339h-193q-43 139 -158.5 220t-275.5 81q-211 0 -342 -140t-131 -370q0 -231 132 -371.5t345 -140.5q195 0 317.5 105.5t143.5 290.5h-496v157h682q2 -12 2 -26.5v-42.5q0 -287 -182 -467t-469 -180 q-289 0 -475.5 190t-186.5 485z" />
<glyph unicode="H" horiz-adv-x="1503" d="M190 0v1311h181v-563h759v563h183v-1311h-183v586h-759v-586h-181z" />
<glyph unicode="I" horiz-adv-x="561" d="M190 0v1311h181v-1311h-181z" />
<glyph unicode="J" horiz-adv-x="806" d="M45 0v162h184q121 0 171.5 48t50.5 161v940h182v-951q0 -176 -97.5 -268t-283.5 -92h-207z" />
<glyph unicode="K" horiz-adv-x="1361" d="M190 0v1311h181v-557h176l543 557h217v-8l-607 -619l621 -674v-10h-229l-539 592h-182v-592h-181z" />
<glyph unicode="L" horiz-adv-x="1081" d="M190 0v1311h181v-1145h665v-166h-846z" />
<glyph unicode="M" horiz-adv-x="1742" d="M127 0l129 1311h231l385 -985l385 985h228l131 -1311h-184l-105 1055l-371 -946h-174l-372 935l-107 -1044h-176z" />
<glyph unicode="N" horiz-adv-x="1542" d="M190 0v1311h177l807 -1024v1024h178v-1311h-178l-807 1024v-1024h-177z" />
<glyph unicode="O" horiz-adv-x="1540" d="M104 655q0 297 188.5 486.5t477.5 189.5q291 0 478.5 -189.5t187.5 -486.5t-187.5 -486t-478.5 -189q-289 0 -477.5 189t-188.5 486zM291 655q0 -229 133 -369.5t346 -140.5t346 140.5t133 369.5t-133 369.5t-346 140.5t-346 -140t-133 -370z" />
<glyph unicode="P" horiz-adv-x="1300" d="M190 0v1311h521q244 0 376 -109.5t132 -312.5t-132.5 -313.5t-375.5 -110.5h-340v-465h-181zM371 627h342q154 0 236.5 67.5t82.5 194.5t-83 193.5t-236 66.5h-342v-522z" />
<glyph unicode="Q" horiz-adv-x="1540" d="M104 655q0 297 188.5 486.5t477.5 189.5q291 0 478.5 -189.5t187.5 -486.5q0 -270 -160 -454.5t-416 -214.5v-191h-180v191q-256 31 -416 215t-160 454zM291 655q0 -205 105.5 -341t283.5 -167v302h180v-302q178 31 283.5 167.5t105.5 340.5q0 229 -133 369.5t-346 140.5 t-346 -140t-133 -370z" />
<glyph unicode="R" horiz-adv-x="1320" d="M190 0v1311h510q236 0 368 -108.5t132 -305.5q0 -147 -76.5 -247.5t-222.5 -141.5l340 -508h-213l-311 483h-346v-483h-181zM371 641h334q147 0 229 66.5t82 187.5t-82 187.5t-229 66.5h-334v-508z" />
<glyph unicode="S" horiz-adv-x="1247" d="M104 412h191q8 -123 105 -197t253 -74q141 0 222 55.5t81 155.5q0 88 -67.5 136.5t-214.5 68.5l-119 16q-209 31 -320.5 130.5t-111.5 254.5q0 170 127 271.5t344 101.5q229 0 365.5 -110.5t150.5 -307.5h-186q-14 127 -96.5 191.5t-231.5 64.5q-137 0 -213 -53t-76 -149 q0 -92 75 -143.5t236 -73.5l119 -19q201 -29 304.5 -122t103.5 -247q0 -178 -133 -281.5t-363 -103.5q-240 0 -388 120t-157 315z" />
<glyph unicode="T" horiz-adv-x="1239" d="M41 1145v166h1157v-166h-487v-1145h-183v1145h-487z" />
<glyph unicode="U" horiz-adv-x="1454" d="M160 549v762h180v-758q0 -199 99.5 -303.5t287.5 -104.5t287.5 104.5t99.5 303.5v758h182v-762q0 -270 -149.5 -419.5t-419.5 -149.5t-418.5 149.5t-148.5 419.5z" />
<glyph unicode="V" horiz-adv-x="1413" d="M37 1311h201l473 -1102l473 1102h192l-573 -1311h-193z" />
<glyph unicode="W" horiz-adv-x="1947" d="M51 1311h193l311 -1073l346 825l-98 248h196l404 -1055l305 1055h188l-393 -1311h-182l-334 846l-362 -846h-179z" />
<glyph unicode="X" horiz-adv-x="1320" d="M45 0l498 680l-475 631h223l375 -498l362 498h209l-465 -637l508 -674h-225l-406 539l-397 -539h-207z" />
<glyph unicode="Y" horiz-adv-x="1331" d="M18 1311h215l437 -606l438 606h205l-557 -762v-549h-183v547z" />
<glyph unicode="Z" horiz-adv-x="1173" d="M74 0v166l780 979h-754v166h979v-166l-780 -979h799v-166h-1024z" />
<glyph unicode="[" horiz-adv-x="757" d="M207 -274v1687h461v-162h-279v-1364h279v-161h-461z" />
<glyph unicode="\" horiz-adv-x="653" d="M-47 1413h188l623 -1687h-189z" />
<glyph unicode="]" horiz-adv-x="757" d="M84 -113h281v1364h-281v162h463v-1687h-463v161z" />
<glyph unicode="^" horiz-adv-x="1187" d="M143 414l377 897h148l379 -897h-177l-278 696l-279 -696h-170z" />
<glyph unicode="_" horiz-adv-x="987" d="M86 -115h840v-135h-840v135z" />
<glyph unicode="`" horiz-adv-x="1024" d="M203 1413h184l205 -307h-160z" />
<glyph unicode="a" d="M92 500q0 225 143.5 372.5t356.5 147.5q115 0 211 -46t164 -132l30 157h129v-999h-129l-30 158q-68 -86 -164 -132t-211 -46q-213 0 -356.5 147t-143.5 373zM272 500q0 -160 96 -261.5t248 -101.5t249.5 101.5t97.5 261.5t-97.5 261t-249.5 101t-248 -101.5t-96 -260.5z " />
<glyph unicode="b" d="M166 0v1413h176v-557q63 80 155.5 122t200.5 42q213 0 356.5 -147.5t143.5 -372.5t-143.5 -372.5t-356.5 -147.5q-113 0 -210 46t-162 130l-33 -156h-127zM328 500q0 -160 97 -261.5t249 -101.5q154 0 250 101.5t96 261.5t-96 261t-250 101q-152 0 -249 -101.5 t-97 -260.5z" />
<glyph unicode="c" horiz-adv-x="1181" d="M92 500q0 227 143.5 373.5t364.5 146.5q195 0 331 -113.5t167 -304.5h-183q-27 121 -110.5 190.5t-204.5 69.5q-147 0 -237.5 -99t-90.5 -263t90.5 -263.5t237.5 -99.5q121 0 204.5 69.5t110.5 190.5h183q-31 -188 -167 -302.5t-331 -114.5q-221 0 -364.5 146t-143.5 374 z" />
<glyph unicode="d" d="M92 500q0 225 143.5 372.5t356.5 147.5q109 0 202 -42t156 -122v557h176v-1413h-129l-30 158q-68 -86 -164 -132t-211 -46q-213 0 -356.5 147t-143.5 373zM272 500q0 -160 96 -261.5t248 -101.5t249.5 101.5t97.5 261.5t-97.5 261t-249.5 101t-248 -101.5t-96 -260.5z " />
<glyph unicode="e" horiz-adv-x="1202" d="M96 502q0 229 142.5 373.5t371.5 144.5q219 0 359.5 -137.5t140.5 -354.5q0 -12 -1 -31.5t-3 -39.5h-836q14 -152 108.5 -239t242.5 -87q119 0 199.5 54.5t111.5 148.5h174q-35 -158 -165 -256t-320 -98q-231 0 -379 146q-146 144 -146 370v6zM274 588h664 q-10 129 -102.5 205.5t-229.5 76.5t-224 -73.5t-108 -208.5z" />
<glyph unicode="f" horiz-adv-x="784" d="M41 836v149h156v76q0 176 93 264t281 88h215l-38 -147h-156q-113 0 -166 -48.5t-53 -150.5v-82h375v-149h-375v-836h-176v836h-156z" />
<glyph unicode="g" horiz-adv-x="1298" d="M92 508q0 221 144.5 366.5t359.5 145.5q115 0 213 -46t166 -130l35 155h123v-1024q0 -190 -92.5 -277t-297.5 -87h-497l41 160h456q115 0 164 47t49 157v175q-68 -74 -161 -114t-199 -40q-215 0 -359.5 145.5t-144.5 366.5zM270 508q0 -158 98.5 -256t252.5 -98t252 99 t98 255t-98.5 255t-251.5 99q-154 0 -252.5 -98t-98.5 -256z" />
<glyph unicode="h" horiz-adv-x="1239" d="M166 0v1413h176v-534q53 68 138 104.5t188 36.5q193 0 311.5 -113.5t118.5 -304.5v-602h-176v573q0 133 -80 211t-209 78q-131 0 -211 -78.5t-80 -210.5v-573h-176z" />
<glyph unicode="i" horiz-adv-x="505" d="M160 1190v199h188v-199h-188zM166 0v999h176v-999h-176z" />
<glyph unicode="j" horiz-adv-x="505" d="M-117 -231h105q94 0 136 38.5t42 124.5v1067h176v-1071q0 -164 -80 -240.5t-252 -76.5h-127v158zM160 1190v199h188v-199h-188z" />
<glyph unicode="k" horiz-adv-x="1130" d="M166 0v1413h176v-823h164l371 409h196v-10l-424 -469l447 -510v-10h-213l-383 436h-158v-436h-176z" />
<glyph unicode="l" horiz-adv-x="505" d="M166 0v1413h176v-1413h-176z" />
<glyph unicode="m" horiz-adv-x="1908" d="M166 0v999h127l26 -135q49 74 134.5 115t191.5 41q119 0 212 -48t142 -136q49 86 142.5 135t212.5 49q184 0 296.5 -107.5t112.5 -287.5v-625h-176v596q0 123 -72.5 194.5t-193.5 71.5t-194.5 -72.5t-73.5 -193.5v-596h-176v596q0 123 -73 194.5t-194 71.5t-194.5 -72.5 t-73.5 -193.5v-596h-176z" />
<glyph unicode="n" horiz-adv-x="1239" d="M166 0v999h127l31 -147q51 80 140 124t204 44q193 0 311.5 -113.5t118.5 -304.5v-602h-176v573q0 133 -80 211t-209 78q-131 0 -211 -78.5t-80 -210.5v-573h-176z" />
<glyph unicode="o" horiz-adv-x="1232" d="M92 500q0 229 147.5 374.5t376.5 145.5q231 0 379 -145.5t148 -374.5t-147.5 -374.5t-379.5 -145.5q-229 0 -376.5 145t-147.5 375zM270 500q0 -162 96 -262.5t250 -100.5t250.5 100.5t96.5 262.5t-96.5 262t-250.5 100t-250 -100t-96 -262z" />
<glyph unicode="p" d="M166 -389v1388h127l33 -155q66 84 163 130t209 46q213 0 356.5 -147.5t143.5 -372.5t-143.5 -372.5t-356.5 -147.5q-109 0 -200.5 41.5t-155.5 121.5v-532h-176zM328 500q0 -160 97 -261.5t249 -101.5q154 0 250 101.5t96 261.5t-96 261t-250 101q-152 0 -249 -101.5 t-97 -260.5z" />
<glyph unicode="q" d="M92 500q0 225 143.5 372.5t356.5 147.5q115 0 211 -46t164 -132l30 157h129v-1388h-176v532q-63 -78 -156.5 -120.5t-201.5 -42.5q-213 0 -356.5 147t-143.5 373zM272 500q0 -160 96 -261.5t248 -101.5t249.5 101.5t97.5 261.5t-97.5 261t-249.5 101t-248 -101.5 t-96 -260.5z" />
<glyph unicode="r" horiz-adv-x="778" d="M166 0v999h588l-56 -159h-356v-840h-176z" />
<glyph unicode="s" horiz-adv-x="1042" d="M96 336h174q6 -98 78 -154.5t197 -56.5q113 0 170 36t57 103q0 63 -50 98t-159 50l-123 16q-162 23 -243.5 96.5t-81.5 198.5q0 137 105.5 217t285.5 80q186 0 303 -90t121 -236h-172q-4 84 -72 133.5t-180 49.5q-104 0 -160.5 -38t-56.5 -108q0 -63 48 -97t152 -50 l125 -17q168 -23 251 -94.5t83 -193.5q0 -137 -109.5 -218t-293.5 -81q-199 0 -322 98t-127 258z" />
<glyph unicode="t" horiz-adv-x="811" d="M41 850v35l293 301h35v-187h372v-149h-372v-516q0 -88 51.5 -130t157.5 -42h172v-162h-179q-197 0 -287.5 77t-90.5 247v526h-152z" />
<glyph unicode="u" horiz-adv-x="1189" d="M139 416v583h176v-569q0 -137 75 -215t206 -78t204.5 78t73.5 215v569h179v-583q0 -199 -125 -317.5t-332 -118.5q-209 0 -333 117.5t-124 318.5z" />
<glyph unicode="v" horiz-adv-x="1116" d="M29 999h188l344 -802l344 802h182l-436 -999h-186z" />
<glyph unicode="w" horiz-adv-x="1671" d="M37 999h178l283 -798l272 643l-63 155h176l319 -800l268 800h162l-338 -999h-184l-264 655l-277 -655h-172z" />
<glyph unicode="x" horiz-adv-x="1120" d="M33 0l420 518l-390 481h213l293 -362l293 362h203l-395 -487l415 -512h-213l-319 395l-320 -395h-200z" />
<glyph unicode="y" horiz-adv-x="1118" d="M31 999h186l348 -845l340 845h182l-462 -1122q-59 -147 -141.5 -206.5t-237.5 -59.5h-125v158h117q102 0 150 34.5t87 128.5l33 80h-66z" />
<glyph unicode="z" horiz-adv-x="1003" d="M70 0v152l632 698h-616v149h825v-149l-630 -698h657v-152h-868z" />
<glyph unicode="{" horiz-adv-x="817" d="M51 487v164h70q111 0 159 43t37 133l-22 203q-25 197 71.5 290t317.5 93h84v-162h-74q-123 0 -176 -50t-41 -163l25 -202q14 -102 -21 -169t-116 -98q82 -31 116.5 -97t20.5 -169l-25 -203q-12 -113 41 -163t176 -50h74v-161h-84q-221 0 -317.5 93t-71.5 290l22 202 q10 90 -38 133t-158 43h-70z" />
<glyph unicode="|" horiz-adv-x="593" d="M207 -274v1687h182v-1687h-182z" />
<glyph unicode="}" horiz-adv-x="817" d="M45 -113h74q125 0 178 51.5t39 161.5l-23 203q-14 102 20 169t116 97q-82 31 -116 97.5t-20 169.5l23 202q14 111 -39 162t-178 51h-74v162h84q221 0 317.5 -93t73.5 -290l-24 -203q-10 -90 38 -133t158 -43h70v-164h-70q-111 0 -159 -43t-37 -133l24 -202 q23 -197 -73.5 -290t-317.5 -93h-84v161z" />
<glyph unicode="~" horiz-adv-x="1187" d="M119 420q0 160 68.5 247t189.5 87q61 0 118.5 -23.5t143.5 -97.5q66 -53 99.5 -69.5t66.5 -16.5q57 0 88 49t31 137h145q0 -160 -68.5 -247t-189.5 -87q-61 0 -118.5 23.5t-143.5 97.5q-66 53 -99.5 69.5t-66.5 16.5q-57 0 -88 -49t-31 -137h-145z" />
<glyph unicode="&#xa1;" horiz-adv-x="497" d="M143 799v209h213v-209h-213zM160 238l28 356h123l29 -356v-541h-180v541z" />
<glyph unicode="&#xa2;" horiz-adv-x="1181" d="M92 500q0 203 115 343t303 171v188h162v-186q168 -23 282.5 -133.5t143.5 -280.5h-183q-27 121 -110.5 190.5t-204.5 69.5q-147 0 -238.5 -100t-91.5 -262t91.5 -262.5t238.5 -100.5q121 0 204.5 69.5t110.5 190.5h183q-29 -170 -143.5 -280.5t-282.5 -132.5v-187h-162 v189q-188 31 -303 171t-115 343z" />
<glyph unicode="&#xa3;" horiz-adv-x="1226" d="M82 0v160h166v356h-166v154h166v233q0 195 116.5 311.5t315.5 116.5q203 0 326.5 -120.5t123.5 -315.5h-182q-4 127 -74.5 200.5t-185.5 73.5t-187.5 -76.5t-72.5 -197.5v-225h502v-154h-502v-356h717v-160h-1063z" />
<glyph unicode="&#xa4;" horiz-adv-x="1267" d="M72 98l182 183q-27 49 -41 105t-14 118q0 59 14 114.5t41 106.5l-182 184l106 113l178 -178q57 43 128 65.5t149 22.5t149.5 -22.5t128.5 -65.5l179 178l106 -113l-182 -182q27 -49 41 -105.5t14 -117.5t-14.5 -117.5t-42.5 -105.5l184 -183l-106 -114l-179 178 q-57 -43 -128.5 -65.5t-149.5 -22.5t-148.5 22.5t-128.5 65.5l-178 -178zM360 504q0 -125 76 -203t197 -78t197.5 79t76.5 202t-76.5 200.5t-197.5 77.5t-197 -77.5t-76 -200.5z" />
<glyph unicode="&#xa5;" horiz-adv-x="1353" d="M31 1311h215l436 -606l438 606h205l-387 -531h248v-135h-346l-72 -96v-66h418v-135h-418v-348h-182v348h-420v135h420v64l-72 98h-348v135h250z" />
<glyph unicode="&#xa6;" horiz-adv-x="575" d="M197 -274v714h182v-714h-182zM197 698v715h182v-715h-182z" />
<glyph unicode="&#xa7;" horiz-adv-x="1159" d="M143 535q0 86 44 150.5t128 102.5q-86 41 -129 108t-43 159q0 147 113 233t307 86h381v-145h-381q-119 0 -182.5 -45t-63.5 -127q0 -80 53.5 -123t168.5 -60l131 -18q180 -23 271 -100.5t91 -210.5q0 -86 -47 -151.5t-137 -102.5q94 -39 141 -105.5t47 -160.5 q0 -147 -117.5 -233.5t-318.5 -86.5h-405v145h405q127 0 193.5 43.5t66.5 122.5q0 82 -55 125t-174 62l-135 16q-174 23 -263.5 102.5t-89.5 213.5zM309 539q0 -84 77 -130.5t216 -46.5q121 0 187.5 46.5t66.5 132.5q0 84 -77 130t-216 46q-121 0 -187.5 -46t-66.5 -132z " />
<glyph unicode="&#xa8;" horiz-adv-x="1024" d="M246 1198v191h176v-191h-176zM602 1198v191h176v-191h-176z" />
<glyph unicode="&#xa9;" horiz-adv-x="1800" d="M111 653q0 342 222 559.5t568 217.5t567.5 -217.5t221.5 -559.5t-221.5 -558t-567.5 -216q-348 0 -569 217t-221 557zM186 653q0 -309 200 -504.5t515 -195.5t514 194.5t199 505.5t-198.5 507t-514.5 196q-313 0 -514 -197t-201 -506zM397 645q0 229 142.5 376.5 t363.5 147.5q195 0 331 -114.5t167 -306.5h-180q-29 123 -113 193.5t-205 70.5q-147 0 -237.5 -101.5t-90.5 -265.5t90.5 -265t237.5 -101q121 0 205 70.5t113 193.5h180q-31 -193 -167 -307.5t-331 -114.5q-221 0 -363.5 147.5t-142.5 376.5z" />
<glyph unicode="&#xaa;" horiz-adv-x="1003" d="M80 909q0 174 110.5 288t274.5 114q82 0 150.5 -35t117.5 -98l23 116h121v-770h-121l-23 117q-49 -63 -117.5 -98t-150.5 -35q-166 0 -275.5 113.5t-109.5 287.5zM240 909q0 -115 68 -186.5t177 -71.5q106 0 175 72t69 186q0 115 -68.5 187.5t-175.5 72.5 q-109 0 -177 -72.5t-68 -187.5z" />
<glyph unicode="&#xab;" horiz-adv-x="1052" d="M59 500l269 499h182l-268 -499l268 -500h-182zM532 500l267 499h182l-266 -499l266 -500h-182z" />
<glyph unicode="&#xac;" horiz-adv-x="1187" d="M145 498v155h897v-526h-153v371h-744z" />
<glyph unicode="&#xad;" horiz-adv-x="0" />
<glyph unicode="&#xae;" horiz-adv-x="1155" d="M90 932q0 215 137.5 352t352.5 137t351 -137t136 -352t-136 -351.5t-351 -136.5t-352.5 136.5t-137.5 351.5zM166 932q0 -182 115.5 -298t298.5 -116q182 0 296.5 115t114.5 299t-114.5 300t-296.5 116t-298 -116t-116 -300zM346 647v574h256q106 0 165.5 -51.5 t59.5 -143.5q0 -59 -27.5 -103t-78.5 -67l123 -209h-146l-104 187h-119v-187h-129zM475 948h131q45 0 68.5 19.5t23.5 56.5t-23.5 57.5t-68.5 20.5h-131v-154z" />
<glyph unicode="&#xaf;" horiz-adv-x="1024" d="M231 1192v131h562v-131h-562z" />
<glyph unicode="&#xb0;" horiz-adv-x="989" d="M100 944q0 170 111 278.5t285 108.5q172 0 281.5 -108.5t109.5 -278.5t-109.5 -277.5t-281.5 -107.5q-174 0 -285 107.5t-111 277.5zM258 944q0 -106 66.5 -174t171.5 -68q102 0 167.5 68t65.5 174t-65.5 174t-167.5 68q-104 0 -171 -68t-67 -174z" />
<glyph unicode="&#xb1;" horiz-adv-x="1187" d="M145 0v154h897v-154h-897zM145 559v154h371v311h156v-311h370v-154h-370v-311h-156v311h-371z" />
<glyph unicode="&#xb2;" horiz-adv-x="671" d="M51 1305q0 115 79 188.5t204 73.5q119 0 192.5 -68.5t73.5 -179.5q0 -78 -41 -144.5t-147 -152.5l-146 -123h344v-131h-551v131l267 222q72 63 97.5 103t25.5 87q0 55 -34 90t-89 35t-89 -36t-38 -95h-148z" />
<glyph unicode="&#xb3;" horiz-adv-x="667" d="M43 998h147q8 -53 45 -84t95 -31q63 0 99 29.5t36 81.5q0 53 -34 83.5t-89 30.5h-145v119h135q51 0 82.5 28.5t31.5 75.5q0 49 -33.5 79t-86.5 30q-55 0 -90 -30.5t-41 -84.5h-148q8 109 85 175.5t196 66.5q117 0 190.5 -63.5t73.5 -163.5q0 -55 -25.5 -99t-72.5 -69 q57 -27 86.5 -74t29.5 -113q0 -98 -78.5 -163.5t-199.5 -65.5t-201 67.5t-88 174.5z" />
<glyph unicode="&#xb4;" horiz-adv-x="1024" d="M432 1106l205 307h184l-229 -307h-160z" />
<glyph unicode="&#xb5;" horiz-adv-x="1277" d="M160 -389v1388h176v-569q0 -137 74.5 -215t205.5 -78t206 78t75 215v569h178v-718q0 -74 29 -109t90 -35h20v-157h-20q-102 0 -171 37.5t-99 111.5q-49 -72 -130 -110.5t-178 -38.5q-92 0 -162.5 29.5t-117.5 86.5v-485h-176z" />
<glyph unicode="&#xb6;" horiz-adv-x="1327" d="M82 889q0 203 132 312.5t376 109.5h688v-154h-168v-1071q0 -176 -97.5 -268t-281.5 -92h-209v161h187q119 0 169 48.5t50 160.5v1061h-123v-1122h-148v430h-67q-244 0 -376 110.5t-132 313.5z" />
<glyph unicode="&#xb7;" horiz-adv-x="294" d="M53 594v199h189v-199h-189z" />
<glyph unicode="&#xb8;" horiz-adv-x="1024" d="M262 -219h139q4 -43 36 -68.5t85 -25.5q45 0 72 19.5t27 51.5q0 31 -25 48.5t-78 25.5l-78 14v95l127 -23q100 -16 147.5 -54t47.5 -106q0 -74 -66.5 -121t-173.5 -47q-115 0 -185.5 52.5t-74.5 138.5z" />
<glyph unicode="&#xb9;" horiz-adv-x="430" d="M29 1415l43 140h262v-787h-150v647h-155z" />
<glyph unicode="&#xba;" horiz-adv-x="970" d="M80 909q0 176 113.5 289t291.5 113q176 0 291 -113t115 -289t-114.5 -288.5t-291.5 -112.5q-178 0 -291.5 112.5t-113.5 288.5zM240 909q0 -117 67 -187.5t178 -70.5t179.5 72t68.5 186q0 117 -68.5 188.5t-179.5 71.5t-178 -71.5t-67 -188.5z" />
<glyph unicode="&#xbb;" horiz-adv-x="1052" d="M72 0l266 500l-266 499h180l268 -499l-268 -500h-180zM543 0l268 500l-268 499h182l266 -499l-266 -500h-182z" />
<glyph unicode="&#xbc;" horiz-adv-x="1437" d="M29 1171l43 140h262v-787h-150v647h-155zM221 0l623 1311h166l-623 -1311h-166zM754 166v125l375 496h159v-496h119v-125h-119v-166h-143v166h-391zM903 291h246v326z" />
<glyph unicode="&#xbd;" horiz-adv-x="1470" d="M29 1171l43 140h262v-787h-150v647h-155zM221 0l623 1311h166l-623 -1311h-166zM852 537q0 115 79 188.5t204 73.5q119 0 192.5 -68.5t73.5 -179.5q0 -78 -41 -144.5t-147 -152.5l-146 -123h344v-131h-551v131l267 222q72 63 97.5 103t25.5 87q0 55 -34 90t-89 35 t-89 -36t-38 -95h-148z" />
<glyph unicode="&#xbe;" horiz-adv-x="1675" d="M43 754h147q8 -53 45 -84t95 -31q63 0 99 29.5t36 81.5q0 53 -34 83.5t-89 30.5h-145v119h135q51 0 82.5 28.5t31.5 75.5q0 49 -33.5 79t-86.5 30q-55 0 -90 -30.5t-41 -84.5h-148q8 109 85 175.5t196 66.5q117 0 190.5 -63.5t73.5 -163.5q0 -55 -25.5 -99t-72.5 -69 q57 -27 86.5 -74t29.5 -113q0 -98 -78.5 -163.5t-199.5 -65.5t-201 67.5t-88 174.5zM459 0l623 1311h166l-623 -1311h-166zM991 166v125l375 496h159v-496h119v-125h-119v-166h-143v166h-391zM1140 291h246v326z" />
<glyph unicode="&#xbf;" horiz-adv-x="989" d="M49 82q0 154 91 264.5t288 196.5l207 84v-172l-148 -62q-129 -59 -191.5 -134t-62.5 -173q0 -113 71 -181.5t190 -68.5q125 0 200.5 74t81.5 203h180q-4 -195 -130 -316t-332 -121q-201 0 -323 112t-122 294zM422 799v209h213v-209h-213z" />
<glyph unicode="&#xc0;" horiz-adv-x="1437" d="M43 0l582 1311h188l580 -1311h-199l-154 354h-653l-154 -354h-190zM410 1720h184l205 -307h-160zM459 516h512l-256 592z" />
<glyph unicode="&#xc1;" horiz-adv-x="1437" d="M43 0l582 1311h188l580 -1311h-199l-154 354h-653l-154 -354h-190zM459 516h512l-256 592zM639 1413l205 307h184l-229 -307h-160z" />
<glyph unicode="&#xc2;" horiz-adv-x="1437" d="M43 0l582 1311h188l580 -1311h-199l-154 354h-653l-154 -354h-190zM412 1413l219 307h174l219 -307h-153l-152 201l-154 -201h-153zM459 516h512l-256 592z" />
<glyph unicode="&#xc3;" horiz-adv-x="1437" d="M43 0l582 1311h188l580 -1311h-199l-154 354h-653l-154 -354h-190zM420 1437q0 129 41 192.5t127 63.5q43 0 81 -19t91 -75q31 -35 47 -45t31 -10q31 0 44 31.5t13 103.5h121q0 -129 -42 -192.5t-126 -63.5q-43 0 -81 19.5t-89 74.5q-33 35 -48 45.5t-30 10.5 q-33 0 -46 -31t-13 -105h-121zM459 516h512l-256 592z" />
<glyph unicode="&#xc4;" horiz-adv-x="1437" d="M43 0l582 1311h188l580 -1311h-199l-154 354h-653l-154 -354h-190zM453 1505v191h176v-191h-176zM459 516h512l-256 592zM809 1505v191h176v-191h-176z" />
<glyph unicode="&#xc5;" horiz-adv-x="1437" d="M43 0l553 1247q-45 27 -70.5 73t-25.5 103q0 92 61.5 150.5t157.5 58.5t157.5 -58t61.5 -151q0 -57 -25.5 -103t-70.5 -73l551 -1247h-199l-154 354h-653l-154 -354h-190zM459 516h512l-256 592zM606 1423q0 -53 30 -82.5t83 -29.5t82.5 29.5t29.5 82.5t-29.5 83 t-82.5 30t-83 -29.5t-30 -83.5z" />
<glyph unicode="&#xc6;" horiz-adv-x="1925" d="M35 0l823 1311h979v-164h-713v-404h652v-159h-652v-420h713v-164h-895v354h-491l-224 -354h-192zM553 516h389v617z" />
<glyph unicode="&#xc7;" horiz-adv-x="1495" d="M104 655q0 295 186.5 485.5t473.5 190.5q246 0 421 -146.5t220 -389.5h-191q-41 174 -159.5 272t-290.5 98q-211 0 -342 -140t-131 -370q0 -229 131 -369.5t342 -140.5q174 0 292.5 98.5t157.5 272.5h191q-43 -244 -218 -390t-423 -146q-287 0 -473.5 190t-186.5 485z M522 -219h139q4 -43 36 -68.5t85 -25.5q45 0 72 19.5t27 51.5q0 31 -25 48.5t-78 25.5l-78 14v95l127 -23q100 -16 147.5 -54t47.5 -106q0 -74 -66.5 -121t-173.5 -47q-115 0 -185.5 52.5t-74.5 138.5z" />
<glyph unicode="&#xc8;" horiz-adv-x="1173" d="M190 0v1311h895v-164h-714v-404h653v-159h-653v-420h714v-164h-895zM336 1720h184l205 -307h-160z" />
<glyph unicode="&#xc9;" horiz-adv-x="1173" d="M190 0v1311h895v-164h-714v-404h653v-159h-653v-420h714v-164h-895zM565 1413l205 307h184l-229 -307h-160z" />
<glyph unicode="&#xca;" horiz-adv-x="1173" d="M190 0v1311h895v-164h-714v-404h653v-159h-653v-420h714v-164h-895zM338 1413l219 307h174l219 -307h-153l-152 201l-154 -201h-153z" />
<glyph unicode="&#xcb;" horiz-adv-x="1173" d="M190 0v1311h895v-164h-714v-404h653v-159h-653v-420h714v-164h-895zM379 1505v191h176v-191h-176zM735 1505v191h176v-191h-176z" />
<glyph unicode="&#xcc;" horiz-adv-x="561" d="M-26 1720h184l205 -307h-160zM190 0v1311h181v-1311h-181z" />
<glyph unicode="&#xcd;" horiz-adv-x="561" d="M190 0v1311h181v-1311h-181zM203 1413l205 307h184l-229 -307h-160z" />
<glyph unicode="&#xce;" horiz-adv-x="561" d="M-24 1413l219 307h174l219 -307h-153l-152 201l-154 -201h-153zM190 0v1311h181v-1311h-181z" />
<glyph unicode="&#xcf;" horiz-adv-x="561" d="M17 1505v191h176v-191h-176zM190 0v1311h181v-1311h-181zM373 1505v191h176v-191h-176z" />
<glyph unicode="&#xd0;" horiz-adv-x="1497" d="M55 582v153h170v576h500q293 0 482.5 -184.5t189.5 -471.5t-189.5 -471t-482.5 -184h-500v582h-170zM408 166h317q215 0 349 134t134 355t-134 355.5t-349 134.5h-317v-410h366v-153h-366v-416z" />
<glyph unicode="&#xd1;" horiz-adv-x="1542" d="M190 0v1311h177l807 -1024v1024h178v-1311h-178l-807 1024v-1024h-177zM473 1437q0 129 41 192.5t127 63.5q43 0 81 -19t91 -75q31 -35 47 -45t31 -10q31 0 44 31.5t13 103.5h121q0 -129 -42 -192.5t-126 -63.5q-43 0 -81 19.5t-89 74.5q-33 35 -48 45.5t-30 10.5 q-33 0 -46 -31t-13 -105h-121z" />
<glyph unicode="&#xd2;" horiz-adv-x="1540" d="M104 655q0 297 188.5 486.5t477.5 189.5q291 0 478.5 -189.5t187.5 -486.5t-187.5 -486t-478.5 -189q-289 0 -477.5 189t-188.5 486zM291 655q0 -229 133 -369.5t346 -140.5t346 140.5t133 369.5t-133 369.5t-346 140.5t-346 -140t-133 -370zM463 1720h184l205 -307h-160 z" />
<glyph unicode="&#xd3;" horiz-adv-x="1540" d="M104 655q0 297 188.5 486.5t477.5 189.5q291 0 478.5 -189.5t187.5 -486.5t-187.5 -486t-478.5 -189q-289 0 -477.5 189t-188.5 486zM291 655q0 -229 133 -369.5t346 -140.5t346 140.5t133 369.5t-133 369.5t-346 140.5t-346 -140t-133 -370zM692 1413l205 307h184 l-229 -307h-160z" />
<glyph unicode="&#xd4;" horiz-adv-x="1540" d="M104 655q0 297 188.5 486.5t477.5 189.5q291 0 478.5 -189.5t187.5 -486.5t-187.5 -486t-478.5 -189q-289 0 -477.5 189t-188.5 486zM291 655q0 -229 133 -369.5t346 -140.5t346 140.5t133 369.5t-133 369.5t-346 140.5t-346 -140t-133 -370zM465 1413l219 307h174 l219 -307h-153l-152 201l-154 -201h-153z" />
<glyph unicode="&#xd5;" horiz-adv-x="1540" d="M104 655q0 297 188.5 486.5t477.5 189.5q291 0 478.5 -189.5t187.5 -486.5t-187.5 -486t-478.5 -189q-289 0 -477.5 189t-188.5 486zM291 655q0 -229 133 -369.5t346 -140.5t346 140.5t133 369.5t-133 369.5t-346 140.5t-346 -140t-133 -370zM473 1437q0 129 41 192.5 t127 63.5q43 0 81 -19t91 -75q31 -35 47 -45t31 -10q31 0 44 31.5t13 103.5h121q0 -129 -42 -192.5t-126 -63.5q-43 0 -81 19.5t-89 74.5q-33 35 -48 45.5t-30 10.5q-33 0 -46 -31t-13 -105h-121z" />
<glyph unicode="&#xd6;" horiz-adv-x="1540" d="M104 655q0 297 188.5 486.5t477.5 189.5q291 0 478.5 -189.5t187.5 -486.5t-187.5 -486t-478.5 -189q-289 0 -477.5 189t-188.5 486zM291 655q0 -229 133 -369.5t346 -140.5t346 140.5t133 369.5t-133 369.5t-346 140.5t-346 -140t-133 -370zM506 1505v191h176v-191h-176 zM862 1505v191h176v-191h-176z" />
<glyph unicode="&#xd7;" horiz-adv-x="1187" d="M178 270l305 305l-305 306l111 110l305 -305l305 305l111 -110l-305 -306l305 -305l-111 -110l-305 305l-305 -305z" />
<glyph unicode="&#xd8;" horiz-adv-x="1566" d="M119 0l166 193q-80 90 -123 208.5t-43 253.5q0 297 187.5 486.5t477.5 189.5q109 0 206 -28.5t181 -85.5l82 94h197l-166 -193q80 -90 123 -209t43 -254q0 -297 -188.5 -486t-477.5 -189q-109 0 -207 29.5t-180 84.5l-82 -94h-196zM301 655q0 -96 25.5 -180t74.5 -149 l660 764q-57 39 -128 59t-149 20q-215 0 -349 -142t-134 -372zM508 223q59 -39 129.5 -59.5t146.5 -20.5q215 0 348.5 141.5t133.5 370.5q0 98 -24.5 181.5t-74.5 148.5z" />
<glyph unicode="&#xd9;" horiz-adv-x="1454" d="M160 549v762h180v-758q0 -199 99.5 -303.5t287.5 -104.5t287.5 104.5t99.5 303.5v758h182v-762q0 -270 -149.5 -419.5t-419.5 -149.5t-418.5 149.5t-148.5 419.5zM420 1720h184l205 -307h-160z" />
<glyph unicode="&#xda;" horiz-adv-x="1454" d="M160 549v762h180v-758q0 -199 99.5 -303.5t287.5 -104.5t287.5 104.5t99.5 303.5v758h182v-762q0 -270 -149.5 -419.5t-419.5 -149.5t-418.5 149.5t-148.5 419.5zM649 1413l205 307h184l-229 -307h-160z" />
<glyph unicode="&#xdb;" horiz-adv-x="1454" d="M160 549v762h180v-758q0 -199 99.5 -303.5t287.5 -104.5t287.5 104.5t99.5 303.5v758h182v-762q0 -270 -149.5 -419.5t-419.5 -149.5t-418.5 149.5t-148.5 419.5zM422 1413l219 307h174l219 -307h-153l-152 201l-154 -201h-153z" />
<glyph unicode="&#xdc;" horiz-adv-x="1454" d="M160 549v762h180v-758q0 -199 99.5 -303.5t287.5 -104.5t287.5 104.5t99.5 303.5v758h182v-762q0 -270 -149.5 -419.5t-419.5 -149.5t-418.5 149.5t-148.5 419.5zM463 1505v191h176v-191h-176zM819 1505v191h176v-191h-176z" />
<glyph unicode="&#xdd;" horiz-adv-x="1331" d="M18 1311h215l437 -606l438 606h205l-557 -762v-549h-183v547zM586 1413l205 307h184l-229 -307h-160z" />
<glyph unicode="&#xde;" horiz-adv-x="1300" d="M190 0v1311h181v-230h340q244 0 376 -110.5t132 -313.5t-132.5 -312t-375.5 -109h-340v-236h-181zM371 397h342q154 0 236.5 67.5t82.5 192.5q0 127 -83 195t-236 68h-342v-523z" />
<glyph unicode="&#xdf;" horiz-adv-x="1284" d="M39 850v149h156v2q0 201 120.5 317t337.5 116q203 0 325 -105.5t122 -275.5q0 -106 -43 -185.5t-127 -122.5q131 -39 199.5 -130t68.5 -226q0 -184 -122 -286.5t-339 -102.5h-172v154h160q141 0 218 64.5t77 182.5q0 117 -78 184.5t-215 67.5h-162v150h129 q104 0 166 64.5t62 170.5q0 111 -71 176.5t-198 65.5q-135 0 -208.5 -72.5t-73.5 -201.5v-1006h-176v850h-156z" />
<glyph unicode="&#xe0;" d="M92 500q0 225 143.5 372.5t356.5 147.5q115 0 211 -46t164 -132l30 157h129v-999h-129l-30 158q-68 -86 -164 -132t-211 -46q-213 0 -356.5 147t-143.5 373zM272 500q0 -160 96 -261.5t248 -101.5t249.5 101.5t97.5 261.5t-97.5 261t-249.5 101t-248 -101.5t-96 -260.5z M301 1413h184l205 -307h-160z" />
<glyph unicode="&#xe1;" d="M92 500q0 225 143.5 372.5t356.5 147.5q115 0 211 -46t164 -132l30 157h129v-999h-129l-30 158q-68 -86 -164 -132t-211 -46q-213 0 -356.5 147t-143.5 373zM272 500q0 -160 96 -261.5t248 -101.5t249.5 101.5t97.5 261.5t-97.5 261t-249.5 101t-248 -101.5t-96 -260.5z M530 1106l205 307h184l-229 -307h-160z" />
<glyph unicode="&#xe2;" d="M92 500q0 225 143.5 372.5t356.5 147.5q115 0 211 -46t164 -132l30 157h129v-999h-129l-30 158q-68 -86 -164 -132t-211 -46q-213 0 -356.5 147t-143.5 373zM272 500q0 -160 96 -261.5t248 -101.5t249.5 101.5t97.5 261.5t-97.5 261t-249.5 101t-248 -101.5t-96 -260.5z M303 1106l219 307h174l219 -307h-153l-152 201l-154 -201h-153z" />
<glyph unicode="&#xe3;" d="M92 500q0 225 143.5 372.5t356.5 147.5q115 0 211 -46t164 -132l30 157h129v-999h-129l-30 158q-68 -86 -164 -132t-211 -46q-213 0 -356.5 147t-143.5 373zM272 500q0 -160 96 -261.5t248 -101.5t249.5 101.5t97.5 261.5t-97.5 261t-249.5 101t-248 -101.5t-96 -260.5z M311 1130q0 129 41 192.5t127 63.5q43 0 81 -19t91 -75q31 -35 47 -45t31 -10q31 0 44 31.5t13 103.5h121q0 -129 -42 -192.5t-126 -63.5q-43 0 -81 19.5t-89 74.5q-33 35 -48 45.5t-30 10.5q-33 0 -46 -31t-13 -105h-121z" />
<glyph unicode="&#xe4;" d="M92 500q0 225 143.5 372.5t356.5 147.5q115 0 211 -46t164 -132l30 157h129v-999h-129l-30 158q-68 -86 -164 -132t-211 -46q-213 0 -356.5 147t-143.5 373zM272 500q0 -160 96 -261.5t248 -101.5t249.5 101.5t97.5 261.5t-97.5 261t-249.5 101t-248 -101.5t-96 -260.5z M344 1198v191h176v-191h-176zM700 1198v191h176v-191h-176z" />
<glyph unicode="&#xe5;" d="M92 500q0 225 143.5 372.5t356.5 147.5q115 0 211 -46t164 -132l30 157h129v-999h-129l-30 158q-68 -86 -164 -132t-211 -46q-213 0 -356.5 147t-143.5 373zM272 500q0 -160 96 -261.5t248 -101.5t249.5 101.5t97.5 261.5t-97.5 261t-249.5 101t-248 -101.5t-96 -260.5z M391 1280q0 92 61.5 150.5t157.5 58.5t157.5 -58.5t61.5 -150.5t-61.5 -150.5t-157.5 -58.5t-157.5 58.5t-61.5 150.5zM497 1280q0 -53 30 -83t83 -30t83 30t30 83t-30 83t-83 30t-83 -30t-30 -83z" />
<glyph unicode="&#xe6;" horiz-adv-x="1943" d="M98 291q0 143 109.5 216t327.5 73h311v10q0 127 -79 201.5t-212 74.5q-111 0 -188.5 -50t-100.5 -134h-166q31 156 153 247t302 91q137 0 237.5 -57.5t151.5 -165.5q61 109 167 166t243 57q217 0 355 -138.5t138 -353.5q0 -12 -1 -31.5t-3 -39.5h-835q14 -152 108 -239 t244 -87q117 0 197.5 54.5t111.5 148.5h174q-33 -158 -164 -256t-317 -98q-143 0 -258 62t-178 177q-55 -113 -169 -176t-261 -63q-182 0 -290 85t-108 226zM264 293q0 -80 68.5 -126t179.5 -46q137 0 235.5 77.5t98.5 192.5v58h-297q-141 0 -213 -39t-72 -117zM1012 588 h663q-10 129 -102.5 205.5t-229.5 76.5t-224 -73.5t-107 -208.5z" />
<glyph unicode="&#xe7;" horiz-adv-x="1181" d="M92 500q0 227 143.5 373.5t364.5 146.5q195 0 331 -113.5t167 -304.5h-183q-27 121 -110.5 190.5t-204.5 69.5q-147 0 -237.5 -99t-90.5 -263t90.5 -263.5t237.5 -99.5q121 0 204.5 69.5t110.5 190.5h183q-31 -188 -167 -302.5t-331 -114.5q-221 0 -364.5 146t-143.5 374 zM373 -219h139q4 -43 36 -68.5t85 -25.5q45 0 72 19.5t27 51.5q0 31 -25 48.5t-78 25.5l-78 14v95l127 -23q100 -16 147.5 -54t47.5 -106q0 -74 -66.5 -121t-173.5 -47q-115 0 -185.5 52.5t-74.5 138.5z" />
<glyph unicode="&#xe8;" horiz-adv-x="1202" d="M96 502q0 229 142.5 373.5t371.5 144.5q219 0 359.5 -137.5t140.5 -354.5q0 -12 -1 -31.5t-3 -39.5h-836q14 -152 108.5 -239t242.5 -87q119 0 199.5 54.5t111.5 148.5h174q-35 -158 -165 -256t-320 -98q-231 0 -379 146t-146 376zM274 588h664q-10 129 -102.5 205.5 t-229.5 76.5t-224 -73.5t-108 -208.5zM299 1413h184l205 -307h-160z" />
<glyph unicode="&#xe9;" horiz-adv-x="1202" d="M96 502q0 229 142.5 373.5t371.5 144.5q219 0 359.5 -137.5t140.5 -354.5q0 -12 -1 -31.5t-3 -39.5h-836q14 -152 108.5 -239t242.5 -87q119 0 199.5 54.5t111.5 148.5h174q-35 -158 -165 -256t-320 -98q-231 0 -379 146t-146 376zM274 588h664q-10 129 -102.5 205.5 t-229.5 76.5t-224 -73.5t-108 -208.5zM528 1106l205 307h184l-229 -307h-160z" />
<glyph unicode="&#xea;" horiz-adv-x="1202" d="M96 502q0 229 142.5 373.5t371.5 144.5q219 0 359.5 -137.5t140.5 -354.5q0 -12 -1 -31.5t-3 -39.5h-836q14 -152 108.5 -239t242.5 -87q119 0 199.5 54.5t111.5 148.5h174q-35 -158 -165 -256t-320 -98q-231 0 -379 146t-146 376zM274 588h664q-10 129 -102.5 205.5 t-229.5 76.5t-224 -73.5t-108 -208.5zM301 1106l219 307h174l219 -307h-153l-152 201l-154 -201h-153z" />
<glyph unicode="&#xeb;" horiz-adv-x="1202" d="M96 502q0 229 142.5 373.5t371.5 144.5q219 0 359.5 -137.5t140.5 -354.5q0 -12 -1 -31.5t-3 -39.5h-836q14 -152 108.5 -239t242.5 -87q119 0 199.5 54.5t111.5 148.5h174q-35 -158 -165 -256t-320 -98q-231 0 -379 146t-146 376zM274 588h664q-10 129 -102.5 205.5 t-229.5 76.5t-224 -73.5t-108 -208.5zM342 1198v191h176v-191h-176zM698 1198v191h176v-191h-176z" />
<glyph unicode="&#xec;" horiz-adv-x="505" d="M-55 1413h184l205 -307h-160zM166 0v999h176v-999h-176z" />
<glyph unicode="&#xed;" horiz-adv-x="505" d="M166 0v999h176v-999h-176zM174 1106l205 307h184l-229 -307h-160z" />
<glyph unicode="&#xee;" horiz-adv-x="505" d="M-53 1106l219 307h174l219 -307h-153l-152 201l-154 -201h-153zM166 0v999h176v-999h-176z" />
<glyph unicode="&#xef;" horiz-adv-x="505" d="M-12 1198v191h176v-191h-176zM166 0v999h176v-999h-176zM344 1198v191h176v-191h-176z" />
<glyph unicode="&#xf0;" horiz-adv-x="1212" d="M88 475q0 211 137 346t359 135q47 0 87 -7t77 -21l-173 213l-315 -131v137l234 96l-138 170h197l86 -108l313 129v-138l-229 -96l195 -244q113 -141 156.5 -246.5t43.5 -234.5q0 -219 -144.5 -357t-371.5 -138q-223 0 -368.5 140t-145.5 355zM266 475q0 -154 92.5 -246 t243.5 -92q156 0 247 91t91 247q0 154 -92 245t-246 91q-152 0 -244 -91t-92 -245z" />
<glyph unicode="&#xf1;" horiz-adv-x="1239" d="M166 0v999h127l31 -147q51 80 140 124t204 44q193 0 311.5 -113.5t118.5 -304.5v-602h-176v573q0 133 -80 211t-209 78q-131 0 -211 -78.5t-80 -210.5v-573h-176zM342 1130q0 129 41 192.5t127 63.5q43 0 81 -19t91 -75q31 -35 47 -45t31 -10q31 0 44 31.5t13 103.5h121 q0 -129 -42 -192.5t-126 -63.5q-43 0 -81 19.5t-89 74.5q-33 35 -48 45.5t-30 10.5q-33 0 -46 -31t-13 -105h-121z" />
<glyph unicode="&#xf2;" horiz-adv-x="1232" d="M92 500q0 229 147.5 374.5t376.5 145.5q231 0 379 -145.5t148 -374.5t-147.5 -374.5t-379.5 -145.5q-229 0 -376.5 145t-147.5 375zM270 500q0 -162 96 -262.5t250 -100.5t250.5 100.5t96.5 262.5t-96.5 262t-250.5 100t-250 -100t-96 -262zM307 1413h184l205 -307h-160z " />
<glyph unicode="&#xf3;" horiz-adv-x="1232" d="M92 500q0 229 147.5 374.5t376.5 145.5q231 0 379 -145.5t148 -374.5t-147.5 -374.5t-379.5 -145.5q-229 0 -376.5 145t-147.5 375zM270 500q0 -162 96 -262.5t250 -100.5t250.5 100.5t96.5 262.5t-96.5 262t-250.5 100t-250 -100t-96 -262zM536 1106l205 307h184 l-229 -307h-160z" />
<glyph unicode="&#xf4;" horiz-adv-x="1232" d="M92 500q0 229 147.5 374.5t376.5 145.5q231 0 379 -145.5t148 -374.5t-147.5 -374.5t-379.5 -145.5q-229 0 -376.5 145t-147.5 375zM270 500q0 -162 96 -262.5t250 -100.5t250.5 100.5t96.5 262.5t-96.5 262t-250.5 100t-250 -100t-96 -262zM309 1106l219 307h174 l219 -307h-153l-152 201l-154 -201h-153z" />
<glyph unicode="&#xf5;" horiz-adv-x="1232" d="M92 500q0 229 147.5 374.5t376.5 145.5q231 0 379 -145.5t148 -374.5t-147.5 -374.5t-379.5 -145.5q-229 0 -376.5 145t-147.5 375zM270 500q0 -162 96 -262.5t250 -100.5t250.5 100.5t96.5 262.5t-96.5 262t-250.5 100t-250 -100t-96 -262zM317 1130q0 129 41 192.5 t127 63.5q43 0 81 -19t91 -75q31 -35 47 -45t31 -10q31 0 44 31.5t13 103.5h121q0 -129 -42 -192.5t-126 -63.5q-43 0 -81 19.5t-89 74.5q-33 35 -48 45.5t-30 10.5q-33 0 -46 -31t-13 -105h-121z" />
<glyph unicode="&#xf6;" horiz-adv-x="1232" d="M92 500q0 229 147.5 374.5t376.5 145.5q231 0 379 -145.5t148 -374.5t-147.5 -374.5t-379.5 -145.5q-229 0 -376.5 145t-147.5 375zM270 500q0 -162 96 -262.5t250 -100.5t250.5 100.5t96.5 262.5t-96.5 262t-250.5 100t-250 -100t-96 -262zM350 1198v191h176v-191h-176z M706 1198v191h176v-191h-176z" />
<glyph unicode="&#xf7;" horiz-adv-x="1187" d="M145 498v155h897v-155h-897zM487 121v207h213v-207h-213zM487 823v207h213v-207h-213z" />
<glyph unicode="&#xf8;" horiz-adv-x="1261" d="M106 0l130 145q-63 70 -96.5 160t-33.5 195q0 229 147.5 374.5t379.5 145.5q84 0 158.5 -20.5t138.5 -61.5l53 61h174l-127 -145q61 -70 94 -160t33 -194q0 -229 -147.5 -374.5t-376.5 -145.5q-84 0 -159 20t-138 61l-53 -61h-177zM283 500q0 -66 16 -122t49 -104 l475 543q-43 25 -91 38t-99 13q-156 0 -253 -102t-97 -266zM444 184q41 -25 89.5 -38t99.5 -13q154 0 252 102.5t98 264.5q0 63 -16.5 120.5t-48.5 104.5z" />
<glyph unicode="&#xf9;" horiz-adv-x="1189" d="M139 416v583h176v-569q0 -137 75 -215t206 -78t204.5 78t73.5 215v569h179v-583q0 -199 -125 -317.5t-332 -118.5q-209 0 -333 117.5t-124 318.5zM287 1413h184l205 -307h-160z" />
<glyph unicode="&#xfa;" horiz-adv-x="1189" d="M139 416v583h176v-569q0 -137 75 -215t206 -78t204.5 78t73.5 215v569h179v-583q0 -199 -125 -317.5t-332 -118.5q-209 0 -333 117.5t-124 318.5zM516 1106l205 307h184l-229 -307h-160z" />
<glyph unicode="&#xfb;" horiz-adv-x="1189" d="M139 416v583h176v-569q0 -137 75 -215t206 -78t204.5 78t73.5 215v569h179v-583q0 -199 -125 -317.5t-332 -118.5q-209 0 -333 117.5t-124 318.5zM289 1106l219 307h174l219 -307h-153l-152 201l-154 -201h-153z" />
<glyph unicode="&#xfc;" horiz-adv-x="1189" d="M139 416v583h176v-569q0 -137 75 -215t206 -78t204.5 78t73.5 215v569h179v-583q0 -199 -125 -317.5t-332 -118.5q-209 0 -333 117.5t-124 318.5zM330 1198v191h176v-191h-176zM686 1198v191h176v-191h-176z" />
<glyph unicode="&#xfd;" horiz-adv-x="1118" d="M31 999h186l348 -845l340 845h182l-462 -1122q-59 -147 -141.5 -206.5t-237.5 -59.5h-125v158h117q102 0 150 34.5t87 128.5l33 80h-66zM479 1106l205 307h184l-229 -307h-160z" />
<glyph unicode="&#xfe;" d="M166 -389v1802h176v-557q63 80 155.5 122t200.5 42q213 0 356.5 -147.5t143.5 -372.5t-143.5 -372.5t-356.5 -147.5q-109 0 -200.5 41.5t-155.5 121.5v-532h-176zM328 500q0 -160 97 -261.5t249 -101.5q154 0 250 101.5t96 261.5t-96 261t-250 101q-152 0 -249 -101.5 t-97 -260.5z" />
<glyph unicode="&#xff;" horiz-adv-x="1118" d="M31 999h186l348 -845l340 845h182l-462 -1122q-59 -147 -141.5 -206.5t-237.5 -59.5h-125v158h117q102 0 150 34.5t87 128.5l33 80h-66zM293 1198v191h176v-191h-176zM649 1198v191h176v-191h-176z" />
<glyph unicode="&#x152;" horiz-adv-x="1937" d="M102 655q0 287 188.5 471.5t481.5 184.5h1079v-164h-714v-404h653v-159h-653v-420h714v-164h-1079q-293 0 -481.5 184.5t-188.5 470.5zM289 655q0 -221 134 -355t349 -134h182v979h-182q-215 0 -349 -134.5t-134 -355.5z" />
<glyph unicode="&#x153;" horiz-adv-x="2074" d="M92 500q0 229 146.5 374.5t371.5 145.5q145 0 261 -64.5t180 -181.5q63 117 175.5 181.5t258.5 64.5q217 0 355 -138.5t138 -353.5q0 -12 -1 -31.5t-3 -39.5h-835q14 -152 108 -239t242 -87q119 0 199.5 54.5t111.5 148.5h174q-33 -158 -163 -256t-316 -98 q-145 0 -262 65.5t-180 181.5q-66 -117 -181.5 -182t-261.5 -65q-225 0 -371.5 145t-146.5 375zM270 500q0 -162 96 -262.5t250 -100.5t250.5 100.5t96.5 262.5t-96.5 262t-250.5 100t-250 -100t-96 -262zM1143 588h663q-10 129 -102 205.5t-229 76.5t-224.5 -73.5 t-107.5 -208.5z" />
<glyph unicode="&#x178;" horiz-adv-x="1331" d="M18 1311h215l437 -606l438 606h205l-557 -762v-549h-183v547zM400 1505v191h176v-191h-176zM756 1505v191h176v-191h-176z" />
<glyph unicode="&#x2c6;" horiz-adv-x="1024" d="M205 1106l219 307h174l219 -307h-153l-152 201l-154 -201h-153z" />
<glyph unicode="&#x2dc;" horiz-adv-x="1024" d="M213 1130q0 129 41 192.5t127 63.5q43 0 81 -19t91 -75q31 -35 47 -45t31 -10q31 0 44 31.5t13 103.5h121q0 -129 -42 -192.5t-126 -63.5q-43 0 -81 19.5t-89 74.5q-33 35 -48 45.5t-30 10.5q-33 0 -46 -31t-13 -105h-121z" />
<glyph unicode="&#x2000;" horiz-adv-x="860" />
<glyph unicode="&#x2001;" horiz-adv-x="1720" />
<glyph unicode="&#x2002;" horiz-adv-x="860" />
<glyph unicode="&#x2003;" horiz-adv-x="1720" />
<glyph unicode="&#x2004;" horiz-adv-x="573" />
<glyph unicode="&#x2005;" horiz-adv-x="430" />
<glyph unicode="&#x2006;" horiz-adv-x="286" />
<glyph unicode="&#x2007;" horiz-adv-x="286" />
<glyph unicode="&#x2008;" horiz-adv-x="215" />
<glyph unicode="&#x2009;" horiz-adv-x="344" />
<glyph unicode="&#x200a;" horiz-adv-x="95" />
<glyph unicode="&#x2010;" horiz-adv-x="724" d="M92 498v155h541v-155h-541z" />
<glyph unicode="&#x2011;" horiz-adv-x="724" d="M92 498v155h541v-155h-541z" />
<glyph unicode="&#x2012;" horiz-adv-x="724" d="M92 498v155h541v-155h-541z" />
<glyph unicode="&#x2013;" horiz-adv-x="1024" d="M92 498v155h840v-155h-840z" />
<glyph unicode="&#x2014;" horiz-adv-x="2048" d="M92 498v155h1864v-155h-1864z" />
<glyph unicode="&#x2018;" horiz-adv-x="499" d="M76 801l147 510h160l-102 -510h-205z" />
<glyph unicode="&#x2019;" horiz-adv-x="499" d="M80 801l102 510h207l-149 -510h-160z" />
<glyph unicode="&#x201a;" horiz-adv-x="446" d="M33 -303l102 510h207l-149 -510h-160z" />
<glyph unicode="&#x201c;" horiz-adv-x="923" d="M76 801l147 510h160l-102 -510h-205zM498 801l147 510h162l-105 -510h-204z" />
<glyph unicode="&#x201d;" horiz-adv-x="921" d="M80 801l102 510h207l-149 -510h-160zM502 801l104 510h205l-147 -510h-162z" />
<glyph unicode="&#x201e;" horiz-adv-x="856" d="M20 -303l103 510h207l-150 -510h-160zM442 -303l105 510h205l-148 -510h-162z" />
<glyph unicode="&#x2022;" horiz-adv-x="405" d="M68 444v265h270v-265h-270z" />
<glyph unicode="&#x2026;" horiz-adv-x="1320" d="M84 0v207h213v-207h-213zM555 0v207h213v-207h-213zM1026 0v207h213v-207h-213z" />
<glyph unicode="&#x202f;" horiz-adv-x="344" />
<glyph unicode="&#x2039;" horiz-adv-x="579" d="M59 500l269 499h182l-268 -499l268 -500h-182z" />
<glyph unicode="&#x203a;" horiz-adv-x="579" d="M72 0l266 500l-266 499h180l268 -499l-268 -500h-180z" />
<glyph unicode="&#x205f;" horiz-adv-x="430" />
<glyph unicode="&#x20ac;" horiz-adv-x="1435" d="M80 440v135h149l-3 49.5t-1 30.5t1 32t3 50h-149v135h176q61 211 232 335t401 124q147 0 272 -51t217 -147l-106 -125q-78 80 -176.5 120.5t-208.5 40.5q-156 0 -272.5 -78.5t-170.5 -218.5h574l-35 -135h-571q-2 -33 -3 -50t-1 -32q0 -16 1 -34.5t3 -45.5h530l-37 -135 h-461q51 -141 168 -220t275 -79q111 0 209 41t176 121l106 -125q-92 -96 -217 -147t-272 -51q-231 0 -402.5 124.5t-232.5 335.5h-174z" />
<glyph unicode="&#x2122;" horiz-adv-x="1814" d="M39 1176v135h694v-135h-276v-652h-142v652h-276zM784 524l78 787h170l215 -551l215 551h168l80 -787h-143l-56 570l-198 -504h-137l-197 497l-57 -563h-138z" />
<glyph unicode="&#x25fc;" horiz-adv-x="1003" d="M0 0v1004h1004v-1004h-1004z" />
</font>
</defs>
</svg>
