<?xml version="1.0" standalone="no"?>
<!DOCTYPE svg PUBLIC "-//W3C//DTD SVG 1.1//EN" "http://www.w3.org/Graphics/SVG/1.1/DTD/svg11.dtd" >
<svg xmlns="http://www.w3.org/2000/svg" xmlns:xlink="http://www.w3.org/1999/xlink" version="1.1">
<metadata></metadata>
<defs>
<font id="nouvelrbook" horiz-adv-x="1294" >
<font-face units-per-em="2048" ascent="1638" descent="-410" />
<missing-glyph horiz-adv-x="360" />
<glyph horiz-adv-x="0" />
<glyph horiz-adv-x="682" />
<glyph unicode="&#xd;" horiz-adv-x="0" />
<glyph unicode=" "  horiz-adv-x="360" />
<glyph unicode="&#x09;" horiz-adv-x="360" />
<glyph unicode="&#xa0;" horiz-adv-x="360" />
<glyph unicode="!" horiz-adv-x="522" d="M164 0v188h192v-188h-192zM182 766v545h158v-545l-27 -356h-104z" />
<glyph unicode="&#x22;" horiz-adv-x="899" d="M152 1311h184l-37 -492h-111zM563 1311h185l-35 -492h-113z" />
<glyph unicode="#" horiz-adv-x="1476" d="M61 313v138h238l98 409h-227v137h260l76 314h153l-75 -314h473l76 314h153l-76 -314h203v-137h-235l-99 -409h226v-138h-258l-76 -313h-154l76 313h-473l-76 -313h-154l76 313h-205zM453 451h473l98 409h-473z" />
<glyph unicode="$" horiz-adv-x="1251" d="M111 412h163q10 -131 113.5 -211t269.5 -80q150 0 236 59.5t86 167.5q0 96 -70.5 146.5t-226.5 72.5l-119 17q-211 29 -322.5 127t-111.5 254q0 154 108.5 252t294.5 112v184h146v-186q193 -20 304.5 -127.5t127.5 -286.5h-162q-18 139 -105 208t-247 69 q-145 0 -225 -57.5t-80 -161.5q0 -98 77.5 -154.5t245.5 -79.5l119 -16q205 -29 308.5 -121t103.5 -244q0 -170 -125 -271t-342 -108v-180h-146v189q-190 31 -302.5 144.5t-118.5 281.5z" />
<glyph unicode="%" horiz-adv-x="1904" d="M82 956q0 164 106.5 269.5t274.5 105.5t274.5 -105.5t106.5 -269.5t-106.5 -267t-274.5 -103t-274.5 103.5t-106.5 266.5zM221 956q0 -109 67.5 -176t174.5 -67q106 0 174 67.5t68 175.5q0 109 -68 177.5t-174 68.5t-174 -68.5t-68 -177.5zM461 0l807 1311h155 l-807 -1311h-155zM1040 350q0 164 106.5 269.5t274.5 105.5t274.5 -105.5t106.5 -269.5t-106.5 -268.5t-274.5 -104.5q-166 0 -273.5 104.5t-107.5 268.5zM1180 350q0 -109 67.5 -176.5t173.5 -67.5t174 68t68 176q0 109 -67.5 177.5t-174.5 68.5q-106 0 -173.5 -68.5 t-67.5 -177.5z" />
<glyph unicode="&#x26;" horiz-adv-x="1447" d="M104 356q0 121 60.5 214.5t175.5 150.5q-55 66 -83 135.5t-28 144.5q0 147 102.5 238.5t268.5 91.5q180 0 295 -117.5t115 -300.5h-158q-2 125 -70.5 201t-177.5 76q-94 0 -154.5 -55.5t-60.5 -141.5q0 -66 38 -132t112 -128l843 -733h-221l-205 176q-82 -98 -187 -147 t-234 -49q-195 0 -313 103t-118 273zM254 369q0 -115 77 -181.5t210 -66.5q94 0 173 38t136 111l-420 361q0 2 -1 3t-3 1q-84 -45 -128 -112.5t-44 -153.5zM879 512v139h413v-139h-413z" />
<glyph unicode="'" horiz-adv-x="489" d="M152 1311h184l-35 -492h-113z" />
<glyph unicode="(" horiz-adv-x="585" d="M156 569q0 231 59 443.5t176 400.5h166q-119 -186 -179.5 -401t-60.5 -443q0 -221 61.5 -434.5t178.5 -408.5h-166q-117 197 -176 408.5t-59 434.5z" />
<glyph unicode=")" horiz-adv-x="585" d="M29 -274q117 188 178 403t61 440q0 223 -61.5 438.5t-177.5 405.5h166q117 -193 176 -405t59 -439q0 -229 -59.5 -441t-175.5 -402h-166z" />
<glyph unicode="*" horiz-adv-x="878" d="M49 973l47 145l297 -129l-28 322h151l-31 -326l297 129l49 -143l-317 -72l213 -242l-123 -92l-166 281l-166 -279l-122 90l215 244z" />
<glyph unicode="+" horiz-adv-x="1187" d="M147 508v135h379v379h136v-379h378v-135h-378v-379h-136v379h-379z" />
<glyph unicode="," horiz-adv-x="364" d="M8 -303l101 491h184l-146 -491h-139z" />
<glyph unicode="-" horiz-adv-x="724" d="M92 508v135h541v-135h-541z" />
<glyph unicode="." horiz-adv-x="391" d="M98 0v188h195v-188h-195z" />
<glyph unicode="/" horiz-adv-x="630" d="M-111 -274l627 1687h162l-627 -1687h-162z" />
<glyph unicode="0" horiz-adv-x="1288" d="M125 653q0 311 140.5 494.5t379.5 183.5q238 0 378 -184t140 -494q0 -309 -140 -492.5t-378 -183.5q-240 0 -380 183.5t-140 492.5zM289 653q0 -252 94 -392t262 -140t261 140t93 392t-93 392.5t-261 140.5t-262 -140.5t-94 -392.5z" />
<glyph unicode="1" horiz-adv-x="645" d="M39 1165l43 146h364v-1311h-157v1165h-250z" />
<glyph unicode="2" horiz-adv-x="1097" d="M90 895q4 195 128 315.5t325 120.5q193 0 310.5 -110.5t117.5 -290.5q0 -129 -70 -240.5t-274 -288.5l-303 -262h669v-139h-887v139l435 379q147 129 207.5 219t60.5 187q0 119 -73.5 192.5t-196.5 73.5q-129 0 -206 -79t-83 -216h-160z" />
<glyph unicode="3" horiz-adv-x="1130" d="M94 383h158q8 -125 89 -195.5t214 -70.5q135 0 215 64.5t80 176.5q0 109 -74 175.5t-194 66.5h-232v133h213q113 0 184.5 64.5t71.5 167.5q0 104 -74.5 166.5t-193.5 62.5q-125 0 -204 -70.5t-89 -195.5h-158q12 182 136 292.5t317 110.5q188 0 305 -99t117 -263 q0 -100 -49.5 -176t-137.5 -119q104 -39 161 -122t57 -196q0 -164 -126 -270t-321 -106q-197 0 -326 111.5t-139 291.5z" />
<glyph unicode="4" horiz-adv-x="1171" d="M59 309v137l682 865h183v-865h186v-137h-186v-309h-156v309h-709zM229 446h543v693z" />
<glyph unicode="5" horiz-adv-x="1150" d="M133 371h154q14 -113 99 -183.5t206 -70.5q135 0 219 86t84 223q0 131 -85 213t-222 82q-106 0 -184 -44t-115 -126h-142l78 760h758v-140h-631l-41 -409q57 45 130 68.5t159 23.5q203 0 327 -118t124 -308q0 -197 -128 -322.5t-329 -125.5q-190 0 -319.5 108.5 t-141.5 282.5z" />
<glyph unicode="6" horiz-adv-x="1146" d="M92 436q0 106 48 213.5t163 261.5l297 400h176l-338 -449q35 12 70 18.5t78 6.5q213 0 342 -125t129 -324q0 -201 -135.5 -329.5t-348.5 -128.5t-347 129t-134 327zM246 438q0 -143 91 -230t236 -87q143 0 234.5 87t91.5 230q0 141 -91 228.5t-235 87.5 q-145 0 -236 -87.5t-91 -228.5z" />
<glyph unicode="7" horiz-adv-x="1009" d="M41 1171v140h907v-140l-534 -1171h-170l534 1171h-737z" />
<glyph unicode="8" horiz-adv-x="1214" d="M121 358q0 109 61.5 194t171.5 130q-96 43 -147 120t-51 177q0 154 128 253t324 99q195 0 324 -100.5t129 -251.5q0 -100 -52.5 -177t-148.5 -120q113 -45 174.5 -130t61.5 -194q0 -170 -135.5 -274t-352.5 -104q-219 0 -353 103t-134 275zM279 369q0 -115 86.5 -181.5 t242.5 -66.5q154 0 241 66.5t87 181.5q0 117 -87 183t-241 66t-241.5 -67.5t-87.5 -181.5zM307 969q0 -104 80 -165t221 -61q139 0 219 60.5t80 165.5q0 102 -79.5 162.5t-219.5 60.5q-139 0 -220 -60.5t-81 -162.5z" />
<glyph unicode="9" horiz-adv-x="1146" d="M90 872q0 201 135 330t348 129t347.5 -129t134.5 -328q0 -106 -49 -214.5t-164 -260.5l-295 -399h-178l338 449q-33 -12 -68 -18.5t-78 -6.5q-213 0 -342 125t-129 323zM246 872q0 -141 92 -228t235 -87t235.5 87t92.5 228q0 143 -91 230.5t-237 87.5q-143 0 -235 -88 t-92 -230z" />
<glyph unicode=":" horiz-adv-x="434" d="M119 0v188h194v-188h-194zM119 815v189h194v-189h-194z" />
<glyph unicode=";" horiz-adv-x="415" d="M29 -303l100 491h186l-147 -491h-139zM121 815v189h194v-189h-194z" />
<glyph unicode="&#x3c;" horiz-adv-x="1187" d="M147 512v127l893 377v-152l-710 -286l710 -287v-158z" />
<glyph unicode="=" horiz-adv-x="1187" d="M147 303v135h893v-135h-893zM147 713v135h893v-135h-893z" />
<glyph unicode="&#x3e;" horiz-adv-x="1187" d="M147 133v152l711 286l-711 287v158l893 -379v-127z" />
<glyph unicode="?" horiz-adv-x="1019" d="M55 895q4 195 128 315.5t327 120.5q197 0 316.5 -110.5t119.5 -292.5q0 -152 -90 -263.5t-283 -197.5l-198 -86v151l141 64q137 66 203.5 146.5t66.5 183.5q0 121 -74.5 192.5t-201.5 71.5q-131 0 -211 -79t-86 -216h-158zM375 0v188h194v-188h-194z" />
<glyph unicode="@" horiz-adv-x="2025" d="M125 532q0 395 257 646.5t658 251.5q381 0 626 -232.5t245 -595.5q0 -258 -132 -420t-349 -162h-33l-27 173q-68 -92 -168 -142.5t-219 -50.5q-213 0 -355.5 147.5t-142.5 374.5t142.5 374.5t355.5 147.5q119 0 219.5 -50t167.5 -142l27 172h112v-883q119 10 199 140.5 t80 320.5q0 313 -209 512t-539 199q-348 0 -570 -218t-222 -563q0 -348 215 -554.5t598 -206.5h475v-117h-475q-436 0 -686 240.5t-250 637.5zM641 522q0 -170 101.5 -277.5t261.5 -107.5t262 107.5t102 277.5t-102.5 277.5t-261.5 107.5q-160 0 -261.5 -107.5 t-101.5 -277.5z" />
<glyph unicode="A" horiz-adv-x="1427" d="M45 0l586 1311h166l585 -1311h-174l-164 371h-669l-162 -371h-168zM436 512h547l-272 623z" />
<glyph unicode="B" horiz-adv-x="1300" d="M199 0v1311h499q205 0 324 -94.5t119 -255.5q0 -102 -47 -175t-140 -112q113 -39 170.5 -118t57.5 -196q0 -168 -121 -264t-328 -96h-534zM356 137h371q143 0 218 59.5t75 174.5q0 113 -75 171t-218 58h-371v-463zM356 733h336q141 0 214 55.5t73 161.5 q0 109 -72.5 166.5t-214.5 57.5h-336v-441z" />
<glyph unicode="C" horiz-adv-x="1495" d="M111 655q0 297 184 486.5t471 189.5q244 0 417 -144.5t218 -385.5h-166q-41 182 -166 284.5t-303 102.5q-219 0 -355.5 -146.5t-136.5 -386.5t136.5 -385t355.5 -145q180 0 305 102.5t164 282.5h166q-45 -242 -217 -386t-418 -144q-287 0 -471 189t-184 486z" />
<glyph unicode="D" horiz-adv-x="1460" d="M199 0v1311h485q293 0 480.5 -183.5t187.5 -472.5t-187.5 -472t-480.5 -183h-485zM356 145h328q225 0 364.5 140.5t139.5 369.5t-139.5 369.5t-364.5 140.5h-328v-1020z" />
<glyph unicode="E" horiz-adv-x="1169" d="M199 0v1311h884v-144h-727v-432h666v-141h-666v-451h727v-143h-884z" />
<glyph unicode="F" horiz-adv-x="1126" d="M199 0v1311h868v-146h-711v-465h650v-141h-650v-559h-157z" />
<glyph unicode="G" horiz-adv-x="1517" d="M111 655q0 297 183 486.5t470 189.5q233 0 401 -127t221 -340h-167q-47 152 -168 238t-287 86q-219 0 -354.5 -146.5t-135.5 -386.5t136.5 -386t357.5 -146q203 0 333 114.5t148 311.5h-506v139h670v-12t2 -19v-18v-12q0 -285 -182 -466t-467 -181q-287 0 -471 189 t-184 486z" />
<glyph unicode="H" horiz-adv-x="1507" d="M199 0v1311h157v-574h795v574h158v-1311h-158v596h-795v-596h-157z" />
<glyph unicode="I" horiz-adv-x="555" d="M199 0v1311h157v-1311h-157z" />
<glyph unicode="J" horiz-adv-x="800" d="M45 0v139h191q121 0 172 50t51 167v955h157v-963q0 -170 -94 -259t-272 -89h-205z" />
<glyph unicode="K" horiz-adv-x="1357" d="M199 0v1311h157v-566h187l565 566h192v-8l-624 -621l639 -672v-10h-203l-569 604h-187v-604h-157z" />
<glyph unicode="L" horiz-adv-x="1075" d="M199 0v1311h157v-1166h674v-145h-831z" />
<glyph unicode="M" horiz-adv-x="1744" d="M135 0l131 1311h203l405 -1014l404 1014h201l133 -1311h-162l-111 1087l-393 -978h-151l-396 972l-110 -1081h-154z" />
<glyph unicode="N" horiz-adv-x="1546" d="M199 0v1311h155l840 -1065v1065h156v-1311h-156l-840 1059v-1059h-155z" />
<glyph unicode="O" horiz-adv-x="1544" d="M111 655q0 297 186 486.5t475 189.5t475.5 -189.5t186.5 -486.5t-186.5 -486t-475.5 -189t-475 189t-186 486zM274 655q0 -240 138.5 -385t359.5 -145t359.5 145.5t138.5 384.5q0 240 -138.5 386.5t-359.5 146.5t-359.5 -146.5t-138.5 -386.5z" />
<glyph unicode="P" horiz-adv-x="1300" d="M199 0v1311h512q242 0 372.5 -107.5t130.5 -308.5t-131 -309.5t-372 -108.5h-355v-477h-157zM356 618h357q164 0 252 72t88 205t-88 203.5t-252 70.5h-357v-551z" />
<glyph unicode="Q" horiz-adv-x="1544" d="M111 655q0 297 186 486.5t475 189.5t475.5 -189.5t186.5 -486.5q0 -274 -162 -459.5t-420 -211.5v-189h-160v189q-258 27 -419.5 212t-161.5 459zM274 655q0 -217 114 -359t304 -169v311h160v-311q190 27 304 169t114 359q0 240 -138.5 386.5t-359.5 146.5t-359.5 -146.5 t-138.5 -386.5z" />
<glyph unicode="R" horiz-adv-x="1320" d="M199 0v1311h499q236 0 367 -107.5t131 -300.5q0 -152 -81 -252t-232 -137l356 -514h-188l-332 494h-363v-494h-157zM356 635h344q160 0 247 69.5t87 196.5q0 129 -87 198.5t-247 69.5h-344v-534z" />
<glyph unicode="S" horiz-adv-x="1251" d="M111 412h163q10 -131 113.5 -211t269.5 -80q150 0 236 59.5t86 167.5q0 96 -70.5 146.5t-226.5 72.5l-119 17q-211 29 -322.5 127t-111.5 254q0 168 126 267t339 99q227 0 363.5 -109.5t152.5 -308.5h-162q-18 139 -105 208t-247 69q-145 0 -225 -57.5t-80 -161.5 q0 -98 77.5 -154.5t245.5 -79.5l119 -16q205 -29 308.5 -121t103.5 -244q0 -176 -132 -277.5t-360 -101.5q-238 0 -386 120t-156 315z" />
<glyph unicode="T" horiz-adv-x="1230" d="M41 1165v146h1149v-146h-496v-1165h-157v1165h-496z" />
<glyph unicode="U" horiz-adv-x="1458" d="M166 547v764h160v-760q0 -209 103 -317.5t300 -108.5t301.5 109.5t104.5 316.5v760h157v-764q0 -268 -148.5 -417.5t-414.5 -149.5t-414.5 149.5t-148.5 417.5z" />
<glyph unicode="V" horiz-adv-x="1400" d="M39 1311h176l490 -1135l489 1135h168l-578 -1311h-168z" />
<glyph unicode="W" horiz-adv-x="1939" d="M55 1311h168l322 -1106l362 860l-98 246h172l424 -1094l315 1094h164l-393 -1311h-158l-350 877l-377 -877h-157z" />
<glyph unicode="X" horiz-adv-x="1308" d="M47 0l506 678l-483 633h194l395 -516l381 516h183l-471 -637l514 -674h-195l-426 559l-416 -559h-182z" />
<glyph unicode="Y" horiz-adv-x="1331" d="M18 1311h191l461 -617l463 617h180l-568 -752v-559h-157v555z" />
<glyph unicode="Z" horiz-adv-x="1165" d="M74 0v145l803 1022h-777v144h973v-144l-805 -1022h824v-145h-1018z" />
<glyph unicode="[" horiz-adv-x="757" d="M209 -274v1687h448v-141h-288v-1405h288v-141h-448z" />
<glyph unicode="\" horiz-adv-x="630" d="M-47 1413h166l622 -1687h-166z" />
<glyph unicode="]" horiz-adv-x="757" d="M94 -133h291v1405h-291v141h449v-1687h-449v141z" />
<glyph unicode="^" horiz-adv-x="1187" d="M154 418l376 893h127l379 -893h-157l-287 710l-287 -710h-151z" />
<glyph unicode="_" horiz-adv-x="978" d="M84 -121h840v-123h-840v123z" />
<glyph unicode="`" horiz-adv-x="1024" d="M217 1413h162l205 -307h-142z" />
<glyph unicode="a" d="M98 498q0 223 143.5 370.5t356.5 147.5q119 0 219.5 -50.5t167.5 -142.5l27 172h112v-995h-112l-27 172q-68 -92 -168 -142t-219 -50q-215 0 -357.5 146t-142.5 372zM254 498q0 -168 101 -274.5t261 -106.5t262.5 106.5t102.5 274.5t-102.5 274.5t-262.5 106.5 t-261 -106.5t-101 -274.5z" />
<glyph unicode="b" d="M172 0v1413h154v-575q66 86 162 132t210 46q213 0 355.5 -147.5t142.5 -370.5q0 -225 -142.5 -371.5t-355.5 -146.5q-119 0 -219 49t-168 141l-26 -170h-113zM313 498q0 -168 102.5 -274.5t262.5 -106.5t261 106.5t101 274.5t-101 274.5t-261 106.5t-262.5 -106.5 t-102.5 -274.5z" />
<glyph unicode="c" horiz-adv-x="1179" d="M98 498q0 227 141.5 372.5t360.5 145.5q190 0 323.5 -112.5t168.5 -299.5h-160q-29 127 -117 201t-215 74q-156 0 -251 -105.5t-95 -275.5q0 -172 95 -276.5t251 -104.5q127 0 215 73.5t117 200.5h160q-35 -188 -168 -299.5t-324 -111.5q-219 0 -360.5 145t-141.5 373z " />
<glyph unicode="d" d="M98 498q0 223 143.5 370.5t356.5 147.5q115 0 211 -47t162 -133v577h153v-1413h-112l-27 172q-68 -92 -168 -142t-219 -50q-215 0 -357.5 146t-142.5 372zM254 498q0 -168 101 -274.5t261 -106.5t262.5 106.5t102.5 274.5t-102.5 274.5t-262.5 106.5t-261 -106.5 t-101 -274.5z" />
<glyph unicode="e" horiz-adv-x="1208" d="M98 500q2 229 143.5 372.5t368.5 143.5q219 0 358.5 -137.5t139.5 -348.5q0 -12 -1 -31.5t-3 -35.5h-852q10 -162 110.5 -256t258.5 -94q127 0 212.5 58.5t120.5 160.5h152q-37 -160 -167 -256t-318 -96q-229 0 -376 145t-147 375zM256 580h705q-10 137 -109 220t-246 83 q-145 0 -238.5 -80t-111.5 -223z" />
<glyph unicode="f" horiz-adv-x="778" d="M41 854v131h160v80q0 176 91 262t277 86h209l-35 -131h-157q-121 0 -176.5 -50t-55.5 -161v-86h389v-131h-389v-854h-153v854h-160z" />
<glyph unicode="g" horiz-adv-x="1300" d="M98 504q0 221 143.5 366.5t358.5 145.5q119 0 220 -50.5t169 -140.5l29 170h110v-1022q0 -188 -93 -275t-296 -87h-489l37 139h452q127 0 181.5 51.5t54.5 171.5v189q-68 -82 -165 -126t-210 -44q-215 0 -358.5 145.5t-143.5 366.5zM254 504q0 -166 102.5 -270.5 t264.5 -104.5q160 0 263 104.5t103 270.5q0 164 -103.5 269.5t-262.5 105.5q-162 0 -264.5 -104.5t-102.5 -270.5z" />
<glyph unicode="h" horiz-adv-x="1239" d="M172 0v1413h154v-551q55 74 142 114t196 40q190 0 309 -115t119 -303v-598h-154v573q0 139 -84 221.5t-221 82.5t-222 -83t-85 -221v-573h-154z" />
<glyph unicode="i" horiz-adv-x="495" d="M164 1200v184h168v-184h-168zM172 0v995h154v-995h-154z" />
<glyph unicode="j" horiz-adv-x="495" d="M-117 -252h105q98 0 141 41t43 135v1071h154v-1075q0 -160 -78 -234.5t-244 -74.5h-121v137zM164 1200v184h168v-184h-168z" />
<glyph unicode="k" horiz-adv-x="1116" d="M172 0v1413h154v-833h170l389 415h172v-10l-439 -467l461 -508v-10h-188l-402 444h-163v-444h-154z" />
<glyph unicode="l" horiz-adv-x="495" d="M172 0v1413h154v-1413h-154z" />
<glyph unicode="m" horiz-adv-x="1916" d="M172 0v995h113l22 -145q49 80 135 123t197 43q121 0 215 -51.5t145 -143.5q47 90 141.5 142.5t215.5 52.5q182 0 295.5 -107.5t113.5 -285.5v-623h-153v596q0 129 -78 205t-205 76t-204.5 -77t-77.5 -204v-596h-156v596q0 129 -77 205t-204 76q-129 0 -206.5 -77 t-77.5 -204v-596h-154z" />
<glyph unicode="n" horiz-adv-x="1239" d="M172 0v995h113l24 -157q53 84 145.5 131t209.5 47q190 0 309 -115t119 -303v-598h-154v573q0 139 -84 221.5t-221 82.5t-222 -83t-85 -221v-573h-154z" />
<glyph unicode="o" horiz-adv-x="1232" d="M96 498q0 227 146.5 372.5t373.5 145.5t374 -145.5t147 -372.5t-146.5 -372.5t-374.5 -145.5q-227 0 -373.5 145t-146.5 373zM252 498q0 -170 100 -275.5t264 -105.5t264.5 105.5t100.5 275.5t-100.5 275.5t-264.5 105.5t-264 -105.5t-100 -275.5z" />
<glyph unicode="p" d="M172 -389v1384h113l26 -170q68 92 168.5 141.5t218.5 49.5q213 0 355.5 -147.5t142.5 -370.5q0 -225 -142.5 -371.5t-355.5 -146.5q-113 0 -210 46t-162 130v-545h-154zM313 498q0 -168 102.5 -274.5t262.5 -106.5t261 106.5t101 274.5t-101 274.5t-261 106.5 t-262.5 -106.5t-102.5 -274.5z" />
<glyph unicode="q" d="M98 498q0 223 143.5 370.5t356.5 147.5q119 0 219.5 -50.5t167.5 -142.5l27 172h112v-1384h-153v549q-66 -86 -162 -133t-211 -47q-215 0 -357.5 146t-142.5 372zM254 498q0 -168 101 -274.5t261 -106.5t262.5 106.5t102.5 274.5t-102.5 274.5t-262.5 106.5t-261 -106.5 t-101 -274.5z" />
<glyph unicode="r" horiz-adv-x="765" d="M172 0v995h569l-51 -139h-364v-856h-154z" />
<glyph unicode="s" horiz-adv-x="1042" d="M102 336h154q6 -104 81 -165.5t208 -61.5q119 0 181 38.5t62 112.5q0 68 -52 105.5t-165 52.5l-131 16q-158 20 -238.5 94t-80.5 195q0 135 103.5 214t283.5 79q184 0 298 -90t118 -238h-150q-4 92 -74.5 145.5t-191.5 53.5q-113 0 -174.5 -41t-61.5 -115 q0 -70 50.5 -106.5t160.5 -51.5l129 -18q168 -23 249 -93.5t81 -193.5q0 -133 -106.5 -210.5t-290.5 -77.5q-199 0 -317.5 97t-125.5 259z" />
<glyph unicode="t" horiz-adv-x="802" d="M47 862v35l264 274h37v-176h387v-133h-387v-545q0 -92 53 -135t166 -43h174v-139h-178q-190 0 -280 75t-90 234v553h-146z" />
<glyph unicode="u" horiz-adv-x="1189" d="M145 416v579h154v-569q0 -143 80 -226t217 -83t217 83t80 226v569h154v-579q0 -199 -123 -317.5t-328 -118.5q-207 0 -329 117.5t-122 318.5z" />
<glyph unicode="v" horiz-adv-x="1110" d="M33 995h164l360 -823l358 823h160l-440 -995h-160z" />
<glyph unicode="w" horiz-adv-x="1667" d="M43 995h152l297 -823l284 670l-63 153h153l334 -827l281 827h143l-344 -995h-162l-276 678l-287 -678h-152z" />
<glyph unicode="x" horiz-adv-x="1107" d="M35 0l424 516l-393 479h188l309 -377l307 377h181l-398 -485l418 -510h-188l-336 410l-334 -410h-178z" />
<glyph unicode="y" horiz-adv-x="1110" d="M33 995h164l362 -862l356 862h162l-477 -1126q-59 -143 -138 -200.5t-231 -57.5h-114v137h108q106 0 155.5 36t90.5 134l39 96h-59z" />
<glyph unicode="z" horiz-adv-x="997" d="M70 0v133l651 729h-635v133h819v-133l-651 -729h678v-133h-862z" />
<glyph unicode="{" horiz-adv-x="817" d="M51 498v143h70q117 0 167 45t38 139l-25 213q-23 190 72.5 282.5t312.5 92.5h78v-141h-70q-131 0 -188 -53.5t-45 -169.5l24 -211q14 -104 -19.5 -171t-113.5 -98q80 -31 114 -97t19 -171l-24 -211q-12 -117 45 -170t188 -53h70v-141h-78q-217 0 -312 92t-73 282l25 213 q12 94 -38 139.5t-167 45.5h-70z" />
<glyph unicode="|" horiz-adv-x="577" d="M209 -274v1687h160v-1687h-160z" />
<glyph unicode="}" horiz-adv-x="817" d="M47 -133h72q131 0 188.5 53t44.5 170l-26 211q-12 104 21.5 171t113.5 97q-80 31 -114 97.5t-21 171.5l26 211q12 117 -45 170t-188 53h-72v141h78q217 0 313.5 -92t73.5 -283l-25 -213q-12 -94 38 -139t167 -45h70v-143h-70q-117 0 -167 -45t-38 -140l25 -213 q23 -190 -73.5 -282t-313.5 -92h-78v141z" />
<glyph unicode="~" horiz-adv-x="1187" d="M121 424q0 156 68.5 241t187.5 85q61 0 117.5 -24t142.5 -99q63 -57 98 -73.5t70 -16.5q63 0 96 49t33 143h133q0 -156 -68.5 -241t-187.5 -85q-61 0 -117.5 24t-142.5 99q-63 57 -98 73.5t-70 16.5q-63 0 -96 -49t-33 -143h-133z" />
<glyph unicode="&#xa1;" horiz-adv-x="485" d="M147 815v189h193v-189h-193zM164 238l26 356h107l25 -356v-545h-158v545z" />
<glyph unicode="&#xa2;" horiz-adv-x="1179" d="M98 498q0 203 116 343t302 169v188h146v-186q168 -18 283.5 -128t144.5 -280h-158q-29 127 -118 201t-216 74q-154 0 -249 -105.5t-95 -275.5t95 -275.5t249 -105.5q127 0 216 73.5t118 200.5h158q-29 -170 -145 -279.5t-283 -127.5v-187h-146v189q-186 29 -302 169 t-116 343z" />
<glyph unicode="&#xa3;" horiz-adv-x="1226" d="M82 0v139h172v385h-172v138h172v239q0 197 116.5 313.5t313.5 116.5q201 0 321.5 -119.5t120.5 -316.5h-157q-4 135 -80 215t-201 80q-121 0 -198.5 -83t-77.5 -212v-233h512v-138h-512v-385h729v-139h-1059z" />
<glyph unicode="&#xa4;" horiz-adv-x="1269" d="M76 88l188 188q-29 49 -44 105.5t-15 120.5q0 61 14 118.5t43 106.5l-186 186l96 103l184 -185q55 45 126 69t153 24q80 0 150.5 -22.5t127.5 -67.5l183 182l98 -103l-188 -188q29 -49 43 -105.5t14 -117.5q0 -63 -14.5 -119.5t-42.5 -106.5l188 -188l-98 -102l-183 182 q-57 -45 -127.5 -67.5t-150.5 -22.5q-82 0 -152.5 23.5t-126.5 68.5l-184 -184zM348 502q0 -129 80 -211t207 -82t207 82t80 211q0 127 -81 209t-206 82t-206 -82t-81 -209z" />
<glyph unicode="&#xa5;" horiz-adv-x="1357" d="M33 1311h190l461 -617l463 617h180l-403 -533h264v-123h-357l-71 -94v-80h428v-123h-428v-358h-160v358h-432v123h432v76l-74 98h-358v123h266z" />
<glyph unicode="&#xa6;" horiz-adv-x="552" d="M197 -274v714h159v-714h-159zM197 698v715h159v-715h-159z" />
<glyph unicode="&#xa7;" horiz-adv-x="1153" d="M150 528q0 86 46 151.5t132 102.5q-88 39 -133 106.5t-45 160.5q0 143 110.5 227t300.5 84h377v-129h-377q-125 0 -192.5 -47t-67.5 -133q0 -84 55.5 -130.5t171.5 -62.5l138 -18q178 -23 267 -98.5t89 -206.5q0 -86 -49.5 -150.5t-141.5 -101.5q98 -39 146.5 -105.5 t48.5 -163.5q0 -143 -115.5 -226t-312.5 -83h-397v129h397q133 0 202.5 45t69.5 131q0 84 -56 131t-177 64l-143 18q-170 20 -257 98t-87 207zM295 530q0 -86 80 -134t227 -48q127 0 196.5 49t69.5 138q0 86 -79.5 134t-227.5 48q-127 0 -196.5 -49.5t-69.5 -137.5z" />
<glyph unicode="&#xa8;" horiz-adv-x="1024" d="M254 1206v178h160v-178h-160zM608 1206v178h160v-178h-160z" />
<glyph unicode="&#xa9;" horiz-adv-x="1814" d="M117 653q0 342 222 559.5t568 217.5t567.5 -217.5t221.5 -559.5t-221.5 -558t-567.5 -216q-348 0 -569 217t-221 557zM193 653q0 -309 199.5 -504.5t514.5 -195.5t514 194.5t199 505.5t-198.5 507t-514.5 196q-313 0 -513.5 -197t-200.5 -506zM410 645q0 229 141 375.5 t358 146.5q193 0 326 -113.5t166 -301.5h-158q-29 129 -118 203.5t-216 74.5q-154 0 -249 -106.5t-95 -278.5t95.5 -278.5t248.5 -106.5q127 0 216 75t118 204h158q-33 -188 -166 -302t-326 -114q-217 0 -358 146.5t-141 375.5z" />
<glyph unicode="&#xaa;" horiz-adv-x="1007" d="M86 907q0 172 108.5 285t274.5 113q84 0 155.5 -37t123.5 -105l18 127h108v-766h-108l-18 125q-51 -68 -123 -104.5t-156 -36.5q-166 0 -274.5 112.5t-108.5 286.5zM225 907q0 -121 72.5 -196.5t187.5 -75.5q113 0 185.5 75.5t72.5 196.5q0 119 -72.5 196t-185.5 77 q-115 0 -187.5 -76t-72.5 -197z" />
<glyph unicode="&#xab;" horiz-adv-x="1024" d="M66 498l264 497h159l-266 -497l266 -498h-159zM524 498l264 497h160l-266 -497l266 -498h-160z" />
<glyph unicode="&#xac;" horiz-adv-x="1187" d="M147 508v135h893v-514h-137v379h-756z" />
<glyph unicode="&#xad;" horiz-adv-x="0" />
<glyph unicode="&#xae;" horiz-adv-x="1165" d="M94 932q0 215 137.5 352t352.5 137t351 -137t136 -352t-136 -351.5t-351 -136.5t-352.5 136.5t-137.5 351.5zM170 932q0 -182 115.5 -298t298.5 -116q182 0 296.5 115t114.5 299t-114.5 300t-296.5 116t-298 -116t-116 -300zM356 647v574h250q104 0 163.5 -51.5 t59.5 -141.5q0 -61 -27.5 -104t-80.5 -66l123 -211h-133l-109 191h-129v-191h-117zM473 946h137q51 0 76 20.5t25 61.5q0 39 -26 60.5t-75 21.5h-137v-164z" />
<glyph unicode="&#xaf;" horiz-adv-x="1024" d="M231 1200v119h562v-119h-562z" />
<glyph unicode="&#xb0;" horiz-adv-x="968" d="M98 948q0 168 108.5 275.5t278.5 107.5t278.5 -107.5t108.5 -275.5q0 -166 -108.5 -272.5t-278.5 -106.5t-278.5 106.5t-108.5 272.5zM238 948q0 -111 68.5 -180.5t178.5 -69.5q109 0 177.5 70t68.5 180q0 113 -68.5 183.5t-177.5 70.5t-178 -70.5t-69 -183.5z" />
<glyph unicode="&#xb1;" horiz-adv-x="1187" d="M147 0v135h893v-135h-893zM147 567v138h379v317h136v-317h378v-138h-378v-315h-136v315h-379z" />
<glyph unicode="&#xb2;" horiz-adv-x="667" d="M51 1305q2 117 80 189.5t201 72.5q119 0 191.5 -67.5t72.5 -178.5q0 -78 -41 -144.5t-152 -158.5l-153 -131h356v-119h-545v119l265 223q76 70 103.5 112t27.5 93q0 57 -36 94t-95 37q-61 0 -98.5 -38t-41.5 -103h-135z" />
<glyph unicode="&#xb3;" horiz-adv-x="669" d="M47 998h133q8 -59 48 -93t102 -34q68 0 107.5 32.5t39.5 88.5q0 55 -37 88.5t-96 33.5h-143v109h131q55 0 91 31.5t36 81.5q0 53 -37 84.5t-94 31.5q-61 0 -99.5 -33.5t-44.5 -93.5h-133q8 109 84 175.5t193 66.5t189.5 -62.5t72.5 -162.5q0 -55 -27 -99t-74 -71 q57 -25 88 -74t31 -113q0 -98 -77.5 -163.5t-198.5 -65.5q-119 0 -198 66.5t-87 175.5z" />
<glyph unicode="&#xb4;" horiz-adv-x="1024" d="M440 1106l205 307h162l-225 -307h-142z" />
<glyph unicode="&#xb5;" horiz-adv-x="1280" d="M166 -389v1384h153v-569q0 -143 80 -226t217 -83q139 0 219 83t80 226v569h154v-723q0 -78 32 -116.5t95 -38.5h21v-137h-21q-100 0 -165.5 39.5t-94.5 115.5q-51 -74 -136 -114.5t-184 -40.5q-96 0 -172 31.5t-125 92.5v-493h-153z" />
<glyph unicode="&#xb6;" horiz-adv-x="1325" d="M86 895q0 201 131 308.5t373 107.5h686v-135h-172v-1102q0 -170 -94.5 -259t-274.5 -89h-205v139h191q121 0 172 50t51 167v1094h-127v-1156h-135v457h-92q-242 0 -373 108.5t-131 309.5z" />
<glyph unicode="&#xb7;" horiz-adv-x="280" d="M55 598v184h168v-184h-168z" />
<glyph unicode="&#xb8;" horiz-adv-x="1024" d="M270 -219h123q2 -45 37 -71.5t92 -26.5q51 0 79 20.5t28 54.5q0 31 -24.5 48.5t-82.5 27.5l-82 16v89l121 -21q100 -16 146.5 -54t46.5 -106q0 -74 -64.5 -121t-167.5 -47q-111 0 -179.5 52.5t-72.5 138.5z" />
<glyph unicode="&#xb9;" horiz-adv-x="419" d="M27 1430l39 125h251v-787h-135v662h-155z" />
<glyph unicode="&#xba;" horiz-adv-x="970" d="M86 907q0 174 111.5 286t287.5 112q174 0 287 -112t113 -286q0 -176 -113 -287.5t-287 -111.5q-176 0 -287.5 111.5t-111.5 287.5zM225 907q0 -123 71.5 -197.5t188.5 -74.5t188.5 74.5t71.5 197.5q0 121 -71.5 197t-188.5 76t-188.5 -76t-71.5 -197z" />
<glyph unicode="&#xbb;" horiz-adv-x="1024" d="M76 0l266 498l-266 497h157l267 -497l-267 -498h-157zM535 0l266 498l-266 497h157l266 -497l-266 -498h-157z" />
<glyph unicode="&#xbc;" horiz-adv-x="1411" d="M27 1186l39 125h251v-787h-135v662h-155zM215 0l623 1311h145l-622 -1311h-146zM731 170v115l383 502h147v-502h117v-115h-117v-170h-131v170h-399zM868 285h266v346z" />
<glyph unicode="&#xbd;" horiz-adv-x="1445" d="M27 1186l39 125h251v-787h-135v662h-155zM215 0l623 1311h145l-622 -1311h-146zM829 537q2 117 80 189.5t201 72.5q119 0 191.5 -67.5t72.5 -178.5q0 -78 -41 -144.5t-152 -158.5l-153 -131h356v-119h-545v119l265 223q76 70 103.5 112t27.5 93q0 57 -36 94t-95 37 q-61 0 -98.5 -38t-41.5 -103h-135z" />
<glyph unicode="&#xbe;" horiz-adv-x="1662" d="M47 754h133q8 -59 48 -93t102 -34q68 0 107.5 32.5t39.5 88.5q0 55 -37 88.5t-96 33.5h-143v109h131q55 0 91 31.5t36 81.5q0 53 -37 84.5t-94 31.5q-61 0 -99.5 -33.5t-44.5 -93.5h-133q8 109 84 175.5t193 66.5t189.5 -62.5t72.5 -162.5q0 -55 -27 -99t-74 -71 q57 -25 88 -74t31 -113q0 -98 -77.5 -163.5t-198.5 -65.5q-119 0 -198 66.5t-87 175.5zM465 0l623 1311h145l-622 -1311h-146zM983 170v115l383 502h147v-502h117v-115h-117v-170h-131v170h-399zM1120 285h266v346z" />
<glyph unicode="&#xbf;" horiz-adv-x="983" d="M55 76q0 152 90.5 263.5t282.5 197.5l199 86v-152l-142 -63q-137 -66 -203.5 -147t-66.5 -183q0 -121 75 -192.5t202 -71.5q131 0 210.5 78.5t85.5 216.5h158q-4 -195 -128 -316t-326 -121q-197 0 -317 111t-120 293zM432 815v189h195v-189h-195z" />
<glyph unicode="&#xc0;" horiz-adv-x="1427" d="M45 0l586 1311h166l585 -1311h-174l-164 371h-669l-162 -371h-168zM420 1720h162l205 -307h-142zM436 512h547l-272 623z" />
<glyph unicode="&#xc1;" horiz-adv-x="1427" d="M45 0l586 1311h166l585 -1311h-174l-164 371h-669l-162 -371h-168zM436 512h547l-272 623zM643 1413l205 307h162l-225 -307h-142z" />
<glyph unicode="&#xc2;" horiz-adv-x="1427" d="M45 0l586 1311h166l585 -1311h-174l-164 371h-669l-162 -371h-168zM416 1413l221 307h154l221 -307h-137l-160 211l-162 -211h-137zM436 512h547l-272 623z" />
<glyph unicode="&#xc3;" horiz-adv-x="1427" d="M45 0l586 1311h166l585 -1311h-174l-164 371h-669l-162 -371h-168zM420 1437q0 127 41 188.5t125 61.5q43 0 79 -19.5t87 -76.5q33 -37 49 -47t33 -10q35 0 49 32.5t14 108.5h111q0 -129 -41 -190.5t-125 -61.5q-43 0 -79 19.5t-87 76.5q-33 37 -48 47.5t-32 10.5 q-35 0 -50 -32t-15 -108h-111zM436 512h547l-272 623z" />
<glyph unicode="&#xc4;" horiz-adv-x="1427" d="M45 0l586 1311h166l585 -1311h-174l-164 371h-669l-162 -371h-168zM436 512h547l-272 623zM457 1513v178h160v-178h-160zM811 1513v178h160v-178h-160z" />
<glyph unicode="&#xc5;" horiz-adv-x="1427" d="M45 0l557 1247q-49 27 -76.5 74t-27.5 106q0 90 61.5 148.5t155.5 58.5t155.5 -58t61.5 -149q0 -59 -27.5 -107t-79.5 -73l557 -1247h-174l-164 371h-669l-162 -371h-168zM436 512h547l-272 623zM598 1427q0 -55 31 -85.5t86 -30.5t85.5 30.5t30.5 85.5t-30.5 86 t-85.5 31t-86 -30.5t-31 -86.5z" />
<glyph unicode="&#xc6;" horiz-adv-x="1916" d="M37 0l837 1311h957v-144h-727v-432h665v-141h-665v-451h727v-143h-885v371h-502l-237 -371h-170zM535 512h411v643z" />
<glyph unicode="&#xc7;" horiz-adv-x="1495" d="M111 655q0 297 184 486.5t471 189.5q244 0 417 -144.5t218 -385.5h-166q-41 182 -166 284.5t-303 102.5q-219 0 -355.5 -146.5t-136.5 -386.5t136.5 -385t355.5 -145q180 0 305 102.5t164 282.5h166q-45 -242 -217 -386t-418 -144q-287 0 -471 189t-184 486zM530 -219 h123q2 -45 37 -71.5t92 -26.5q51 0 79 20.5t28 54.5q0 31 -24.5 48.5t-82.5 27.5l-82 16v89l121 -21q100 -16 146.5 -54t46.5 -106q0 -74 -64.5 -121t-167.5 -47q-111 0 -179.5 52.5t-72.5 138.5z" />
<glyph unicode="&#xc8;" horiz-adv-x="1169" d="M199 0v1311h884v-144h-727v-432h666v-141h-666v-451h727v-143h-884zM352 1720h162l205 -307h-142z" />
<glyph unicode="&#xc9;" horiz-adv-x="1169" d="M199 0v1311h884v-144h-727v-432h666v-141h-666v-451h727v-143h-884zM575 1413l205 307h162l-225 -307h-142z" />
<glyph unicode="&#xca;" horiz-adv-x="1169" d="M199 0v1311h884v-144h-727v-432h666v-141h-666v-451h727v-143h-884zM348 1413l221 307h154l221 -307h-137l-160 211l-162 -211h-137z" />
<glyph unicode="&#xcb;" horiz-adv-x="1169" d="M199 0v1311h884v-144h-727v-432h666v-141h-666v-451h727v-143h-884zM389 1513v178h160v-178h-160zM743 1513v178h160v-178h-160z" />
<glyph unicode="&#xcc;" horiz-adv-x="555" d="M-16 1720h162l205 -307h-142zM199 0v1311h157v-1311h-157z" />
<glyph unicode="&#xcd;" horiz-adv-x="555" d="M199 0v1311h157v-1311h-157zM207 1413l205 307h162l-225 -307h-142z" />
<glyph unicode="&#xce;" horiz-adv-x="555" d="M-20 1413l221 307h154l221 -307h-137l-160 211l-162 -211h-137zM199 0v1311h157v-1311h-157z" />
<glyph unicode="&#xcf;" horiz-adv-x="555" d="M21 1513v178h160v-178h-160zM199 0v1311h157v-1311h-157zM375 1513v178h160v-178h-160z" />
<glyph unicode="&#xd0;" horiz-adv-x="1495" d="M55 590v137h178v584h486q293 0 480 -183.5t187 -472.5t-187 -472t-480 -183h-486v590h-178zM391 145h328q225 0 365.5 140.5t140.5 369.5t-140.5 369.5t-365.5 140.5h-328v-438h381v-137h-381v-445z" />
<glyph unicode="&#xd1;" horiz-adv-x="1546" d="M199 0v1311h155l840 -1065v1065h156v-1311h-156l-840 1059v-1059h-155zM479 1437q0 127 41 188.5t125 61.5q43 0 79 -19.5t87 -76.5q33 -37 49 -47t33 -10q35 0 49 32.5t14 108.5h111q0 -129 -41 -190.5t-125 -61.5q-43 0 -79 19.5t-87 76.5q-33 37 -48 47.5t-32 10.5 q-35 0 -50 -32t-15 -108h-111z" />
<glyph unicode="&#xd2;" horiz-adv-x="1544" d="M111 655q0 297 186 486.5t475 189.5t475.5 -189.5t186.5 -486.5t-186.5 -486t-475.5 -189t-475 189t-186 486zM274 655q0 -240 138.5 -385t359.5 -145t359.5 145.5t138.5 384.5q0 240 -138.5 386.5t-359.5 146.5t-359.5 -146.5t-138.5 -386.5zM477 1720h162l205 -307 h-142z" />
<glyph unicode="&#xd3;" horiz-adv-x="1544" d="M111 655q0 297 186 486.5t475 189.5t475.5 -189.5t186.5 -486.5t-186.5 -486t-475.5 -189t-475 189t-186 486zM274 655q0 -240 138.5 -385t359.5 -145t359.5 145.5t138.5 384.5q0 240 -138.5 386.5t-359.5 146.5t-359.5 -146.5t-138.5 -386.5zM700 1413l205 307h162 l-225 -307h-142z" />
<glyph unicode="&#xd4;" horiz-adv-x="1544" d="M111 655q0 297 186 486.5t475 189.5t475.5 -189.5t186.5 -486.5t-186.5 -486t-475.5 -189t-475 189t-186 486zM274 655q0 -240 138.5 -385t359.5 -145t359.5 145.5t138.5 384.5q0 240 -138.5 386.5t-359.5 146.5t-359.5 -146.5t-138.5 -386.5zM473 1413l221 307h154 l221 -307h-137l-160 211l-162 -211h-137z" />
<glyph unicode="&#xd5;" horiz-adv-x="1544" d="M111 655q0 297 186 486.5t475 189.5t475.5 -189.5t186.5 -486.5t-186.5 -486t-475.5 -189t-475 189t-186 486zM274 655q0 -240 138.5 -385t359.5 -145t359.5 145.5t138.5 384.5q0 240 -138.5 386.5t-359.5 146.5t-359.5 -146.5t-138.5 -386.5zM477 1437q0 127 41 188.5 t125 61.5q43 0 79 -19.5t87 -76.5q33 -37 49 -47t33 -10q35 0 49 32.5t14 108.5h111q0 -129 -41 -190.5t-125 -61.5q-43 0 -79 19.5t-87 76.5q-33 37 -48 47.5t-32 10.5q-35 0 -50 -32t-15 -108h-111z" />
<glyph unicode="&#xd6;" horiz-adv-x="1544" d="M111 655q0 297 186 486.5t475 189.5t475.5 -189.5t186.5 -486.5t-186.5 -486t-475.5 -189t-475 189t-186 486zM274 655q0 -240 138.5 -385t359.5 -145t359.5 145.5t138.5 384.5q0 240 -138.5 386.5t-359.5 146.5t-359.5 -146.5t-138.5 -386.5zM514 1513v178h160v-178 h-160zM868 1513v178h160v-178h-160z" />
<glyph unicode="&#xd7;" horiz-adv-x="1187" d="M186 264l312 311l-312 312l97 96l311 -311l311 311l96 -96l-311 -312l311 -311l-96 -96l-311 311l-311 -311z" />
<glyph unicode="&#xd8;" horiz-adv-x="1570" d="M125 0l166 190q-82 90 -124 209t-42 256q0 297 186.5 486.5t474.5 189.5q111 0 212.5 -30.5t183.5 -90.5l88 101h178l-166 -191q82 -90 124 -209t42 -256q0 -297 -186.5 -486t-475.5 -189q-111 0 -212 30.5t-183 89.5l-88 -100h-178zM287 655q0 -102 26.5 -190t79.5 -158 l690 791q-61 45 -137 68.5t-160 23.5q-221 0 -360 -147.5t-139 -387.5zM489 213q63 -45 139 -67.5t158 -22.5q223 0 361.5 146.5t138.5 385.5q0 102 -26.5 191.5t-79.5 157.5z" />
<glyph unicode="&#xd9;" horiz-adv-x="1458" d="M166 547v764h160v-760q0 -209 103 -317.5t300 -108.5t301.5 109.5t104.5 316.5v760h157v-764q0 -268 -148.5 -417.5t-414.5 -149.5t-414.5 149.5t-148.5 417.5zM434 1720h162l205 -307h-142z" />
<glyph unicode="&#xda;" horiz-adv-x="1458" d="M166 547v764h160v-760q0 -209 103 -317.5t300 -108.5t301.5 109.5t104.5 316.5v760h157v-764q0 -268 -148.5 -417.5t-414.5 -149.5t-414.5 149.5t-148.5 417.5zM657 1413l205 307h162l-225 -307h-142z" />
<glyph unicode="&#xdb;" horiz-adv-x="1458" d="M166 547v764h160v-760q0 -209 103 -317.5t300 -108.5t301.5 109.5t104.5 316.5v760h157v-764q0 -268 -148.5 -417.5t-414.5 -149.5t-414.5 149.5t-148.5 417.5zM430 1413l221 307h154l221 -307h-137l-160 211l-162 -211h-137z" />
<glyph unicode="&#xdc;" horiz-adv-x="1458" d="M166 547v764h160v-760q0 -209 103 -317.5t300 -108.5t301.5 109.5t104.5 316.5v760h157v-764q0 -268 -148.5 -417.5t-414.5 -149.5t-414.5 149.5t-148.5 417.5zM471 1513v178h160v-178h-160zM825 1513v178h160v-178h-160z" />
<glyph unicode="&#xdd;" horiz-adv-x="1331" d="M18 1311h191l461 -617l463 617h180l-568 -752v-559h-157v555zM594 1413l205 307h162l-225 -307h-142z" />
<glyph unicode="&#xde;" horiz-adv-x="1300" d="M199 0v1311h157v-238h355q242 0 372.5 -107.5t130.5 -308.5t-131 -309t-372 -108h-355v-240h-157zM356 383h357q164 0 252 70.5t88 203.5t-88 204t-252 71h-357v-549z" />
<glyph unicode="&#xdf;" horiz-adv-x="1275" d="M41 862v133h158v13q0 197 118.5 311.5t331.5 114.5q199 0 318.5 -104.5t119.5 -276.5q0 -109 -45 -188t-129 -122q133 -37 203 -128t70 -226q0 -184 -120 -286.5t-333 -102.5h-170v135h160q147 0 227 67.5t80 192.5t-81 196t-222 71h-164v133h131q106 0 172 68.5 t66 178.5q0 119 -75 187.5t-208 68.5q-143 0 -220 -76.5t-77 -211.5v-1010h-153v862h-158z" />
<glyph unicode="&#xe0;" d="M98 498q0 223 143.5 370.5t356.5 147.5q119 0 219.5 -50.5t167.5 -142.5l27 172h112v-995h-112l-27 172q-68 -92 -168 -142t-219 -50q-215 0 -357.5 146t-142.5 372zM254 498q0 -168 101 -274.5t261 -106.5t262.5 106.5t102.5 274.5t-102.5 274.5t-262.5 106.5 t-261 -106.5t-101 -274.5zM313 1413h162l205 -307h-142z" />
<glyph unicode="&#xe1;" d="M98 498q0 223 143.5 370.5t356.5 147.5q119 0 219.5 -50.5t167.5 -142.5l27 172h112v-995h-112l-27 172q-68 -92 -168 -142t-219 -50q-215 0 -357.5 146t-142.5 372zM254 498q0 -168 101 -274.5t261 -106.5t262.5 106.5t102.5 274.5t-102.5 274.5t-262.5 106.5 t-261 -106.5t-101 -274.5zM536 1106l205 307h162l-225 -307h-142z" />
<glyph unicode="&#xe2;" d="M98 498q0 223 143.5 370.5t356.5 147.5q119 0 219.5 -50.5t167.5 -142.5l27 172h112v-995h-112l-27 172q-68 -92 -168 -142t-219 -50q-215 0 -357.5 146t-142.5 372zM254 498q0 -168 101 -274.5t261 -106.5t262.5 106.5t102.5 274.5t-102.5 274.5t-262.5 106.5 t-261 -106.5t-101 -274.5zM309 1106l221 307h154l221 -307h-137l-160 211l-162 -211h-137z" />
<glyph unicode="&#xe3;" d="M98 498q0 223 143.5 370.5t356.5 147.5q119 0 219.5 -50.5t167.5 -142.5l27 172h112v-995h-112l-27 172q-68 -92 -168 -142t-219 -50q-215 0 -357.5 146t-142.5 372zM254 498q0 -168 101 -274.5t261 -106.5t262.5 106.5t102.5 274.5t-102.5 274.5t-262.5 106.5 t-261 -106.5t-101 -274.5zM313 1130q0 127 41 188.5t125 61.5q43 0 79 -19.5t87 -76.5q33 -37 49 -47t33 -10q35 0 49 32.5t14 108.5h111q0 -129 -41 -190.5t-125 -61.5q-43 0 -79 19.5t-87 76.5q-33 37 -48 47.5t-32 10.5q-35 0 -50 -32t-15 -108h-111z" />
<glyph unicode="&#xe4;" d="M98 498q0 223 143.5 370.5t356.5 147.5q119 0 219.5 -50.5t167.5 -142.5l27 172h112v-995h-112l-27 172q-68 -92 -168 -142t-219 -50q-215 0 -357.5 146t-142.5 372zM254 498q0 -168 101 -274.5t261 -106.5t262.5 106.5t102.5 274.5t-102.5 274.5t-262.5 106.5 t-261 -106.5t-101 -274.5zM350 1206v178h160v-178h-160zM704 1206v178h160v-178h-160z" />
<glyph unicode="&#xe5;" d="M98 498q0 223 143.5 370.5t356.5 147.5q119 0 219.5 -50.5t167.5 -142.5l27 172h112v-995h-112l-27 172q-68 -92 -168 -142t-219 -50q-215 0 -357.5 146t-142.5 372zM254 498q0 -168 101 -274.5t261 -106.5t262.5 106.5t102.5 274.5t-102.5 274.5t-262.5 106.5 t-261 -106.5t-101 -274.5zM391 1278q0 90 61.5 148.5t155.5 58.5t155.5 -58.5t61.5 -148.5t-61.5 -148.5t-155.5 -58.5t-155.5 58.5t-61.5 148.5zM491 1278q0 -55 31 -86t86 -31t86 31t31 86t-31 86t-86 31t-86 -31t-31 -86z" />
<glyph unicode="&#xe6;" horiz-adv-x="1961" d="M104 291q0 139 111 210.5t330 71.5h321v15q0 133 -84 212t-225 79q-119 0 -202 -53.5t-105 -143.5h-144q29 152 150 243t301 91q141 0 243.5 -60.5t149.5 -173.5q61 113 170 173.5t248 60.5q217 0 356.5 -137.5t139.5 -348.5q0 -12 -1 -31.5t-3 -35.5h-854 q10 -162 110.5 -256t259.5 -94q125 0 211 58.5t121 160.5h152q-35 -158 -165 -255t-319 -97q-145 0 -261 65.5t-181 183.5q-53 -117 -169 -183t-263 -66q-180 0 -289 85t-109 226zM246 291q0 -84 74.5 -134.5t191.5 -50.5q145 0 249.5 83t104.5 202v66h-313 q-154 0 -230.5 -42t-76.5 -124zM1010 580h704q-10 137 -107.5 220t-244.5 83q-145 0 -238.5 -80t-113.5 -223z" />
<glyph unicode="&#xe7;" horiz-adv-x="1179" d="M98 498q0 227 141.5 372.5t360.5 145.5q190 0 323.5 -112.5t168.5 -299.5h-160q-29 127 -117 201t-215 74q-156 0 -251 -105.5t-95 -275.5q0 -172 95 -276.5t251 -104.5q127 0 215 73.5t117 200.5h160q-35 -188 -168 -299.5t-324 -111.5q-219 0 -360.5 145t-141.5 373z M383 -219h123q2 -45 37 -71.5t92 -26.5q51 0 79 20.5t28 54.5q0 31 -24.5 48.5t-82.5 27.5l-82 16v89l121 -21q100 -16 146.5 -54t46.5 -106q0 -74 -64.5 -121t-167.5 -47q-111 0 -179.5 52.5t-72.5 138.5z" />
<glyph unicode="&#xe8;" horiz-adv-x="1208" d="M98 500q2 229 143.5 372.5t368.5 143.5q219 0 358.5 -137.5t139.5 -348.5q0 -12 -1 -31.5t-3 -35.5h-852q10 -162 110.5 -256t258.5 -94q127 0 212.5 58.5t120.5 160.5h152q-37 -160 -167 -256t-318 -96q-229 0 -376 145t-147 375zM256 580h705q-10 137 -109 220t-246 83 q-145 0 -238.5 -80t-111.5 -223zM317 1413h162l205 -307h-142z" />
<glyph unicode="&#xe9;" horiz-adv-x="1208" d="M98 500q2 229 143.5 372.5t368.5 143.5q219 0 358.5 -137.5t139.5 -348.5q0 -12 -1 -31.5t-3 -35.5h-852q10 -162 110.5 -256t258.5 -94q127 0 212.5 58.5t120.5 160.5h152q-37 -160 -167 -256t-318 -96q-229 0 -376 145t-147 375zM256 580h705q-10 137 -109 220t-246 83 q-145 0 -238.5 -80t-111.5 -223zM540 1106l205 307h162l-225 -307h-142z" />
<glyph unicode="&#xea;" horiz-adv-x="1208" d="M98 500q2 229 143.5 372.5t368.5 143.5q219 0 358.5 -137.5t139.5 -348.5q0 -12 -1 -31.5t-3 -35.5h-852q10 -162 110.5 -256t258.5 -94q127 0 212.5 58.5t120.5 160.5h152q-37 -160 -167 -256t-318 -96q-229 0 -376 145t-147 375zM256 580h705q-10 137 -109 220t-246 83 q-145 0 -238.5 -80t-111.5 -223zM313 1106l221 307h154l221 -307h-137l-160 211l-162 -211h-137z" />
<glyph unicode="&#xeb;" horiz-adv-x="1208" d="M98 500q2 229 143.5 372.5t368.5 143.5q219 0 358.5 -137.5t139.5 -348.5q0 -12 -1 -31.5t-3 -35.5h-852q10 -162 110.5 -256t258.5 -94q127 0 212.5 58.5t120.5 160.5h152q-37 -160 -167 -256t-318 -96q-229 0 -376 145t-147 375zM256 580h705q-10 137 -109 220t-246 83 q-145 0 -238.5 -80t-111.5 -223zM354 1206v178h160v-178h-160zM708 1206v178h160v-178h-160z" />
<glyph unicode="&#xec;" horiz-adv-x="495" d="M-47 1413h162l205 -307h-142zM172 0v995h154v-995h-154z" />
<glyph unicode="&#xed;" horiz-adv-x="495" d="M172 0v995h154v-995h-154zM176 1106l205 307h162l-225 -307h-142z" />
<glyph unicode="&#xee;" horiz-adv-x="495" d="M-51 1106l221 307h154l221 -307h-137l-160 211l-162 -211h-137zM172 0v995h154v-995h-154z" />
<glyph unicode="&#xef;" horiz-adv-x="495" d="M-10 1206v178h160v-178h-160zM172 0v995h154v-995h-154zM344 1206v178h160v-178h-160z" />
<glyph unicode="&#xf0;" horiz-adv-x="1212" d="M92 473q0 213 138.5 348t359.5 135q51 0 96 -8t86 -26l-186 227l-318 -139v127l242 106l-137 170h174l92 -115l311 136v-125l-235 -105l198 -248q113 -141 157 -247.5t44 -235.5q0 -217 -143.5 -355t-368.5 -138q-221 0 -365.5 139t-144.5 354zM248 473q0 -162 97 -259 t257 -97q164 0 260 96t96 260q0 162 -96 257t-260 95q-160 0 -257 -95t-97 -257z" />
<glyph unicode="&#xf1;" horiz-adv-x="1239" d="M172 0v995h113l24 -157q53 84 145.5 131t209.5 47q190 0 309 -115t119 -303v-598h-154v573q0 139 -84 221.5t-221 82.5t-222 -83t-85 -221v-573h-154zM348 1130q0 127 41 188.5t125 61.5q43 0 79 -19.5t87 -76.5q33 -37 49 -47t33 -10q35 0 49 32.5t14 108.5h111 q0 -129 -41 -190.5t-125 -61.5q-43 0 -79 19.5t-87 76.5q-33 37 -48 47.5t-32 10.5q-35 0 -50 -32t-15 -108h-111z" />
<glyph unicode="&#xf2;" horiz-adv-x="1232" d="M96 498q0 227 146.5 372.5t373.5 145.5t374 -145.5t147 -372.5t-146.5 -372.5t-374.5 -145.5q-227 0 -373.5 145t-146.5 373zM252 498q0 -170 100 -275.5t264 -105.5t264.5 105.5t100.5 275.5t-100.5 275.5t-264.5 105.5t-264 -105.5t-100 -275.5zM321 1413h162l205 -307 h-142z" />
<glyph unicode="&#xf3;" horiz-adv-x="1232" d="M96 498q0 227 146.5 372.5t373.5 145.5t374 -145.5t147 -372.5t-146.5 -372.5t-374.5 -145.5q-227 0 -373.5 145t-146.5 373zM252 498q0 -170 100 -275.5t264 -105.5t264.5 105.5t100.5 275.5t-100.5 275.5t-264.5 105.5t-264 -105.5t-100 -275.5zM544 1106l205 307h162 l-225 -307h-142z" />
<glyph unicode="&#xf4;" horiz-adv-x="1232" d="M96 498q0 227 146.5 372.5t373.5 145.5t374 -145.5t147 -372.5t-146.5 -372.5t-374.5 -145.5q-227 0 -373.5 145t-146.5 373zM252 498q0 -170 100 -275.5t264 -105.5t264.5 105.5t100.5 275.5t-100.5 275.5t-264.5 105.5t-264 -105.5t-100 -275.5zM317 1106l221 307h154 l221 -307h-137l-160 211l-162 -211h-137z" />
<glyph unicode="&#xf5;" horiz-adv-x="1232" d="M96 498q0 227 146.5 372.5t373.5 145.5t374 -145.5t147 -372.5t-146.5 -372.5t-374.5 -145.5q-227 0 -373.5 145t-146.5 373zM252 498q0 -170 100 -275.5t264 -105.5t264.5 105.5t100.5 275.5t-100.5 275.5t-264.5 105.5t-264 -105.5t-100 -275.5zM321 1130 q0 127 41 188.5t125 61.5q43 0 79 -19.5t87 -76.5q33 -37 49 -47t33 -10q35 0 49 32.5t14 108.5h111q0 -129 -41 -190.5t-125 -61.5q-43 0 -79 19.5t-87 76.5q-33 37 -48 47.5t-32 10.5q-35 0 -50 -32t-15 -108h-111z" />
<glyph unicode="&#xf6;" horiz-adv-x="1232" d="M96 498q0 227 146.5 372.5t373.5 145.5t374 -145.5t147 -372.5t-146.5 -372.5t-374.5 -145.5q-227 0 -373.5 145t-146.5 373zM252 498q0 -170 100 -275.5t264 -105.5t264.5 105.5t100.5 275.5t-100.5 275.5t-264.5 105.5t-264 -105.5t-100 -275.5zM358 1206v178h160v-178 h-160zM712 1206v178h160v-178h-160z" />
<glyph unicode="&#xf7;" horiz-adv-x="1187" d="M147 508v135h893v-135h-893zM498 133v189h192v-189h-192zM498 829v189h192v-189h-192z" />
<glyph unicode="&#xf8;" horiz-adv-x="1261" d="M113 0l127 145q-61 68 -94 159t-33 194q0 227 146.5 372.5t373.5 145.5q86 0 161.5 -22.5t139.5 -65.5l59 67h160l-129 -145q63 -70 96 -160t33 -192q0 -227 -146.5 -372.5t-373.5 -145.5q-86 0 -163 22.5t-140 65.5l-60 -68h-157zM266 498q0 -70 18.5 -131.5 t55.5 -110.5l500 565q-43 29 -95.5 44.5t-111.5 15.5q-164 0 -265.5 -106.5t-101.5 -276.5zM424 174q43 -29 96.5 -44t112.5 -15q164 0 265 106.5t101 276.5q0 70 -18 131t-55 110z" />
<glyph unicode="&#xf9;" horiz-adv-x="1189" d="M145 416v579h154v-569q0 -143 80 -226t217 -83t217 83t80 226v569h154v-579q0 -199 -123 -317.5t-328 -118.5q-207 0 -329 117.5t-122 318.5zM301 1413h162l205 -307h-142z" />
<glyph unicode="&#xfa;" horiz-adv-x="1189" d="M145 416v579h154v-569q0 -143 80 -226t217 -83t217 83t80 226v569h154v-579q0 -199 -123 -317.5t-328 -118.5q-207 0 -329 117.5t-122 318.5zM524 1106l205 307h162l-225 -307h-142z" />
<glyph unicode="&#xfb;" horiz-adv-x="1189" d="M145 416v579h154v-569q0 -143 80 -226t217 -83t217 83t80 226v569h154v-579q0 -199 -123 -317.5t-328 -118.5q-207 0 -329 117.5t-122 318.5zM297 1106l221 307h154l221 -307h-137l-160 211l-162 -211h-137z" />
<glyph unicode="&#xfc;" horiz-adv-x="1189" d="M145 416v579h154v-569q0 -143 80 -226t217 -83t217 83t80 226v569h154v-579q0 -199 -123 -317.5t-328 -118.5q-207 0 -329 117.5t-122 318.5zM338 1206v178h160v-178h-160zM692 1206v178h160v-178h-160z" />
<glyph unicode="&#xfd;" horiz-adv-x="1110" d="M33 995h164l362 -862l356 862h162l-477 -1126q-59 -143 -138 -200.5t-231 -57.5h-114v137h108q106 0 155.5 36t90.5 134l39 96h-59zM483 1106l205 307h162l-225 -307h-142z" />
<glyph unicode="&#xfe;" d="M172 -389v1802h154v-575q66 86 162 132t210 46q213 0 355.5 -147.5t142.5 -370.5q0 -225 -142.5 -371.5t-355.5 -146.5q-113 0 -210 46t-162 130v-545h-154zM313 498q0 -168 102.5 -274.5t262.5 -106.5t261 106.5t101 274.5t-101 273.5t-261 105.5t-262.5 -105.5 t-102.5 -273.5z" />
<glyph unicode="&#xff;" horiz-adv-x="1110" d="M33 995h164l362 -862l356 862h162l-477 -1126q-59 -143 -138 -200.5t-231 -57.5h-114v137h108q106 0 155.5 36t90.5 134l39 96h-59zM297 1206v178h160v-178h-160zM651 1206v178h160v-178h-160z" />
<glyph unicode="&#x152;" horiz-adv-x="1931" d="M109 655q0 289 187 472.5t478 183.5h1071v-144h-725v-432h664v-141h-664v-451h725v-143h-1071q-291 0 -478 183.5t-187 471.5zM270 655q0 -229 139.5 -369.5t364.5 -140.5h187v1020h-187q-225 0 -364.5 -140.5t-139.5 -369.5z" />
<glyph unicode="&#x153;" horiz-adv-x="2091" d="M96 498q0 225 146.5 371.5t369.5 146.5q147 0 264 -69.5t181 -192.5q61 125 176 193.5t264 68.5q217 0 356.5 -137.5t139.5 -348.5q0 -12 -1 -31.5t-3 -35.5h-854q10 -162 110.5 -256t259.5 -94q125 0 211 58.5t121 160.5h152q-35 -158 -164 -255t-318 -97 q-150 0 -268.5 69.5t-179.5 194.5q-61 -125 -179 -194.5t-268 -69.5q-225 0 -370.5 145t-145.5 373zM252 498q0 -170 100 -275.5t264 -105.5t264.5 105.5t100.5 275.5t-100.5 275.5t-264.5 105.5t-264 -105.5t-100 -275.5zM1139 580h704q-10 137 -108.5 220t-245.5 83 q-143 0 -236.5 -80t-113.5 -223z" />
<glyph unicode="&#x178;" horiz-adv-x="1331" d="M18 1311h191l461 -617l463 617h180l-568 -752v-559h-157v555zM408 1513v178h160v-178h-160zM762 1513v178h160v-178h-160z" />
<glyph unicode="&#x2c6;" horiz-adv-x="1024" d="M213 1106l221 307h154l221 -307h-137l-160 211l-162 -211h-137z" />
<glyph unicode="&#x2dc;" horiz-adv-x="1024" d="M217 1130q0 127 41 188.5t125 61.5q43 0 79 -19.5t87 -76.5q33 -37 49 -47t33 -10q35 0 49 32.5t14 108.5h111q0 -129 -41 -190.5t-125 -61.5q-43 0 -79 19.5t-87 76.5q-33 37 -48 47.5t-32 10.5q-35 0 -50 -32t-15 -108h-111z" />
<glyph unicode="&#x2000;" horiz-adv-x="860" />
<glyph unicode="&#x2001;" horiz-adv-x="1720" />
<glyph unicode="&#x2002;" horiz-adv-x="860" />
<glyph unicode="&#x2003;" horiz-adv-x="1720" />
<glyph unicode="&#x2004;" horiz-adv-x="573" />
<glyph unicode="&#x2005;" horiz-adv-x="430" />
<glyph unicode="&#x2006;" horiz-adv-x="286" />
<glyph unicode="&#x2007;" horiz-adv-x="286" />
<glyph unicode="&#x2008;" horiz-adv-x="215" />
<glyph unicode="&#x2009;" horiz-adv-x="344" />
<glyph unicode="&#x200a;" horiz-adv-x="95" />
<glyph unicode="&#x2010;" horiz-adv-x="724" d="M92 508v135h541v-135h-541z" />
<glyph unicode="&#x2011;" horiz-adv-x="724" d="M92 508v135h541v-135h-541z" />
<glyph unicode="&#x2012;" horiz-adv-x="724" d="M92 508v135h541v-135h-541z" />
<glyph unicode="&#x2013;" horiz-adv-x="1024" d="M92 508v135h840v-135h-840z" />
<glyph unicode="&#x2014;" horiz-adv-x="2048" d="M92 508v135h1864v-135h-1864z" />
<glyph unicode="&#x2018;" horiz-adv-x="487" d="M86 819l147 492h140l-101 -492h-186z" />
<glyph unicode="&#x2019;" horiz-adv-x="485" d="M92 819l103 492h184l-146 -492h-141z" />
<glyph unicode="&#x201a;" horiz-adv-x="421" d="M35 -303l102 491h185l-146 -491h-141z" />
<glyph unicode="&#x201c;" horiz-adv-x="899" d="M86 819l147 492h140l-101 -492h-186zM500 819l145 492h141l-102 -492h-184z" />
<glyph unicode="&#x201d;" horiz-adv-x="899" d="M92 819l103 492h184l-146 -492h-141zM504 819l102 492h185l-146 -492h-141z" />
<glyph unicode="&#x201e;" horiz-adv-x="819" d="M20 -303l103 491h184l-145 -491h-142zM432 -303l103 491h184l-146 -491h-141z" />
<glyph unicode="&#x2022;" horiz-adv-x="382" d="M68 455v241h245v-241h-245z" />
<glyph unicode="&#x2026;" horiz-adv-x="1284" d="M74 0v188h194v-188h-194zM545 0v188h194v-188h-194zM1016 0v188h194v-188h-194z" />
<glyph unicode="&#x202f;" horiz-adv-x="344" />
<glyph unicode="&#x2039;" horiz-adv-x="565" d="M66 498l264 497h159l-266 -497l266 -498h-159z" />
<glyph unicode="&#x203a;" horiz-adv-x="565" d="M76 0l266 498l-266 497h157l267 -497l-267 -498h-157z" />
<glyph unicode="&#x205f;" horiz-adv-x="430" />
<glyph unicode="&#x20ac;" horiz-adv-x="1437" d="M82 449v120h151q-2 35 -3 53.5t-1 32.5q0 16 1 37t3 53h-151v121h176q59 213 230 339t403 126q145 0 270 -51t217 -147l-96 -109q-74 80 -175 123t-218 43q-166 0 -291 -86t-176 -238h602l-33 -121h-596q-2 -20 -4 -43.5t-2 -46.5q0 -16 1 -35.5t3 -50.5h553l-33 -120 h-493q51 -154 176 -241t293 -87q117 0 218 43t175 123l96 -109q-92 -96 -217 -147t-270 -51q-233 0 -404.5 127t-230.5 342h-174z" />
<glyph unicode="&#x2122;" horiz-adv-x="1806" d="M39 1188v123h690v-123h-283v-664h-127v664h-280zM780 524l78 787h154l227 -570l225 570h152l80 -787h-127l-60 592l-211 -526h-122l-211 524l-62 -590h-123z" />
<glyph unicode="&#x25fc;" horiz-adv-x="993" d="M0 0v993h993v-993h-993z" />
</font>
</defs>
</svg>
