<?xml version="1.0" standalone="no"?>
<!DOCTYPE svg PUBLIC "-//W3C//DTD SVG 1.1//EN" "http://www.w3.org/Graphics/SVG/1.1/DTD/svg11.dtd" >
<svg xmlns="http://www.w3.org/2000/svg" xmlns:xlink="http://www.w3.org/1999/xlink" version="1.1">
<metadata></metadata>
<defs>
<font id="nouvelrsemibold" horiz-adv-x="1187" >
<font-face units-per-em="2048" ascent="1638" descent="-410" />
<missing-glyph horiz-adv-x="348" />
<glyph horiz-adv-x="0" />
<glyph horiz-adv-x="682" />
<glyph unicode="&#xd;" horiz-adv-x="0" />
<glyph unicode=" "  horiz-adv-x="348" />
<glyph unicode="&#x09;" horiz-adv-x="348" />
<glyph unicode="&#xa0;" horiz-adv-x="348" />
<glyph unicode="!" horiz-adv-x="542" d="M143 0v248h256v-248h-256zM154 782v529h233v-529l-35 -356h-164z" />
<glyph unicode="&#x22;" horiz-adv-x="972" d="M137 1311h252l-45 -551h-162zM584 1311h252l-45 -551h-162z" />
<glyph unicode="#" horiz-adv-x="1472" d="M61 287v198h213l82 340h-186v199h233l70 287h225l-69 -287h393l70 287h223l-70 -287h168v-199h-215l-82 -340h189v-198h-236l-70 -287h-223l70 287h-393l-70 -287h-225l69 287h-166zM500 485h393l82 340h-393z" />
<glyph unicode="$" horiz-adv-x="1234" d="M94 412h244q4 -100 90 -163t217 -63q119 0 188.5 46.5t69.5 127.5q0 74 -58.5 114t-187.5 61l-116 16q-209 33 -322 134t-113 257t104.5 258.5t287.5 124.5v188h200v-188q186 -25 297 -134.5t117 -277.5h-240q-8 102 -79.5 157.5t-198.5 55.5q-117 0 -183.5 -46 t-66.5 -126q0 -76 64.5 -116.5t218.5 -63.5l116 -18q199 -29 301.5 -124t102.5 -251q0 -174 -119 -279.5t-330 -119.5v-185h-200v195q-182 33 -291 146.5t-113 273.5z" />
<glyph unicode="%" horiz-adv-x="1900" d="M70 952q0 166 110.5 272.5t282.5 106.5t281.5 -105.5t109.5 -273.5q0 -166 -109.5 -271.5t-281.5 -105.5q-174 0 -283.5 105.5t-109.5 271.5zM266 952q0 -88 54.5 -142t142.5 -54q84 0 138 54t54 142t-54 143.5t-138 55.5q-86 0 -141.5 -55.5t-55.5 -143.5zM432 0 l807 1311h223l-807 -1311h-223zM1038 356q0 166 111 272.5t283 106.5t282.5 -106.5t110.5 -272.5t-109.5 -271t-283.5 -105q-172 0 -283 105t-111 271zM1237 356q0 -88 54.5 -142t140.5 -54t140 54t54 142t-54 143.5t-140 55.5t-140.5 -56.5t-54.5 -142.5z" />
<glyph unicode="&#x26;" horiz-adv-x="1447" d="M78 356q0 115 60 207.5t173 149.5q-55 66 -81.5 134t-26.5 142q0 156 108.5 249t286.5 93q195 0 316.5 -120.5t121.5 -307.5h-229q-2 100 -56.5 161.5t-142.5 61.5q-74 0 -121 -42t-47 -109q0 -49 31 -101.5t94 -109.5l314 -285v180h440v-200h-416l506 -459h-313 l-170 152q-80 -86 -180.5 -129t-221.5 -43q-203 0 -324.5 103t-121.5 273zM305 385q0 -92 62.5 -146.5t169.5 -54.5q70 0 131 27t108 76l-342 305q-63 -35 -96 -88t-33 -119z" />
<glyph unicode="'" horiz-adv-x="528" d="M137 1311h252l-45 -551h-162z" />
<glyph unicode="(" horiz-adv-x="645" d="M133 569q0 231 59.5 443.5t176.5 400.5h239q-117 -188 -177 -402t-60 -442q0 -219 60 -433.5t177 -409.5h-239q-117 197 -176.5 408.5t-59.5 434.5z" />
<glyph unicode=")" horiz-adv-x="645" d="M37 -274q115 190 175 405t60 438q0 227 -60 441.5t-175 402.5h239q117 -190 176.5 -402.5t59.5 -441.5q0 -227 -59.5 -439t-176.5 -404h-239z" />
<glyph unicode="*" horiz-adv-x="878" d="M41 948l63 193l269 -123l-35 293h203l-35 -293l270 123l62 -193l-287 -59l199 -215l-164 -121l-146 256l-145 -256l-164 121l201 215z" />
<glyph unicode="+" d="M139 479v193h359v358h192v-358h359v-193h-359v-358h-192v358h-359z" />
<glyph unicode="," horiz-adv-x="477" d="M14 -303l105 551h254l-154 -551h-205z" />
<glyph unicode="-" horiz-adv-x="724" d="M92 479v193h541v-193h-541z" />
<glyph unicode="." horiz-adv-x="487" d="M115 0v248h256v-248h-256z" />
<glyph unicode="/" horiz-adv-x="704" d="M-111 -274l625 1687h240l-625 -1687h-240z" />
<glyph unicode="0" horiz-adv-x="1294" d="M100 655q0 305 148.5 490.5t396.5 185.5q250 0 398.5 -184t148.5 -492q0 -307 -149.5 -492.5t-397.5 -185.5q-246 0 -395.5 186.5t-149.5 491.5zM340 653q0 -215 81 -337.5t224 -122.5q145 0 226 120.5t81 339.5q0 217 -82 340t-225 123t-224 -124t-81 -339z" />
<glyph unicode="1" horiz-adv-x="704" d="M47 1096l66 215h422v-1311h-232v1096h-256z" />
<glyph unicode="2" horiz-adv-x="1114" d="M86 895q2 190 132 313t337 123q199 0 319.5 -113.5t120.5 -297.5q0 -127 -69.5 -239t-249.5 -263l-256 -217h594v-201h-912v201l441 374q125 106 171 178t46 154q0 96 -60.5 157.5t-156.5 61.5q-98 0 -159.5 -63.5t-68.5 -167.5h-229z" />
<glyph unicode="3" horiz-adv-x="1118" d="M78 383h227q10 -96 75.5 -151.5t170.5 -55.5q109 0 174.5 53.5t65.5 143.5t-60.5 145t-159.5 55h-237v187h219q92 0 149.5 51t57.5 133q0 86 -60.5 138.5t-154.5 52.5q-98 0 -160.5 -55.5t-73.5 -151.5h-227q12 180 140 291.5t323 111.5t316.5 -104.5t121.5 -272.5 q0 -92 -44 -165.5t-124 -114.5q94 -43 146.5 -125t52.5 -189q0 -164 -131 -272t-330 -108q-201 0 -334 112.5t-143 290.5z" />
<glyph unicode="4" horiz-adv-x="1193" d="M57 283v196l637 832h252v-832h195v-196h-195v-283h-225v283h-664zM293 479h434v570z" />
<glyph unicode="5" horiz-adv-x="1136" d="M109 377h227q10 -90 77.5 -145.5t166.5 -55.5q111 0 180 69.5t69 180.5t-70.5 178.5t-185.5 67.5q-84 0 -147 -33t-94 -94h-207l78 766h776v-201h-590l-33 -319q55 31 119 47t131 16q199 0 322 -115.5t123 -304.5q0 -201 -129 -327.5t-334 -126.5q-201 0 -334 110.5 t-145 286.5z" />
<glyph unicode="6" horiz-adv-x="1142" d="M76 446q0 102 40 200t136 239l285 426h254l-297 -428q27 6 51 8t51 2q211 0 342 -124t131 -320q0 -203 -141.5 -336t-358.5 -133t-355 131t-138 335zM293 449q0 -119 75.5 -191t200.5 -72q121 0 197 72t76 191t-75 189.5t-198 70.5t-199.5 -70.5t-76.5 -189.5z" />
<glyph unicode="7" horiz-adv-x="1026" d="M41 1110v201h926v-201l-504 -1110h-252l504 1110h-674z" />
<glyph unicode="8" horiz-adv-x="1193" d="M98 365q0 102 55.5 183t155.5 130q-86 45 -131 120t-45 169q0 158 131 261t334 103q201 0 332 -103.5t131 -260.5q0 -94 -46 -169t-132 -120q102 -49 157.5 -130t55.5 -183q0 -170 -140.5 -277.5t-357.5 -107.5q-219 0 -359.5 107.5t-140.5 277.5zM326 389 q0 -92 73.5 -148.5t198.5 -56.5q123 0 195.5 55.5t72.5 149.5q0 92 -72.5 148.5t-195.5 56.5t-197.5 -56.5t-74.5 -148.5zM350 948q0 -86 65.5 -135t182.5 -49q115 0 180.5 50t65.5 136q0 84 -66.5 133.5t-179.5 49.5q-115 0 -181.5 -50.5t-66.5 -134.5z" />
<glyph unicode="9" horiz-adv-x="1142" d="M74 862q0 203 141 336t358 133t354.5 -131t137.5 -336q0 -102 -40 -199.5t-134 -238.5l-285 -426h-256l295 426q-25 -6 -48.5 -8t-49.5 -2q-211 0 -342 125t-131 321zM299 862q0 -117 76 -188.5t198 -71.5q123 0 199 71.5t76 188.5q0 119 -76 190.5t-199 71.5 t-198.5 -71.5t-75.5 -190.5z" />
<glyph unicode=":" horiz-adv-x="505" d="M125 0v248h256v-248h-256zM125 768v248h256v-248h-256z" />
<glyph unicode=";" horiz-adv-x="497" d="M25 -303l104 551h252l-154 -551h-202zM125 768v248h256v-248h-256z" />
<glyph unicode="&#x3c;" d="M139 483v185l910 383v-211l-664 -260l664 -263v-219z" />
<glyph unicode="=" d="M139 274v193h910v-193h-910zM139 684v193h910v-193h-910z" />
<glyph unicode="&#x3e;" d="M139 98v211l662 262l-662 260v220l910 -385v-185z" />
<glyph unicode="?" horiz-adv-x="1017" d="M37 895q2 195 133 315.5t344 120.5q207 0 334 -113.5t127 -299.5q0 -162 -93.5 -271.5t-295.5 -183.5l-228 -82v213l160 61q115 47 168 108.5t53 147.5q0 100 -61.5 157.5t-165.5 57.5q-109 0 -174.5 -61t-71.5 -170h-229zM358 0v248h256v-248h-256z" />
<glyph unicode="@" horiz-adv-x="1984" d="M104 532q0 395 257 646.5t659 251.5q381 0 625.5 -233t244.5 -595q0 -258 -132 -420t-353 -162h-70l-41 132q-63 -74 -152 -113t-192 -39q-213 0 -358.5 150.5t-145.5 377.5t145.5 378t358.5 151q102 0 191.5 -39t152.5 -113l41 131h164v-862q100 14 168 135t68 293 q0 297 -201 486.5t-514 189.5q-334 0 -548 -209t-214 -537q0 -330 210 -528.5t581 -198.5h467v-151h-467q-438 0 -691.5 241.5t-253.5 636.5zM676 528q0 -145 86 -235t221 -90q133 0 219 91t86 234t-86 234.5t-219 91.5q-135 0 -221 -90t-86 -236z" />
<glyph unicode="A" horiz-adv-x="1456" d="M39 0l567 1311h244l567 -1311h-254l-133 317h-614l-133 -317h-244zM504 526h438l-219 516z" />
<glyph unicode="B" horiz-adv-x="1300" d="M172 0v1311h535q211 0 332.5 -93.5t121.5 -256.5q0 -100 -43 -171t-129 -112q106 -43 159.5 -122t53.5 -191q0 -172 -122 -268.5t-337 -96.5h-571zM406 197h321q115 0 176.5 49t61.5 139t-61.5 139t-176.5 49h-321v-376zM406 760h288q111 0 170.5 46t59.5 130 q0 86 -59.5 132t-170.5 46h-288v-354z" />
<glyph unicode="C" horiz-adv-x="1490" d="M90 655q0 293 189.5 484.5t478.5 191.5q254 0 434 -150.5t221 -398.5h-244q-37 158 -145.5 247t-265.5 89q-190 0 -309 -127t-119 -336q0 -207 118.5 -333.5t309.5 -126.5q160 0 268 87.5t143 245.5h244q-41 -246 -221 -397t-434 -151q-289 0 -478.5 191t-189.5 484z" />
<glyph unicode="D" horiz-adv-x="1464" d="M172 0v1311h528q295 0 485.5 -185.5t190.5 -470.5t-190.5 -470t-485.5 -185h-528zM406 215h294q195 0 317 120.5t122 319.5t-122 320t-317 121h-294v-881z" />
<glyph unicode="E" horiz-adv-x="1183" d="M172 0v1311h920v-211h-686v-334h624v-205h-624v-350h686v-211h-920z" />
<glyph unicode="F" horiz-adv-x="1142" d="M172 0v1311h909v-215h-675v-385h614v-205h-614v-506h-234z" />
<glyph unicode="G" horiz-adv-x="1513" d="M90 655q0 293 190.5 484.5t481.5 191.5q244 0 417 -129t218 -338h-246q-35 115 -139.5 184.5t-247.5 69.5q-195 0 -314.5 -127t-119.5 -336q0 -211 120.5 -338t317.5 -127q176 0 284.5 86t127.5 240h-467v199h708q2 -35 3 -55.5t1 -36.5q0 -287 -184 -465t-475 -178 q-293 0 -484.5 191t-191.5 484z" />
<glyph unicode="H" horiz-adv-x="1490" d="M172 0v1311h234v-539h681v539h232v-1311h-232v565h-681v-565h-234z" />
<glyph unicode="I" horiz-adv-x="577" d="M172 0v1311h234v-1311h-234z" />
<glyph unicode="J" horiz-adv-x="819" d="M45 0v209h174q117 0 165 44t48 150v908h234v-924q0 -188 -105.5 -287.5t-302.5 -99.5h-213z" />
<glyph unicode="K" horiz-adv-x="1374" d="M172 0v1311h234v-537h155l488 537h274v-8l-565 -617l579 -676v-10h-290l-478 567h-163v-567h-234z" />
<glyph unicode="L" horiz-adv-x="1097" d="M172 0v1311h234v-1096h647v-215h-881z" />
<glyph unicode="M" horiz-adv-x="1738" d="M113 0l123 1311h296l340 -922l340 922h291l125 -1311h-237l-95 973l-317 -864h-227l-322 849l-92 -958h-225z" />
<glyph unicode="N" horiz-adv-x="1529" d="M172 0v1311h225l736 -944v944h225v-1311h-225l-736 942v-942h-225z" />
<glyph unicode="O" horiz-adv-x="1531" d="M90 655q0 293 191.5 484.5t484.5 191.5t484.5 -191.5t191.5 -484.5q0 -295 -191.5 -485t-484.5 -190t-484.5 190t-191.5 485zM330 655q0 -207 120.5 -333.5t315.5 -126.5t315.5 127t120.5 333q0 207 -120.5 335t-315.5 128t-315.5 -128t-120.5 -335z" />
<glyph unicode="P" horiz-adv-x="1298" d="M172 0v1311h535q248 0 383 -114t135 -323t-135.5 -322.5t-382.5 -113.5h-301v-438h-234zM406 645h307q133 0 203.5 58t70.5 171t-70.5 171.5t-203.5 58.5h-307v-459z" />
<glyph unicode="Q" horiz-adv-x="1531" d="M90 655q0 293 191.5 484.5t484.5 191.5t484.5 -191.5t191.5 -484.5q0 -262 -153.5 -445t-405.5 -222v-193h-234v193q-252 39 -405.5 222t-153.5 445zM330 655q0 -176 86 -297.5t233 -158.5v274h234v-274q147 37 233 158.5t86 297.5q0 207 -120.5 335t-315.5 128 t-315.5 -128t-120.5 -335z" />
<glyph unicode="R" horiz-adv-x="1318" d="M172 0v1311h535q238 0 369.5 -113t131.5 -315q0 -143 -68.5 -242.5t-197.5 -146.5l307 -494h-270l-268 457h-305v-457h-234zM406 657h305q123 0 191.5 59t68.5 165t-67.5 164.5t-192.5 58.5h-305v-447z" />
<glyph unicode="S" horiz-adv-x="1234" d="M94 412h244q4 -100 90 -163t217 -63q119 0 188.5 46.5t69.5 127.5q0 74 -58.5 114t-187.5 61l-116 16q-209 33 -322 134t-113 257q0 178 132.5 283.5t355.5 105.5q229 0 369.5 -112.5t148.5 -305.5h-240q-8 102 -79.5 157.5t-198.5 55.5q-117 0 -183.5 -46t-66.5 -126 q0 -76 64.5 -116.5t218.5 -63.5l116 -18q199 -29 301.5 -124t102.5 -251q0 -184 -135 -292.5t-371 -108.5q-242 0 -392.5 120.5t-154.5 311.5z" />
<glyph unicode="T" horiz-adv-x="1259" d="M43 1096v215h1174v-215h-469v-1096h-234v1096h-471z" />
<glyph unicode="U" horiz-adv-x="1445" d="M141 553v758h234v-750q0 -180 88 -273t260 -93q170 0 259 93t89 273v750h234v-758q0 -274 -151.5 -423.5t-430.5 -149.5t-430.5 149.5t-151.5 423.5z" />
<glyph unicode="V" horiz-adv-x="1439" d="M31 1311h258l436 -1037l434 1037h250l-565 -1311h-248z" />
<glyph unicode="W" horiz-adv-x="1964" d="M43 1311h248l287 -998l309 746l-99 252h252l363 -973l280 973h240l-395 -1311h-232l-301 776l-325 -776h-232z" />
<glyph unicode="X" horiz-adv-x="1345" d="M39 0l485 678l-463 633h289l332 -455l319 455h265l-451 -635l494 -676h-289l-363 496l-354 -496h-264z" />
<glyph unicode="Y" horiz-adv-x="1327" d="M16 1311h273l381 -580l383 580h258l-533 -789v-522h-233v522z" />
<glyph unicode="Z" horiz-adv-x="1191" d="M74 0v215l729 883h-703v213h998v-213l-729 -883h747v-215h-1042z" />
<glyph unicode="[" horiz-adv-x="757" d="M201 -274v1687h491v-207h-258v-1274h258v-206h-491z" />
<glyph unicode="\" horiz-adv-x="704" d="M-49 1413h242l622 -1687h-242z" />
<glyph unicode="]" horiz-adv-x="757" d="M63 -68h259v1274h-259v207h492v-1687h-492v206z" />
<glyph unicode="^" d="M119 401l383 910h184l385 -910h-219l-260 662l-262 -662h-211z" />
<glyph unicode="_" horiz-adv-x="1005" d="M90 -100h840v-164h-840v164z" />
<glyph unicode="`" horiz-adv-x="1024" d="M172 1413h234l204 -307h-196z" />
<glyph unicode="a" horiz-adv-x="1284" d="M80 506q0 227 145.5 376.5t358.5 149.5q102 0 191 -39t153 -112l41 131h164v-1012h-164l-41 131q-63 -74 -152.5 -112.5t-191.5 -38.5q-213 0 -358.5 149.5t-145.5 376.5zM311 506q0 -145 85 -234.5t220 -89.5q133 0 219.5 90t86.5 234q0 143 -86 234t-220 91 q-135 0 -220 -90t-85 -235z" />
<glyph unicode="b" horiz-adv-x="1284" d="M152 0v1413h227v-514q59 66 142 99.5t177 33.5q215 0 360.5 -149.5t145.5 -376.5t-145.5 -376.5t-360.5 -149.5q-102 0 -190 38.5t-152 112.5l-41 -131h-163zM362 506q0 -143 86.5 -233.5t219.5 -90.5q135 0 220 89t85 235q0 145 -85 235t-220 90q-133 0 -219.5 -91 t-86.5 -234z" />
<glyph unicode="c" d="M80 506q0 231 146.5 378.5t373.5 147.5q205 0 345 -117.5t169 -316.5h-233q-25 109 -99.5 171t-181.5 62q-129 0 -209 -90t-80 -235t80 -234.5t209 -89.5q106 0 181 61.5t100 170.5h233q-29 -199 -169 -316.5t-345 -117.5q-227 0 -373.5 147t-146.5 379z" />
<glyph unicode="d" horiz-adv-x="1284" d="M80 506q0 227 145.5 376.5t358.5 149.5q96 0 179 -33.5t142 -99.5v514h228v-1413h-164l-41 131q-63 -74 -152.5 -112.5t-191.5 -38.5q-213 0 -358.5 149.5t-145.5 376.5zM311 506q0 -145 85 -234.5t220 -89.5q133 0 219.5 90t86.5 234q0 143 -86 234t-220 91 q-135 0 -220 -90t-85 -235z" />
<glyph unicode="e" horiz-adv-x="1189" d="M82 508q0 233 144.5 378.5t375.5 145.5q223 0 364.5 -141t141.5 -369q0 -12 -1 -32.5t-3 -43.5h-797q14 -131 96 -202.5t211 -71.5q100 0 168.5 45t91.5 123h228q-29 -162 -162 -261t-326 -99q-236 0 -384 147t-148 381zM311 604h574q-12 111 -91 175.5t-198 64.5 q-117 0 -190.5 -61.5t-94.5 -178.5z" />
<glyph unicode="f" horiz-adv-x="792" d="M41 797v190h149v62q0 184 95.5 274t287.5 90h232l-47 -186h-148q-100 0 -146 -41t-46 -131v-68h338v-190h-338v-797h-228v797h-149z" />
<glyph unicode="g" horiz-adv-x="1296" d="M80 520q0 221 147.5 366.5t362.5 145.5q104 0 195 -38.5t157 -110.5l47 129h156v-1035q0 -195 -91 -280.5t-300 -85.5h-516l49 207h467q86 0 123.5 36.5t37.5 122.5v152q-66 -59 -148.5 -90t-176.5 -31q-215 0 -362.5 145.5t-147.5 366.5zM309 520q0 -137 87.5 -223 t224.5 -86t225 86t88 223t-88 224t-225 87t-224.5 -87t-87.5 -224z" />
<glyph unicode="h" horiz-adv-x="1241" d="M152 0v1413h227v-498q55 57 133 87t168 30q193 0 312.5 -116.5t119.5 -307.5v-608h-227v573q0 119 -68.5 187.5t-183.5 68.5q-117 0 -185.5 -69.5t-68.5 -186.5v-573h-227z" />
<glyph unicode="i" horiz-adv-x="530" d="M147 1167v234h236v-234h-236zM152 0v1012h227v-1012h-227z" />
<glyph unicode="j" horiz-adv-x="530" d="M-115 -186h101q86 0 126 32.5t40 104.5v1061h227v-1065q0 -174 -86 -255t-270 -81h-138v203zM147 1167v234h236v-234h-236z" />
<glyph unicode="k" horiz-adv-x="1159" d="M152 0v1413h227v-801h149l330 400h252v-11l-397 -477l420 -514v-10h-271l-338 418h-145v-418h-227z" />
<glyph unicode="l" horiz-adv-x="530" d="M152 0v1413h227v-1413h-227z" />
<glyph unicode="m" horiz-adv-x="1890" d="M152 0v1012h163l37 -117q49 66 129 101.5t176 35.5q113 0 203 -44t144 -124q49 80 139 124t203 44q184 0 298.5 -110.5t114.5 -292.5v-629h-227v594q0 109 -63.5 172t-168.5 63q-106 0 -168.5 -63.5t-62.5 -171.5v-594h-227v594q0 109 -63 172t-169 63t-168.5 -63.5 t-62.5 -171.5v-594h-227z" />
<glyph unicode="n" horiz-adv-x="1241" d="M152 0v1012h163l39 -125q53 70 138.5 107.5t187.5 37.5q193 0 312.5 -116.5t119.5 -307.5v-608h-227v573q0 119 -68.5 187.5t-183.5 68.5q-117 0 -185.5 -69.5t-68.5 -186.5v-573h-227z" />
<glyph unicode="o" horiz-adv-x="1234" d="M80 506q0 231 150 378.5t386 147.5t387.5 -147.5t151.5 -378.5t-151.5 -378.5t-387.5 -147.5t-386 147t-150 379zM309 506q0 -145 85 -234.5t222 -89.5t223.5 89t86.5 235q0 145 -86 235t-224 90q-137 0 -222 -90t-85 -235z" />
<glyph unicode="p" horiz-adv-x="1284" d="M152 -389v1401h163l41 -131q63 74 151.5 112.5t190.5 38.5q215 0 360.5 -149.5t145.5 -376.5t-145.5 -376.5t-360.5 -149.5q-94 0 -177 33.5t-142 99.5v-502h-227zM362 506q0 -143 86.5 -233.5t219.5 -90.5q135 0 220 89t85 235q0 145 -85 235t-220 90q-133 0 -219.5 -91 t-86.5 -234z" />
<glyph unicode="q" horiz-adv-x="1284" d="M80 506q0 227 145.5 376.5t358.5 149.5q102 0 191 -39t153 -112l41 131h164v-1401h-228v504q-59 -66 -142 -100.5t-179 -34.5q-213 0 -358.5 149.5t-145.5 376.5zM311 506q0 -145 85 -234.5t220 -89.5q133 0 219.5 90t86.5 234q0 143 -86 234t-220 91q-135 0 -220 -90 t-85 -235z" />
<glyph unicode="r" horiz-adv-x="804" d="M152 0v1012h632l-67 -207h-338v-805h-227z" />
<glyph unicode="s" horiz-adv-x="1042" d="M84 338h221q4 -80 68 -129t170 -49q94 0 142 29.5t48 86.5q0 53 -43 81t-141 42l-113 15q-166 25 -251 101.5t-85 203.5q0 143 109.5 228t294.5 85q190 0 311 -92t123 -238h-215q-2 70 -60.5 111t-158.5 41q-86 0 -133 -30.5t-47 -88.5q0 -51 43 -79.5t137 -43.5l112 -16 q174 -25 258 -97.5t84 -197.5q0 -147 -112.5 -234t-302.5 -87q-201 0 -328 100t-131 258z" />
<glyph unicode="t" horiz-adv-x="829" d="M31 821v37l350 361h39v-207h334v-191h-334v-452q0 -82 43 -121t133 -39h172v-209h-178q-207 0 -302 84t-95 268v469h-162z" />
<glyph unicode="u" horiz-adv-x="1189" d="M125 414v598h227v-576q0 -119 64.5 -186.5t177.5 -67.5q115 0 179.5 67.5t64.5 186.5v576h227v-598q0 -197 -129 -315.5t-342 -118.5q-215 0 -342 117.5t-127 316.5z" />
<glyph unicode="v" horiz-adv-x="1134" d="M20 1012h238l311 -760l312 760h231l-422 -1012h-246z" />
<glyph unicode="w" horiz-adv-x="1683" d="M29 1012h227l258 -746l242 584l-64 162h230l286 -750l236 750h207l-326 -1012h-235l-236 602l-250 -602h-219z" />
<glyph unicode="x" horiz-adv-x="1146" d="M25 0l413 524l-383 488h273l258 -330l256 330h258l-387 -492l407 -520h-272l-285 362l-282 -362h-256z" />
<glyph unicode="y" horiz-adv-x="1136" d="M23 1012h237l315 -807l308 807h229l-434 -1114q-57 -156 -146.5 -221.5t-257.5 -65.5h-141v203h129q98 0 142 31.5t77 115.5l17 45h-74z" />
<glyph unicode="z" horiz-adv-x="1017" d="M70 0v193l587 628h-571v191h838v-191l-586 -628h612v-193h-880z" />
<glyph unicode="{" horiz-adv-x="817" d="M51 465v209h70q102 0 145 39t33 121l-23 182q-25 205 74 301t330 96h94v-207h-80q-104 0 -149 -47t-33 -147l23 -183q14 -98 -20 -162.5t-116 -97.5q82 -33 116 -97t20 -163l-23 -180q-12 -102 33 -149.5t149 -47.5h80v-206h-94q-231 0 -329.5 96t-74.5 301l23 182 q10 82 -33 121t-145 39h-70z" />
<glyph unicode="|" horiz-adv-x="634" d="M201 -274v1687h233v-1687h-233z" />
<glyph unicode="}" horiz-adv-x="817" d="M41 -68h80q104 0 149 47.5t35 149.5l-22 180q-14 98 18.5 163t114.5 97q-82 33 -115 97.5t-18 162.5l22 183q10 102 -35 148t-149 46h-80v207h94q231 0 329.5 -96t74.5 -301l-23 -182q-10 -82 33 -121t145 -39h70v-209h-70q-102 0 -145 -39t-33 -121l23 -182 q25 -205 -73.5 -301t-330.5 -96h-94v206z" />
<glyph unicode="~" d="M113 408q0 172 70.5 265t195.5 93q61 0 119.5 -23.5t152.5 -95.5q63 -47 93 -61.5t57 -14.5q49 0 74.5 45.5t25.5 128.5h174q0 -172 -70.5 -265t-195.5 -93q-61 0 -119.5 23.5t-152.5 95.5q-63 47 -93 61.5t-57 14.5q-49 0 -74.5 -45t-25.5 -129h-174z" />
<glyph unicode="&#xa1;" horiz-adv-x="526" d="M137 768v248h256v-248h-256zM147 233l35 357h164l35 -357v-528h-234v528z" />
<glyph unicode="&#xa2;" horiz-adv-x="1189" d="M82 506q0 201 112.5 341t297.5 175v192h200v-188q172 -27 285 -141.5t137 -286.5h-233q-25 109 -98.5 171t-180.5 62q-129 0 -210 -90t-81 -235t81 -234.5t210 -89.5q106 0 180 61.5t99 170.5h233q-25 -172 -137.5 -287t-284.5 -141v-189h-200v193q-184 35 -297 175 t-113 341z" />
<glyph unicode="&#xa3;" horiz-adv-x="1226" d="M84 0v201h147v295h-147v192h147v219q0 193 120 308.5t321 115.5q207 0 336 -122t129 -314h-230q-6 106 -66.5 168.5t-156.5 62.5t-157.5 -64.5t-61.5 -166.5v-207h481v-192h-481v-295h686v-201h-1067z" />
<glyph unicode="&#xa4;" horiz-adv-x="1261" d="M59 121l172 172q-25 51 -37 104.5t-12 110.5q0 59 13.5 113.5t37.5 101.5l-174 174l129 137l170 -168q55 41 125 61.5t148 20.5t147.5 -20.5t124.5 -61.5l170 168l129 -137l-174 -174q25 -47 38 -101.5t13 -113.5q0 -57 -12 -110.5t-37 -104.5l172 -172l-129 -139 l-168 168q-57 -41 -127.5 -61.5t-146.5 -20.5t-146.5 20.5t-128.5 61.5l-168 -168zM387 508q0 -111 69 -181.5t175 -70.5t174.5 70.5t68.5 181.5q0 113 -67.5 183.5t-175.5 70.5q-106 0 -175 -72t-69 -182z" />
<glyph unicode="&#xa5;" horiz-adv-x="1343" d="M25 1311h272l381 -580l383 580h258l-352 -525h213v-163h-324l-68 -101v-33h392v-163h-392v-326h-233v326h-395v163h395v33l-68 101h-327v163h217z" />
<glyph unicode="&#xa6;" horiz-adv-x="624" d="M197 -274v714h233v-714h-233zM197 698v715h233v-715h-233z" />
<glyph unicode="&#xa7;" horiz-adv-x="1169" d="M129 549q0 84 42 148.5t122 105.5q-82 43 -123 109.5t-41 156.5q0 154 119 244t319 90h394v-178h-394q-102 0 -158.5 -39t-56.5 -111t50.5 -110.5t160.5 -55.5l117 -16q188 -23 282.5 -104.5t94.5 -221.5q0 -84 -44 -150.5t-126 -109.5q86 -39 129 -104.5t43 -155.5 q0 -156 -124 -249t-329 -93h-420v180h420q111 0 169.5 39t58.5 111q0 70 -52.5 108.5t-165.5 55.5l-116 14q-182 25 -276.5 110t-94.5 226zM340 555q0 -78 69.5 -121t194.5 -43q106 0 166.5 43t60.5 119q0 80 -68.5 123t-195.5 43q-109 0 -168 -43t-59 -121z" />
<glyph unicode="&#xa8;" horiz-adv-x="1024" d="M225 1182v219h211v-219h-211zM588 1182v219h211v-219h-211z" />
<glyph unicode="&#xa9;" horiz-adv-x="1771" d="M96 653q0 342 222.5 559.5t568.5 217.5t567 -217.5t221 -559.5t-221 -558t-567 -216q-348 0 -569.5 217t-221.5 557zM172 653q0 -309 199.5 -504.5t515.5 -195.5q315 0 513.5 194.5t198.5 505.5t-198.5 507t-513.5 196q-313 0 -514 -197t-201 -506zM369 645 q0 231 146.5 380t373.5 149q205 0 345 -119t169 -318h-234q-25 109 -99.5 171.5t-180.5 62.5q-129 0 -210 -90t-81 -236q0 -145 81 -235.5t210 -90.5q106 0 180.5 62.5t99.5 171.5h234q-29 -199 -169 -317.5t-345 -118.5q-227 0 -373.5 148.5t-146.5 379.5z" />
<glyph unicode="&#xaa;" horiz-adv-x="997" d="M72 915q0 174 111.5 289t275.5 115q72 0 135 -28.5t111 -82.5l30 97h146v-781h-146l-30 97q-45 -55 -109 -84t-137 -29q-164 0 -275.5 115.5t-111.5 291.5zM270 915q0 -102 59.5 -165.5t153.5 -63.5q96 0 155.5 63.5t59.5 165.5q0 100 -60 165t-155 65 q-94 0 -153.5 -63.5t-59.5 -166.5z" />
<glyph unicode="&#xab;" horiz-adv-x="1116" d="M51 506l271 506h233l-270 -506l270 -506h-233zM553 506l270 506h234l-271 -506l271 -506h-234z" />
<glyph unicode="&#xac;" d="M139 479v193h910v-551h-193v358h-717z" />
<glyph unicode="&#xad;" horiz-adv-x="0" />
<glyph unicode="&#xae;" horiz-adv-x="1134" d="M78 932q0 215 137 352t352 137t351.5 -137t136.5 -352t-136.5 -351.5t-351.5 -136.5t-352 136.5t-137 351.5zM154 932q0 -182 115.5 -298t297.5 -116t297 115t115 299t-114.5 300t-297.5 116q-182 0 -297.5 -116t-115.5 -300zM328 647v574h264q111 0 172 -53.5t61 -147.5 q0 -57 -26.5 -102.5t-75.5 -69.5l119 -201h-170l-94 174h-99v-174h-151zM479 954h117q39 0 58.5 16.5t19.5 47.5t-20.5 48t-57.5 17h-117v-129z" />
<glyph unicode="&#xaf;" horiz-adv-x="1024" d="M231 1174v161h562v-161h-562z" />
<glyph unicode="&#xb0;" horiz-adv-x="1030" d="M109 932q0 174 114.5 286.5t292.5 112.5t292 -111.5t114 -287.5q0 -174 -114 -285.5t-292 -111.5t-292.5 111.5t-114.5 285.5zM307 932q0 -96 58.5 -156.5t150.5 -60.5t150.5 60.5t58.5 156.5t-58.5 157.5t-150.5 61.5t-150.5 -61.5t-58.5 -157.5z" />
<glyph unicode="&#xb1;" d="M139 0v193h910v-193h-910zM139 539v192h359v299h192v-299h359v-192h-359v-297h-192v297h-359z" />
<glyph unicode="&#xb2;" horiz-adv-x="677" d="M49 1305q0 115 82 188.5t209 73.5q123 0 197.5 -69.5t74.5 -182.5q0 -76 -41 -142.5t-137 -144.5l-127 -104h314v-156h-564v156l269 221q61 51 81.5 84t20.5 76q0 45 -28.5 74.5t-71.5 29.5t-71 -28.5t-32 -75.5h-176z" />
<glyph unicode="&#xb3;" horiz-adv-x="663" d="M37 998h174q10 -43 41 -66.5t78 -23.5q51 0 80.5 24.5t29.5 67.5t-28.5 70.5t-73.5 27.5h-148v141h138q41 0 67.5 23.5t26.5 60.5q0 43 -26.5 67.5t-71.5 24.5t-73 -23.5t-36 -66.5h-174q8 106 87 174t196 68q121 0 196.5 -64.5t75.5 -168.5q0 -53 -23.5 -95t-66.5 -67 q53 -27 80.5 -75t27.5 -110q0 -98 -80.5 -164.5t-201.5 -66.5q-123 0 -205 67.5t-90 174.5z" />
<glyph unicode="&#xb4;" horiz-adv-x="1024" d="M414 1106l204 307h234l-242 -307h-196z" />
<glyph unicode="&#xb5;" horiz-adv-x="1273" d="M145 -389v1401h228v-576q0 -119 65.5 -186.5t177.5 -67.5q113 0 177.5 67.5t64.5 186.5v576h229v-713q0 -59 25 -88t78 -29h20v-202h-20q-109 0 -181.5 34.5t-109.5 102.5q-45 -66 -118.5 -101.5t-164.5 -35.5q-78 0 -139 24.5t-104 73.5v-467h-228z" />
<glyph unicode="&#xb6;" horiz-adv-x="1331" d="M74 874q0 209 135 323t383 114h692v-193h-158v-1005q0 -188 -104 -287.5t-303 -99.5h-211v208h172q117 0 165 44.5t48 150.5v989h-113v-1055h-176v375h-12q-248 0 -383 114t-135 322z" />
<glyph unicode="&#xb7;" horiz-adv-x="327" d="M47 582v233h234v-233h-234z" />
<glyph unicode="&#xb8;" horiz-adv-x="1024" d="M244 -219h176q2 -37 28.5 -59.5t71.5 -22.5q39 0 60.5 15.5t21.5 43.5q0 29 -21.5 45.5t-68.5 24.5l-74 12v103l148 -23q100 -16 147 -55t47 -107q0 -74 -71.5 -121t-186.5 -47q-123 0 -198.5 52.5t-79.5 138.5z" />
<glyph unicode="&#xb9;" horiz-adv-x="454" d="M33 1387l51 168h285v-787h-181v619h-155z" />
<glyph unicode="&#xba;" horiz-adv-x="970" d="M72 915q0 178 115.5 291t297.5 113t298 -112.5t116 -291.5q0 -180 -116.5 -293.5t-297.5 -113.5q-180 0 -296.5 113.5t-116.5 293.5zM270 915q0 -104 59.5 -166.5t155.5 -62.5q98 0 157.5 62.5t59.5 166.5q0 102 -60 166t-157 64q-96 0 -155.5 -63.5t-59.5 -166.5z" />
<glyph unicode="&#xbb;" horiz-adv-x="1116" d="M59 0l273 506l-273 506h234l272 -506l-272 -506h-234zM561 0l273 506l-273 506h234l272 -506l-272 -506h-234z" />
<glyph unicode="&#xbc;" horiz-adv-x="1497" d="M33 1143l51 168h285v-787h-181v619h-155zM238 0l623 1311h206l-622 -1311h-207zM799 154v151l356 482h191v-482h120v-151h-120v-154h-174v154h-373zM977 305h201v271z" />
<glyph unicode="&#xbd;" horiz-adv-x="1525" d="M33 1143l51 168h285v-787h-181v619h-155zM238 0l623 1311h206l-622 -1311h-207zM897 537q0 115 82 188.5t209 73.5q123 0 197.5 -69.5t74.5 -182.5q0 -76 -41 -142.5t-137 -144.5l-127 -104h314v-156h-564v156l269 221q61 51 81.5 84t20.5 76q0 45 -28.5 74.5t-71.5 29.5 t-71 -28.5t-32 -75.5h-176z" />
<glyph unicode="&#xbe;" horiz-adv-x="1703" d="M37 754h174q10 -43 41 -66.5t78 -23.5q51 0 80.5 24.5t29.5 67.5t-28.5 70.5t-73.5 27.5h-148v141h138q41 0 67.5 23.5t26.5 60.5q0 43 -26.5 67.5t-71.5 24.5t-73 -23.5t-36 -66.5h-174q8 106 87 174t196 68q121 0 196.5 -64.5t75.5 -168.5q0 -53 -23.5 -95t-66.5 -67 q53 -27 80.5 -75t27.5 -110q0 -98 -80.5 -164.5t-201.5 -66.5q-123 0 -205 67.5t-90 174.5zM447 0l623 1311h206l-622 -1311h-207zM1008 154v151l356 482h191v-482h120v-151h-120v-154h-174v154h-373zM1186 305h201v271z" />
<glyph unicode="&#xbf;" horiz-adv-x="1001" d="M37 98q0 160 93 269.5t296 185.5l227 80v-213l-159 -60q-117 -49 -169.5 -109.5t-52.5 -146.5q0 -100 61.5 -157.5t166.5 -57.5q109 0 174 61.5t71 170.5h230q-2 -193 -133 -314.5t-344 -121.5q-207 0 -334 113.5t-127 299.5zM397 768v248h256v-248h-256z" />
<glyph unicode="&#xc0;" horiz-adv-x="1456" d="M39 0l567 1311h244l567 -1311h-254l-133 317h-614l-133 -317h-244zM389 1720h234l204 -307h-196zM504 526h438l-219 516z" />
<glyph unicode="&#xc1;" horiz-adv-x="1456" d="M39 0l567 1311h244l567 -1311h-254l-133 317h-614l-133 -317h-244zM504 526h438l-219 516zM631 1413l204 307h234l-242 -307h-196z" />
<glyph unicode="&#xc2;" horiz-adv-x="1456" d="M39 0l567 1311h244l567 -1311h-254l-133 317h-614l-133 -317h-244zM403 1413l217 307h215l218 -307h-191l-133 176l-135 -176h-191zM504 526h438l-219 516z" />
<glyph unicode="&#xc3;" horiz-adv-x="1456" d="M39 0l567 1311h244l567 -1311h-254l-133 317h-614l-133 -317h-244zM418 1442q0 133 44 199.5t134 66.5q45 0 85 -19.5t97 -74.5q29 -29 42 -37t26 -8q25 0 36 28.5t11 91.5h145q0 -133 -44 -199.5t-134 -66.5q-45 0 -84 18.5t-94 73.5q-31 31 -45 39t-27 8 q-25 0 -36 -28.5t-11 -91.5h-145zM504 526h438l-219 516z" />
<glyph unicode="&#xc4;" horiz-adv-x="1456" d="M39 0l567 1311h244l567 -1311h-254l-133 317h-614l-133 -317h-244zM442 1489v219h211v-219h-211zM504 526h438l-219 516zM805 1489v219h211v-219h-211z" />
<glyph unicode="&#xc5;" horiz-adv-x="1456" d="M39 0l541 1249q-37 31 -56.5 73t-19.5 93q0 94 63.5 154.5t161.5 60.5t161.5 -60.5t63.5 -154.5q0 -51 -20.5 -94t-56.5 -72l540 -1249h-254l-133 317h-614l-133 -317h-244zM504 526h438l-219 516zM625 1415q0 -49 27.5 -76.5t76.5 -27.5t77 27.5t28 76.5t-28 77t-77 28 t-76.5 -28t-27.5 -77z" />
<glyph unicode="&#xc6;" horiz-adv-x="1943" d="M31 0l792 1311h1030v-211h-688v-334h627v-205h-627v-350h688v-211h-919v317h-463l-195 -317h-245zM598 526h336v551z" />
<glyph unicode="&#xc7;" horiz-adv-x="1490" d="M90 655q0 293 189.5 484.5t478.5 191.5q254 0 434 -150.5t221 -398.5h-244q-37 158 -145.5 247t-265.5 89q-190 0 -309 -127t-119 -336q0 -207 118.5 -333.5t309.5 -126.5q160 0 268 87.5t143 245.5h244q-41 -246 -221 -397t-434 -151q-289 0 -478.5 191t-189.5 484z M502 -217h176q2 -37 28.5 -59.5t71.5 -22.5q39 0 60.5 15.5t21.5 43.5q0 29 -21.5 45.5t-68.5 24.5l-74 12v103l148 -23q100 -16 147 -55t47 -107q0 -74 -71.5 -121t-186.5 -47q-123 0 -198.5 52.5t-79.5 138.5z" />
<glyph unicode="&#xc8;" horiz-adv-x="1183" d="M172 0v1311h920v-211h-686v-334h624v-205h-624v-350h686v-211h-920zM299 1720h234l204 -307h-196z" />
<glyph unicode="&#xc9;" horiz-adv-x="1183" d="M172 0v1311h920v-211h-686v-334h624v-205h-624v-350h686v-211h-920zM541 1413l204 307h234l-242 -307h-196z" />
<glyph unicode="&#xca;" horiz-adv-x="1183" d="M172 0v1311h920v-211h-686v-334h624v-205h-624v-350h686v-211h-920zM313 1413l217 307h215l218 -307h-191l-133 176l-135 -176h-191z" />
<glyph unicode="&#xcb;" horiz-adv-x="1183" d="M172 0v1311h920v-211h-686v-334h624v-205h-624v-350h686v-211h-920zM352 1489v219h211v-219h-211zM715 1489v219h211v-219h-211z" />
<glyph unicode="&#xcc;" horiz-adv-x="577" d="M-49 1720h234l204 -307h-196zM172 0v1311h234v-1311h-234z" />
<glyph unicode="&#xcd;" horiz-adv-x="577" d="M172 0v1311h234v-1311h-234zM193 1413l204 307h234l-242 -307h-196z" />
<glyph unicode="&#xce;" horiz-adv-x="577" d="M-35 1413l217 307h215l218 -307h-191l-133 176l-135 -176h-191zM172 0v1311h234v-1311h-234z" />
<glyph unicode="&#xcf;" horiz-adv-x="577" d="M4 1489v219h211v-219h-211zM172 0v1311h234v-1311h-234zM367 1489v219h211v-219h-211z" />
<glyph unicode="&#xd0;" horiz-adv-x="1503" d="M51 563v193h160v555h528q295 0 485.5 -185.5t190.5 -470.5t-190.5 -470t-485.5 -185h-528v563h-160zM444 215h295q195 0 317 121t122 319q0 199 -122 320t-317 121h-295v-340h332v-193h-332v-348z" />
<glyph unicode="&#xd1;" horiz-adv-x="1529" d="M172 0v1311h225l736 -944v944h225v-1311h-225l-736 942v-942h-225zM455 1442q0 133 44 199.5t134 66.5q45 0 85 -19.5t97 -74.5q29 -29 42 -37t26 -8q25 0 36 28.5t11 91.5h145q0 -133 -44 -199.5t-134 -66.5q-45 0 -84 18.5t-94 73.5q-31 31 -45 39t-27 8 q-25 0 -36 -28.5t-11 -91.5h-145z" />
<glyph unicode="&#xd2;" horiz-adv-x="1531" d="M90 655q0 293 191.5 484.5t484.5 191.5t484.5 -191.5t191.5 -484.5q0 -295 -191.5 -485t-484.5 -190t-484.5 190t-191.5 485zM330 655q0 -207 120.5 -333.5t315.5 -126.5t315.5 127t120.5 333q0 207 -120.5 335t-315.5 128t-315.5 -128t-120.5 -335zM428 1720h234 l204 -307h-196z" />
<glyph unicode="&#xd3;" horiz-adv-x="1531" d="M90 655q0 293 191.5 484.5t484.5 191.5t484.5 -191.5t191.5 -484.5q0 -295 -191.5 -485t-484.5 -190t-484.5 190t-191.5 485zM330 655q0 -207 120.5 -333.5t315.5 -126.5t315.5 127t120.5 333q0 207 -120.5 335t-315.5 128t-315.5 -128t-120.5 -335zM670 1413l204 307 h234l-242 -307h-196z" />
<glyph unicode="&#xd4;" horiz-adv-x="1531" d="M90 655q0 293 191.5 484.5t484.5 191.5t484.5 -191.5t191.5 -484.5q0 -295 -191.5 -485t-484.5 -190t-484.5 190t-191.5 485zM330 655q0 -207 120.5 -333.5t315.5 -126.5t315.5 127t120.5 333q0 207 -120.5 335t-315.5 128t-315.5 -128t-120.5 -335zM442 1413l217 307 h215l218 -307h-191l-133 176l-135 -176h-191z" />
<glyph unicode="&#xd5;" horiz-adv-x="1531" d="M90 655q0 293 191.5 484.5t484.5 191.5t484.5 -191.5t191.5 -484.5q0 -295 -191.5 -485t-484.5 -190t-484.5 190t-191.5 485zM330 655q0 -207 120.5 -333.5t315.5 -126.5t315.5 127t120.5 333q0 207 -120.5 335t-315.5 128t-315.5 -128t-120.5 -335zM457 1442 q0 133 44 199.5t134 66.5q45 0 85 -19.5t97 -74.5q29 -29 42 -37t26 -8q25 0 36 28.5t11 91.5h145q0 -133 -44 -199.5t-134 -66.5q-45 0 -84 18.5t-94 73.5q-31 31 -45 39t-27 8q-25 0 -36 -28.5t-11 -91.5h-145z" />
<glyph unicode="&#xd6;" horiz-adv-x="1531" d="M90 655q0 293 191.5 484.5t484.5 191.5t484.5 -191.5t191.5 -484.5q0 -295 -191.5 -485t-484.5 -190t-484.5 190t-191.5 485zM330 655q0 -207 120.5 -333.5t315.5 -126.5t315.5 127t120.5 333q0 207 -120.5 335t-315.5 128t-315.5 -128t-120.5 -335zM481 1489v219h211 v-219h-211zM844 1489v219h211v-219h-211z" />
<glyph unicode="&#xd7;" d="M160 279l297 296l-297 297l137 138l297 -297l297 297l137 -138l-297 -297l297 -296l-137 -138l-297 297l-297 -297z" />
<glyph unicode="&#xd8;" horiz-adv-x="1554" d="M102 0l166 197q-82 90 -124 207.5t-42 250.5q0 293 191.5 484.5t484.5 191.5q102 0 195.5 -25.5t171.5 -72.5l67 78h242l-166 -197q80 -90 123 -208t43 -251q0 -295 -191.5 -485t-484.5 -190q-102 0 -195.5 24.5t-172.5 73.5l-66 -78h-242zM336 655q0 -82 20.5 -153.5 t59.5 -130.5l590 696q-51 29 -108 43t-120 14q-197 0 -319.5 -129t-122.5 -340zM551 246q49 -29 107.5 -43.5t119.5 -14.5q197 0 319 128t122 339q0 82 -19.5 154t-58.5 131z" />
<glyph unicode="&#xd9;" horiz-adv-x="1445" d="M141 553v758h234v-750q0 -180 88 -273t260 -93q170 0 259 93t89 273v750h234v-758q0 -274 -151.5 -423.5t-430.5 -149.5t-430.5 149.5t-151.5 423.5zM385 1720h234l204 -307h-196z" />
<glyph unicode="&#xda;" horiz-adv-x="1445" d="M141 553v758h234v-750q0 -180 88 -273t260 -93q170 0 259 93t89 273v750h234v-758q0 -274 -151.5 -423.5t-430.5 -149.5t-430.5 149.5t-151.5 423.5zM627 1413l204 307h234l-242 -307h-196z" />
<glyph unicode="&#xdb;" horiz-adv-x="1445" d="M141 553v758h234v-750q0 -180 88 -273t260 -93q170 0 259 93t89 273v750h234v-758q0 -274 -151.5 -423.5t-430.5 -149.5t-430.5 149.5t-151.5 423.5zM399 1413l217 307h215l218 -307h-191l-133 176l-135 -176h-191z" />
<glyph unicode="&#xdc;" horiz-adv-x="1445" d="M141 553v758h234v-750q0 -180 88 -273t260 -93q170 0 259 93t89 273v750h234v-758q0 -274 -151.5 -423.5t-430.5 -149.5t-430.5 149.5t-151.5 423.5zM438 1489v219h211v-219h-211zM801 1489v219h211v-219h-211z" />
<glyph unicode="&#xdd;" horiz-adv-x="1327" d="M16 1311h273l381 -580l383 580h258l-533 -789v-522h-233v522zM568 1413l204 307h234l-242 -307h-196z" />
<glyph unicode="&#xde;" horiz-adv-x="1298" d="M172 0v1311h234v-215h301q248 0 383 -114t135 -323t-135.5 -322.5t-382.5 -113.5h-301v-223h-234zM406 430h307q133 0 203.5 59t70.5 170q0 113 -70.5 171.5t-203.5 58.5h-307v-459z" />
<glyph unicode="&#xdf;" horiz-adv-x="1298" d="M37 821v191h149q6 199 131 310.5t345 111.5q211 0 337.5 -104.5t126.5 -276.5q0 -104 -41 -182t-120 -123q129 -43 194.5 -132.5t65.5 -222.5q0 -186 -125 -289.5t-350 -103.5h-179v197h160q127 0 195.5 56t68.5 161q0 104 -70.5 162.5t-197.5 58.5h-156v186h123 q94 0 148.5 56.5t54.5 150.5q0 98 -61.5 153.5t-173.5 55.5q-119 0 -183.5 -64.5t-64.5 -179.5v-993h-228v821h-149z" />
<glyph unicode="&#xe0;" horiz-adv-x="1284" d="M80 506q0 227 145.5 376.5t358.5 149.5q102 0 191 -39t153 -112l41 131h164v-1012h-164l-41 131q-63 -74 -152.5 -112.5t-191.5 -38.5q-213 0 -358.5 149.5t-145.5 376.5zM272 1415h234l204 -307h-196zM311 506q0 -145 85 -234.5t220 -89.5q133 0 219.5 90t86.5 234 q0 143 -86 234t-220 91q-135 0 -220 -90t-85 -235z" />
<glyph unicode="&#xe1;" horiz-adv-x="1284" d="M80 506q0 227 145.5 376.5t358.5 149.5q102 0 191 -39t153 -112l41 131h164v-1012h-164l-41 131q-63 -74 -152.5 -112.5t-191.5 -38.5q-213 0 -358.5 149.5t-145.5 376.5zM311 506q0 -145 85 -234.5t220 -89.5q133 0 219.5 90t86.5 234q0 143 -86 234t-220 91 q-135 0 -220 -90t-85 -235zM514 1108l204 307h234l-242 -307h-196z" />
<glyph unicode="&#xe2;" horiz-adv-x="1284" d="M80 506q0 227 145.5 376.5t358.5 149.5q102 0 191 -39t153 -112l41 131h164v-1012h-164l-41 131q-63 -74 -152.5 -112.5t-191.5 -38.5q-213 0 -358.5 149.5t-145.5 376.5zM286 1108l217 307h215l218 -307h-191l-133 176l-135 -176h-191zM311 506q0 -145 85 -234.5 t220 -89.5q133 0 219.5 90t86.5 234q0 143 -86 234t-220 91q-135 0 -220 -90t-85 -235z" />
<glyph unicode="&#xe3;" horiz-adv-x="1284" d="M80 506q0 227 145.5 376.5t358.5 149.5q102 0 191 -39t153 -112l41 131h164v-1012h-164l-41 131q-63 -74 -152.5 -112.5t-191.5 -38.5q-213 0 -358.5 149.5t-145.5 376.5zM301 1137q0 133 44 199.5t134 66.5q45 0 85 -19.5t97 -74.5q29 -29 42 -37t26 -8q25 0 36 28.5 t11 91.5h145q0 -133 -44 -199.5t-134 -66.5q-45 0 -84 18.5t-94 73.5q-31 31 -45 39t-27 8q-25 0 -36 -28.5t-11 -91.5h-145zM311 506q0 -145 85 -234.5t220 -89.5q133 0 219.5 90t86.5 234q0 143 -86 234t-220 91q-135 0 -220 -90t-85 -235z" />
<glyph unicode="&#xe4;" horiz-adv-x="1284" d="M80 506q0 227 145.5 376.5t358.5 149.5q102 0 191 -39t153 -112l41 131h164v-1012h-164l-41 131q-63 -74 -152.5 -112.5t-191.5 -38.5q-213 0 -358.5 149.5t-145.5 376.5zM311 506q0 -145 85 -234.5t220 -89.5q133 0 219.5 90t86.5 234q0 143 -86 234t-220 91 q-135 0 -220 -90t-85 -235zM325 1184v219h211v-219h-211zM688 1184v219h211v-219h-211z" />
<glyph unicode="&#xe5;" horiz-adv-x="1284" d="M80 506q0 227 145.5 376.5t358.5 149.5q102 0 191 -39t153 -112l41 131h164v-1012h-164l-41 131q-63 -74 -152.5 -112.5t-191.5 -38.5q-213 0 -358.5 149.5t-145.5 376.5zM311 506q0 -145 85 -234.5t220 -89.5q133 0 219.5 90t86.5 234q0 143 -86 234t-220 91 q-135 0 -220 -90t-85 -235zM387 1288q0 94 63.5 154.5t161.5 60.5t161.5 -60.5t63.5 -154.5t-63.5 -154.5t-161.5 -60.5t-161.5 60.5t-63.5 154.5zM508 1288q0 -49 27.5 -76.5t76.5 -27.5t76.5 27.5t27.5 76.5t-27.5 77t-76.5 28t-76.5 -28t-27.5 -77z" />
<glyph unicode="&#xe6;" horiz-adv-x="1898" d="M88 295q0 147 107.5 222t320.5 75h289v2q0 111 -68.5 176.5t-187.5 65.5q-92 0 -157.5 -40t-88.5 -112h-213q35 162 156 255t301 93q133 0 230 -51t153 -150q61 98 160.5 149.5t228.5 51.5q219 0 358.5 -142t139.5 -368q0 -12 -1 -32.5t-4 -43.5h-796q14 -131 96 -202.5 t211 -71.5q100 0 168.5 45t91.5 123h225q-27 -160 -159.5 -260t-321.5 -100q-137 0 -247.5 56t-176.5 159q-57 -102 -166.5 -158.5t-251.5 -56.5q-184 0 -290.5 85t-106.5 230zM303 299q0 -68 57.5 -106.5t151.5 -38.5q123 0 208 67.5t85 169.5v39h-264q-117 0 -177.5 -32.5 t-60.5 -98.5zM1020 604h573q-12 111 -90.5 175.5t-197.5 64.5q-117 0 -191 -61.5t-94 -178.5z" />
<glyph unicode="&#xe7;" d="M80 506q0 231 146.5 378.5t373.5 147.5q205 0 345 -117.5t169 -316.5h-233q-25 109 -99.5 171t-181.5 62q-129 0 -209 -90t-80 -235t80 -234.5t209 -89.5q106 0 181 61.5t100 170.5h233q-29 -199 -169 -316.5t-345 -117.5q-227 0 -373.5 147t-146.5 379zM348 -219h176 q2 -37 28.5 -59.5t71.5 -22.5q39 0 60.5 15.5t21.5 43.5q0 29 -21.5 45.5t-68.5 24.5l-74 12v103l148 -23q100 -16 147 -55t47 -107q0 -74 -71.5 -121t-186.5 -47q-123 0 -198.5 52.5t-79.5 138.5z" />
<glyph unicode="&#xe8;" horiz-adv-x="1189" d="M82 508q0 233 144.5 378.5t375.5 145.5q223 0 364.5 -141t141.5 -369q0 -12 -1 -32.5t-3 -43.5h-797q14 -131 96 -202.5t211 -71.5q100 0 168.5 45t91.5 123h228q-29 -162 -162 -261t-326 -99q-236 0 -384 147t-148 381zM262 1413h234l204 -307h-196zM311 604h574 q-12 111 -91 175.5t-198 64.5q-117 0 -190.5 -61.5t-94.5 -178.5z" />
<glyph unicode="&#xe9;" horiz-adv-x="1189" d="M82 508q0 233 144.5 378.5t375.5 145.5q223 0 364.5 -141t141.5 -369q0 -12 -1 -32.5t-3 -43.5h-797q14 -131 96 -202.5t211 -71.5q100 0 168.5 45t91.5 123h228q-29 -162 -162 -261t-326 -99q-236 0 -384 147t-148 381zM311 604h574q-12 111 -91 175.5t-198 64.5 q-117 0 -190.5 -61.5t-94.5 -178.5zM504 1106l204 307h234l-242 -307h-196z" />
<glyph unicode="&#xea;" horiz-adv-x="1189" d="M82 508q0 233 144.5 378.5t375.5 145.5q223 0 364.5 -141t141.5 -369q0 -12 -1 -32.5t-3 -43.5h-797q14 -131 96 -202.5t211 -71.5q100 0 168.5 45t91.5 123h228q-29 -162 -162 -261t-326 -99q-236 0 -384 147t-148 381zM276 1106l217 307h215l218 -307h-191l-133 176 l-135 -176h-191zM311 604h574q-12 111 -91 175.5t-198 64.5q-117 0 -190.5 -61.5t-94.5 -178.5z" />
<glyph unicode="&#xeb;" horiz-adv-x="1189" d="M82 508q0 233 144.5 378.5t375.5 145.5q223 0 364.5 -141t141.5 -369q0 -12 -1 -32.5t-3 -43.5h-797q14 -131 96 -202.5t211 -71.5q100 0 168.5 45t91.5 123h228q-29 -162 -162 -261t-326 -99q-236 0 -384 147t-148 381zM311 604h574q-12 111 -91 175.5t-198 64.5 q-117 0 -190.5 -61.5t-94.5 -178.5zM315 1182v219h211v-219h-211zM678 1182v219h211v-219h-211z" />
<glyph unicode="&#xec;" horiz-adv-x="530" d="M-74 1413h234l204 -307h-196zM152 0v1012h227v-1012h-227z" />
<glyph unicode="&#xed;" horiz-adv-x="530" d="M152 0v1012h227v-1012h-227zM168 1106l204 307h234l-242 -307h-196z" />
<glyph unicode="&#xee;" horiz-adv-x="530" d="M-60 1106l217 307h215l218 -307h-191l-133 176l-135 -176h-191zM152 0v1012h227v-1012h-227z" />
<glyph unicode="&#xef;" horiz-adv-x="530" d="M-21 1182v219h211v-219h-211zM152 0v1012h227v-1012h-227zM342 1182v219h211v-219h-211z" />
<glyph unicode="&#xf0;" horiz-adv-x="1212" d="M76 481q0 211 138 344t361 133q33 0 62 -3t55 -11l-141 178l-311 -112v166l209 75l-130 162h252l72 -92l315 113v-166l-213 -76l185 -236q115 -150 157.5 -252t42.5 -225q0 -219 -147 -359t-381 -140q-227 0 -376.5 142t-149.5 359zM305 481q0 -135 81 -217t216 -82 q137 0 218 81t81 218q0 135 -82 215t-217 80t-216 -80t-81 -215z" />
<glyph unicode="&#xf1;" horiz-adv-x="1241" d="M152 0v1012h163l39 -125q53 70 138.5 107.5t187.5 37.5q193 0 312.5 -116.5t119.5 -307.5v-608h-227v573q0 119 -68.5 187.5t-183.5 68.5q-117 0 -185.5 -69.5t-68.5 -186.5v-573h-227zM328 1135q0 133 44 199.5t134 66.5q45 0 85 -19.5t97 -74.5q29 -29 42 -37t26 -8 q25 0 36 28.5t11 91.5h145q0 -133 -44 -199.5t-134 -66.5q-45 0 -84 18.5t-94 73.5q-31 31 -45 39t-27 8q-25 0 -36 -28.5t-11 -91.5h-145z" />
<glyph unicode="&#xf2;" horiz-adv-x="1234" d="M80 506q0 231 150 378.5t386 147.5t387.5 -147.5t151.5 -378.5t-151.5 -378.5t-387.5 -147.5t-386 147t-150 379zM276 1413h234l204 -307h-196zM309 506q0 -145 85 -234.5t222 -89.5t223.5 89t86.5 235q0 145 -86 235t-224 90q-137 0 -222 -90t-85 -235z" />
<glyph unicode="&#xf3;" horiz-adv-x="1234" d="M80 506q0 231 150 378.5t386 147.5t387.5 -147.5t151.5 -378.5t-151.5 -378.5t-387.5 -147.5t-386 147t-150 379zM309 506q0 -145 85 -234.5t222 -89.5t223.5 89t86.5 235q0 145 -86 235t-224 90q-137 0 -222 -90t-85 -235zM518 1106l204 307h234l-242 -307h-196z" />
<glyph unicode="&#xf4;" horiz-adv-x="1234" d="M80 506q0 231 150 378.5t386 147.5t387.5 -147.5t151.5 -378.5t-151.5 -378.5t-387.5 -147.5t-386 147t-150 379zM292 1106l217 307h215l218 -307h-191l-133 176l-135 -176h-191zM309 506q0 -145 85 -234.5t222 -89.5t223.5 89t86.5 235q0 145 -86 235t-224 90 q-137 0 -222 -90t-85 -235z" />
<glyph unicode="&#xf5;" horiz-adv-x="1234" d="M80 506q0 231 150 378.5t386 147.5t387.5 -147.5t151.5 -378.5t-151.5 -378.5t-387.5 -147.5t-386 147t-150 379zM307 1135q0 133 44 199.5t134 66.5q45 0 85 -19.5t97 -74.5q29 -29 42 -37t26 -8q25 0 36 28.5t11 91.5h145q0 -133 -44 -199.5t-134 -66.5q-45 0 -84 18.5 t-94 73.5q-31 31 -45 39t-27 8q-25 0 -36 -28.5t-11 -91.5h-145zM309 506q0 -145 85 -234.5t222 -89.5t223.5 89t86.5 235q0 145 -86 235t-224 90q-137 0 -222 -90t-85 -235z" />
<glyph unicode="&#xf6;" horiz-adv-x="1234" d="M80 506q0 231 150 378.5t386 147.5t387.5 -147.5t151.5 -378.5t-151.5 -378.5t-387.5 -147.5t-386 147t-150 379zM309 506q0 -145 85 -234.5t222 -89.5t223.5 89t86.5 235q0 145 -86 235t-224 90q-137 0 -222 -90t-85 -235zM329 1182v219h211v-219h-211zM692 1182v219 h211v-219h-211z" />
<glyph unicode="&#xf7;" d="M139 479v193h910v-193h-910zM467 92v248h256v-248h-256zM467 811v248h256v-248h-256z" />
<glyph unicode="&#xf8;" horiz-adv-x="1261" d="M94 0l129 152q-63 70 -96 159.5t-33 194.5q0 231 151.5 378.5t385.5 147.5q78 0 149.5 -17.5t132.5 -51.5l43 49h213l-129 -152q63 -70 96 -160t33 -194q0 -231 -151.5 -378.5t-386.5 -147.5q-76 0 -146.5 17t-134.5 52l-41 -49h-215zM317 506q0 -51 12.5 -98.5 t37.5 -88.5l413 486q-35 18 -71.5 26.5t-77.5 8.5q-137 0 -225.5 -94.5t-88.5 -239.5zM487 209q33 -16 69 -24.5t75 -8.5q137 0 226 92t89 238q0 51 -12 98t-37 88z" />
<glyph unicode="&#xf9;" horiz-adv-x="1189" d="M125 414v598h227v-576q0 -119 64.5 -186.5t177.5 -67.5q115 0 179.5 67.5t64.5 186.5v576h227v-598q0 -197 -129 -315.5t-342 -118.5q-215 0 -342 117.5t-127 316.5zM254 1413h234l204 -307h-196z" />
<glyph unicode="&#xfa;" horiz-adv-x="1189" d="M125 414v598h227v-576q0 -119 64.5 -186.5t177.5 -67.5q115 0 179.5 67.5t64.5 186.5v576h227v-598q0 -197 -129 -315.5t-342 -118.5q-215 0 -342 117.5t-127 316.5zM496 1106l204 307h234l-242 -307h-196z" />
<glyph unicode="&#xfb;" horiz-adv-x="1189" d="M125 414v598h227v-576q0 -119 64.5 -186.5t177.5 -67.5q115 0 179.5 67.5t64.5 186.5v576h227v-598q0 -197 -129 -315.5t-342 -118.5q-215 0 -342 117.5t-127 316.5zM270 1106l217 307h215l218 -307h-191l-133 176l-135 -176h-191z" />
<glyph unicode="&#xfc;" horiz-adv-x="1189" d="M125 414v598h227v-576q0 -119 64.5 -186.5t177.5 -67.5q115 0 179.5 67.5t64.5 186.5v576h227v-598q0 -197 -129 -315.5t-342 -118.5q-215 0 -342 117.5t-127 316.5zM307 1182v219h211v-219h-211zM670 1182v219h211v-219h-211z" />
<glyph unicode="&#xfd;" horiz-adv-x="1136" d="M23 1012h237l315 -807l308 807h229l-434 -1114q-57 -156 -146.5 -221.5t-257.5 -65.5h-141v203h129q98 0 142 31.5t77 115.5l17 45h-74zM471 1106l204 307h234l-242 -307h-196z" />
<glyph unicode="&#xfe;" horiz-adv-x="1284" d="M152 -389v1802h227v-514q59 66 142 99.5t177 33.5q215 0 360.5 -149.5t145.5 -376.5t-145.5 -376.5t-360.5 -149.5q-94 0 -177 33.5t-142 99.5v-502h-227zM362 506q0 -143 86.5 -233.5t219.5 -90.5q135 0 220 89t85 235q0 145 -85 234t-220 89q-133 0 -219.5 -90 t-86.5 -233z" />
<glyph unicode="&#xff;" horiz-adv-x="1136" d="M23 1012h237l315 -807l308 807h229l-434 -1114q-57 -156 -146.5 -221.5t-257.5 -65.5h-141v203h129q98 0 142 31.5t77 115.5l17 45h-74zM282 1182v219h211v-219h-211zM645 1182v219h211v-219h-211z" />
<glyph unicode="&#x152;" horiz-adv-x="1951" d="M88 655q0 285 190.5 470.5t485.5 185.5h1096v-211h-686v-334h624v-205h-624v-350h686v-211h-1096q-295 0 -485.5 185.5t-190.5 469.5zM328 655q0 -199 120.5 -319.5t315.5 -120.5h176v881h-176q-195 0 -315.5 -121t-120.5 -320z" />
<glyph unicode="&#x153;" horiz-adv-x="2033" d="M80 506q0 231 148.5 378.5t377.5 147.5q137 0 249 -57t181 -162q66 104 174.5 161.5t243.5 57.5q219 0 357.5 -142t138.5 -368q0 -12 -1 -32.5t-3 -43.5h-795q14 -131 96 -202.5t211 -71.5q100 0 168.5 45t91.5 123h226q-29 -160 -160 -260t-318 -100q-137 0 -248.5 57 t-179.5 164q-70 -106 -182.5 -163.5t-249.5 -57.5q-229 0 -377.5 147t-148.5 379zM309 506q0 -145 85 -234.5t222 -89.5t223.5 89t86.5 235q0 145 -86 235t-224 90q-137 0 -222 -90t-85 -235zM1155 604h574q-12 111 -91 175.5t-198 64.5q-117 0 -190.5 -61.5t-94.5 -178.5z " />
<glyph unicode="&#x178;" horiz-adv-x="1327" d="M16 1311h273l381 -580l383 580h258l-533 -789v-522h-233v522zM379 1489v219h211v-219h-211zM742 1489v219h211v-219h-211z" />
<glyph unicode="&#x2c6;" horiz-adv-x="1021" d="M186 1106l217 307h215l218 -307h-191l-133 176l-135 -176h-191z" />
<glyph unicode="&#x2dc;" horiz-adv-x="1021" d="M201 1135q0 133 44 199.5t134 66.5q45 0 85 -19.5t97 -74.5q29 -29 42 -37t26 -8q25 0 36 28.5t11 91.5h145q0 -133 -44 -199.5t-134 -66.5q-45 0 -84 18.5t-94 73.5q-31 31 -45 39t-27 8q-25 0 -36 -28.5t-11 -91.5h-145z" />
<glyph unicode="&#x2000;" horiz-adv-x="860" />
<glyph unicode="&#x2001;" horiz-adv-x="1720" />
<glyph unicode="&#x2002;" horiz-adv-x="860" />
<glyph unicode="&#x2003;" horiz-adv-x="1720" />
<glyph unicode="&#x2004;" horiz-adv-x="573" />
<glyph unicode="&#x2005;" horiz-adv-x="430" />
<glyph unicode="&#x2006;" horiz-adv-x="286" />
<glyph unicode="&#x2007;" horiz-adv-x="286" />
<glyph unicode="&#x2008;" horiz-adv-x="215" />
<glyph unicode="&#x2009;" horiz-adv-x="344" />
<glyph unicode="&#x200a;" horiz-adv-x="95" />
<glyph unicode="&#x2010;" horiz-adv-x="724" d="M92 479v193h541v-193h-541z" />
<glyph unicode="&#x2011;" horiz-adv-x="724" d="M92 479v193h541v-193h-541z" />
<glyph unicode="&#x2012;" horiz-adv-x="724" d="M92 479v193h541v-193h-541z" />
<glyph unicode="&#x2013;" horiz-adv-x="1024" d="M92 479v193h840v-193h-840z" />
<glyph unicode="&#x2014;" horiz-adv-x="2048" d="M92 479v193h1864v-193h-1864z" />
<glyph unicode="&#x2018;" horiz-adv-x="466" d="M49 760l152 551h205l-105 -551h-252z" />
<glyph unicode="&#x2019;" horiz-adv-x="466" d="M61 760l105 551h252l-152 -551h-205z" />
<glyph unicode="&#x201a;" horiz-adv-x="458" d="M27 -303l104 551h252l-152 -551h-204z" />
<glyph unicode="&#x201c;" horiz-adv-x="913" d="M49 760l152 551h205l-105 -551h-252zM496 760l151 551h205l-104 -551h-252z" />
<glyph unicode="&#x201d;" horiz-adv-x="913" d="M61 760l105 551h252l-152 -551h-205zM508 760l104 551h252l-151 -551h-205z" />
<glyph unicode="&#x201e;" horiz-adv-x="899" d="M20 -303l105 551h252l-152 -551h-205zM467 -303l104 551h252l-151 -551h-205z" />
<glyph unicode="&#x2022;" horiz-adv-x="458" d="M68 418v317h325v-317h-325z" />
<glyph unicode="&#x2026;" horiz-adv-x="1409" d="M104 0v248h256v-248h-256zM575 0v248h256v-248h-256zM1047 0v248h256v-248h-256z" />
<glyph unicode="&#x202f;" horiz-adv-x="344" />
<glyph unicode="&#x2039;" horiz-adv-x="614" d="M51 506l271 506h233l-270 -506l270 -506h-233z" />
<glyph unicode="&#x203a;" horiz-adv-x="614" d="M59 0l273 506l-273 506h234l272 -506l-272 -506h-234z" />
<glyph unicode="&#x205f;" horiz-adv-x="430" />
<glyph unicode="&#x20ac;" horiz-adv-x="1427" d="M78 426v162h139q-2 12 -2 25.5v41.5v42.5t2 25.5h-139v162h172q68 205 238.5 325.5t398.5 120.5q145 0 271 -51t218 -147l-129 -162q-78 76 -170 114.5t-196 38.5q-131 0 -232.5 -62.5t-154.5 -176.5h516l-43 -162h-516q-2 -29 -3.5 -42t-1.5 -26q0 -12 1.5 -25.5 t3.5 -41.5h479l-41 -162h-395q53 -115 154.5 -177.5t232.5 -62.5q104 0 196 39t170 115l129 -162q-92 -96 -218 -147t-271 -51q-227 0 -398 120.5t-239 325.5h-172z" />
<glyph unicode="&#x2122;" horiz-adv-x="1830" d="M39 1145v166h704v-166h-264v-621h-174v621h-266zM795 524l73 787h213l187 -504l186 504h209l76 -787h-176l-50 512l-165 -446h-170l-166 440l-47 -506h-170z" />
<glyph unicode="&#x25fc;" horiz-adv-x="1013" d="M0 0v1014h1014v-1014h-1014z" />
</font>
</defs>
</svg>
