<svg width="24" height="24" viewBox="0 0 24 24" fill="none" xmlns="http://www.w3.org/2000/svg">
<path d="M21.8055 10.0416H21V10.0001H12V14.0001H17.6515C16.827 16.3286 14.6115 18.0001 12 18.0001C8.6865 18.0001 6 15.3136 6 12.0001C6 8.68662 8.6865 6.00012 12 6.00012C13.5295 6.00012 14.921 6.57712 15.9805 7.51962L18.809 4.69112C17.023 3.02662 14.634 2.00012 12 2.00012C6.4775 2.00012 2 6.47762 2 12.0001C2 17.5226 6.4775 22.0001 12 22.0001C17.5225 22.0001 22 17.5226 22 12.0001C22 11.3296 21.931 10.6751 21.8055 10.0416Z" fill="#989898"/>
<path d="M3.15234 7.34562L6.43784 9.75512C7.32684 7.55412 9.47984 6.00012 11.9993 6.00012C13.5288 6.00012 14.9203 6.57712 15.9798 7.51962L18.8083 4.69112C17.0223 3.02662 14.6333 2.00012 11.9993 2.00012C8.15834 2.00012 4.82734 4.16862 3.15234 7.34562Z" fill="#0B0C0E"/>
<path d="M12.0002 22.0002C14.5832 22.0002 16.9302 21.0117 18.7047 19.4042L15.6097 16.7852C14.5719 17.5744 13.3039 18.0013 12.0002 18.0002C9.39916 18.0002 7.19066 16.3417 6.35866 14.0272L3.09766 16.5397C4.75266 19.7782 8.11366 22.0002 12.0002 22.0002Z" fill="#6C6C6C"/>
<path d="M21.8055 10.0414H21V9.99988H12V13.9999H17.6515C17.2571 15.1081 16.5467 16.0765 15.608 16.7854L15.6095 16.7844L18.7045 19.4034C18.4855 19.6024 22 16.9999 22 11.9999C22 11.3294 21.931 10.6749 21.8055 10.0414Z" fill="#0B0C0E"/>
</svg>
