<svg width="37" height="37" viewBox="0 0 37 37" fill="none" xmlns="http://www.w3.org/2000/svg">
<circle cx="18.5" cy="18.5" r="18" stroke="black"/>
<path d="M24.1362 16.1031H21.8897C21.9147 16.0824 21.9403 16.0622 21.9647 16.0402C22.1592 15.8705 22.3159 15.6632 22.4251 15.4313C22.5343 15.1994 22.5936 14.9478 22.5993 14.6924C22.6077 14.4129 22.5579 14.1347 22.4528 13.8748C22.3478 13.615 22.1898 13.3789 21.9886 13.1812C21.7873 12.9835 21.547 12.8282 21.2825 12.725C21.0179 12.6218 20.7347 12.5728 20.4502 12.581C20.1899 12.5865 19.9337 12.6447 19.6974 12.7519C19.4612 12.8592 19.25 13.0132 19.0772 13.2043C18.838 13.4765 18.6435 13.7838 18.5008 14.115C18.3581 13.7838 18.1637 13.4765 17.9245 13.2043C17.7516 13.0132 17.5404 12.8592 17.3042 12.7519C17.0679 12.6447 16.8117 12.5865 16.5515 12.581C16.2669 12.5728 15.9837 12.6218 15.7192 12.725C15.4546 12.8282 15.2143 12.9835 15.0131 13.1812C14.8118 13.3789 14.6538 13.615 14.5488 13.8748C14.4438 14.1347 14.3939 14.4129 14.4024 14.6924C14.4081 14.9478 14.4673 15.1994 14.5765 15.4313C14.6857 15.6632 14.8425 15.8705 15.037 16.0402C15.0613 16.061 15.0869 16.0811 15.1119 16.1031H12.8654C12.5937 16.1031 12.3331 16.2091 12.1409 16.3979C11.9488 16.5866 11.8408 16.8425 11.8408 17.1094V19.1221C11.8408 19.389 11.9488 19.645 12.1409 19.8337C12.3331 20.0224 12.5937 20.1284 12.8654 20.1284V24.1537C12.8654 24.4206 12.9734 24.6766 13.1655 24.8653C13.3577 25.0541 13.6183 25.1601 13.8901 25.1601H23.1116C23.3833 25.1601 23.6439 25.0541 23.8361 24.8653C24.0283 24.6766 24.1362 24.4206 24.1362 24.1537V20.1284C24.408 20.1284 24.6686 20.0224 24.8607 19.8337C25.0529 19.645 25.1608 19.389 25.1608 19.1221V17.1094C25.1608 16.8425 25.0529 16.5866 24.8607 16.3979C24.6686 16.2091 24.408 16.1031 24.1362 16.1031ZM19.8456 13.8709C19.9267 13.783 20.0255 13.7124 20.1357 13.6637C20.2459 13.615 20.3652 13.5892 20.486 13.5879H20.5174C20.659 13.5888 20.7991 13.6174 20.9293 13.6721C21.0595 13.7268 21.1773 13.8065 21.2758 13.9065C21.3742 14.0065 21.4514 14.1248 21.5027 14.2544C21.554 14.3841 21.5785 14.5225 21.5747 14.6615C21.5734 14.7802 21.5471 14.8974 21.4975 15.0056C21.4479 15.1138 21.3761 15.2108 21.2865 15.2905C20.6788 15.8188 19.6702 16.005 19.0451 16.0704C19.122 15.4043 19.3333 14.4364 19.8456 13.8709ZM15.7414 13.8936C15.9399 13.6987 16.2087 13.5886 16.4894 13.5873H16.5208C16.6416 13.5886 16.7609 13.6144 16.8711 13.6631C16.9813 13.7118 17.08 13.7823 17.1611 13.8703C17.6984 14.4666 17.888 15.4553 17.9546 16.0666C17.3321 16.0037 16.3254 15.815 15.7183 15.2874C15.6288 15.2077 15.5569 15.1107 15.5073 15.0025C15.4578 14.8942 15.4315 14.7771 15.4302 14.6584C15.4262 14.517 15.4515 14.3763 15.5046 14.2449C15.5576 14.1134 15.6373 13.9939 15.7388 13.8936H15.7414ZM12.8654 17.1094H17.9885V19.1221H12.8654V17.1094ZM13.8901 20.1284H17.9885V24.1537H13.8901V20.1284ZM23.1116 24.1537H19.0131V20.1284H23.1116V24.1537ZM24.1362 19.1221H19.0131V17.1094H24.1362V19.1221Z" fill="black"/>
</svg>
