<svg width="42" height="57" viewBox="0 0 42 57" fill="none" xmlns="http://www.w3.org/2000/svg">
<path d="M19.5077 55.8662C19.667 56.1024 19.8818 56.2958 20.1333 56.4295C20.3848 56.5632 20.6653 56.6331 20.9501 56.6331C21.235 56.6331 21.5155 56.5632 21.767 56.4295C22.0185 56.2958 22.2333 56.1024 22.3926 55.8662L38.8112 31.4749C40.77 28.3602 41.8104 24.7561 41.8127 21.0767C41.8127 9.98244 32.4463 0.955322 20.9327 0.955322C9.41916 0.955322 0.0527344 9.98244 0.0527344 21.0767C0.0527344 24.755 1.095 28.3568 3.096 31.5376L19.5077 55.8662ZM20.9345 4.43358C30.5288 4.43358 38.3345 11.8999 38.3345 21.0749C38.3345 24.0815 37.4891 27.0275 35.895 29.5766L20.9484 51.779L6.01223 29.6357C4.39541 27.073 3.53643 24.1051 3.53447 21.0749C3.53447 11.8999 11.3401 4.43358 20.9345 4.43358Z" fill="black"/>
<path d="M20.9347 30.5719C26.3896 30.5719 30.8283 26.2793 30.8283 21.0019C30.8283 15.7245 26.3913 11.4319 20.9347 11.4319C15.478 11.4319 11.041 15.7245 11.041 21.0019C11.041 26.2793 15.4798 30.5719 20.9347 30.5719ZM20.9347 14.9119C24.4703 14.9119 27.3483 17.6437 27.3483 21.0019C27.3483 24.3601 24.4721 27.0919 20.9347 27.0919C17.3972 27.0919 14.521 24.3601 14.521 21.0019C14.521 17.6437 17.399 14.9119 20.9347 14.9119Z" fill="black"/>
</svg>
