<svg width="19" height="17" viewBox="0 0 19 17" fill="none" xmlns="http://www.w3.org/2000/svg">
<path d="M14.7286 16.8999H14.7283H3.97092C3.09398 16.8999 2.36619 16.3293 2.22594 15.5613C2.22592 15.5612 2.2259 15.5612 2.22589 15.5611L0.957493 8.39239C0.957489 8.39236 0.957485 8.39234 0.957481 8.39232C0.90638 8.10102 1.12589 7.8097 1.47356 7.7572C1.63993 7.73297 1.80929 7.76971 1.944 7.85762C2.0785 7.94539 2.16604 8.07579 2.19153 8.21818C2.19154 8.2182 2.19154 8.21823 2.19154 8.21825L3.46002 15.3902L3.46002 15.3902L3.4602 15.3912C3.50441 15.6274 3.72213 15.792 3.97092 15.792H14.7283C14.9754 15.792 15.1954 15.6314 15.2361 15.3927C15.2361 15.3926 15.2361 15.3925 15.2362 15.3924L16.5077 8.22093L16.5077 8.22063C16.5594 7.92387 16.8766 7.70742 17.2254 7.75999L17.2261 7.76009C17.5738 7.80998 17.7955 8.10115 17.7418 8.39451L17.7417 8.39505L16.4701 15.5672L16.4701 15.5674C16.4053 15.9369 16.196 16.2755 15.877 16.5208C15.5579 16.7663 15.1505 16.9014 14.7286 16.8999Z" fill="black" stroke="white" stroke-width="0.2"/>
<path d="M16.6079 8.4H2.09206C0.992474 8.4 0.1 7.51287 0.1 6.42287V6.32713C0.1 5.23713 0.992474 4.35 2.09206 4.35H16.6079C17.7075 4.35 18.6 5.23713 18.6 6.32713V6.42287C18.6 7.51287 17.7075 8.4 16.6079 8.4ZM2.09206 5.49317C1.63137 5.49317 1.25575 5.86509 1.25575 6.32423V6.41997C1.25575 6.87911 1.63137 7.25102 2.09206 7.25102H16.6079C17.0686 7.25102 17.4443 6.87911 17.4443 6.41997V6.32423C17.4443 5.86509 17.0686 5.49317 16.6079 5.49317H2.09206Z" fill="black" stroke="white" stroke-width="0.2"/>
<path d="M4.37257 6.52117L4.37256 6.52117L4.37188 6.522C4.27111 6.64475 4.14291 6.7 4.01495 6.7C3.8904 6.7 3.75887 6.64217 3.65733 6.52117C3.44759 6.27124 3.44759 5.8648 3.65733 5.61487L8.13456 0.279617C8.23755 0.156885 8.36715 0.1 8.49218 0.1C8.6172 0.1 8.7468 0.156885 8.84979 0.279617C9.05953 0.529553 9.05953 0.935985 8.84979 1.18592L4.37257 6.52117ZM14.6851 6.7C14.5606 6.7 14.429 6.64217 14.3275 6.52117L9.85025 1.18592C9.64051 0.935985 9.64051 0.529553 9.85025 0.279617C9.95325 0.156885 10.0828 0.1 10.2079 0.1C10.3329 0.1 10.4625 0.156885 10.5655 0.279617L15.0427 5.61487C15.2525 5.8648 15.2525 6.27124 15.0427 6.52117C14.9388 6.64503 14.81 6.7 14.6851 6.7Z" fill="black" stroke="white" stroke-width="0.2"/>
</svg>
