<svg width="23" height="14" viewBox="0 0 23 14" fill="none" xmlns="http://www.w3.org/2000/svg">
<path d="M11.5 10.375C12.1675 10.375 12.82 10.1771 13.3751 9.80621C13.9301 9.43536 14.3626 8.90826 14.6181 8.29156C14.8735 7.67486 14.9404 6.99626 14.8102 6.34157C14.6799 5.68688 14.3585 5.08552 13.8865 4.61351C13.4145 4.14151 12.8131 3.82007 12.1584 3.68985C11.5037 3.55962 10.8251 3.62646 10.2084 3.88191C9.59174 4.13735 9.06464 4.56993 8.69379 5.12495C8.32294 5.67997 8.125 6.33249 8.125 7C8.125 7.89511 8.48058 8.75355 9.11351 9.38649C9.74645 10.0194 10.6049 10.375 11.5 10.375ZM11.5 4.375C12.0192 4.375 12.5267 4.52895 12.9584 4.81739C13.3901 5.10583 13.7265 5.5158 13.9252 5.99546C14.1239 6.47511 14.1758 7.00291 14.0746 7.51211C13.9733 8.02131 13.7233 8.48904 13.3562 8.85616C12.989 9.22327 12.5213 9.47328 12.0121 9.57456C11.5029 9.67585 10.9751 9.62386 10.4955 9.42518C10.0158 9.2265 9.60583 8.89005 9.31739 8.45837C9.02895 8.02669 8.875 7.51918 8.875 7C8.875 6.30381 9.15156 5.63613 9.64384 5.14384C10.1361 4.65156 10.8038 4.375 11.5 4.375ZM22 0.625H1C0.900544 0.625 0.805161 0.664509 0.734835 0.734835C0.664509 0.805161 0.625 0.900544 0.625 1V13C0.625 13.0995 0.664509 13.1948 0.734835 13.2652C0.805161 13.3355 0.900544 13.375 1 13.375H22C22.0995 13.375 22.1948 13.3355 22.2652 13.2652C22.3355 13.1948 22.375 13.0995 22.375 13V1C22.375 0.900544 22.3355 0.805161 22.2652 0.734835C22.1948 0.664509 22.0995 0.625 22 0.625ZM1.375 5.05563C2.27002 4.84494 3.08857 4.38891 3.73874 3.73874C4.38891 3.08857 4.84494 2.27002 5.05562 1.375H17.9444C18.1551 2.27002 18.6111 3.08857 19.2613 3.73874C19.9114 4.38891 20.73 4.84494 21.625 5.05563V8.94438C20.73 9.15506 19.9114 9.61109 19.2613 10.2613C18.6111 10.9114 18.1551 11.73 17.9444 12.625H5.05562C4.84494 11.73 4.38891 10.9114 3.73874 10.2613C3.08857 9.61109 2.27002 9.15506 1.375 8.94438V5.05563ZM21.625 4.28125C20.9322 4.08642 20.301 3.71682 19.7921 3.20791C19.2832 2.699 18.9136 2.06784 18.7188 1.375H21.625V4.28125ZM4.28125 1.375C4.08642 2.06784 3.71682 2.699 3.20791 3.20791C2.699 3.71682 2.06784 4.08642 1.375 4.28125V1.375H4.28125ZM1.375 9.71875C2.06784 9.91358 2.699 10.2832 3.20791 10.7921C3.71682 11.301 4.08642 11.9322 4.28125 12.625H1.375V9.71875ZM18.7188 12.625C18.9136 11.9322 19.2832 11.301 19.7921 10.7921C20.301 10.2832 20.9322 9.91358 21.625 9.71875V12.625H18.7188Z" fill="black"/>
</svg>
