<svg width="49" height="44" viewBox="0 0 49 44" fill="none" xmlns="http://www.w3.org/2000/svg">
<path d="M1.66602 9.83821V29.0157C1.66602 31.9578 4.20307 34.3428 7.33268 34.3428H9.43394C9.86983 34.3428 10.2555 34.6252 10.3872 35.0407L12.5574 41.8878C12.6234 42.0963 12.8831 42.1663 13.045 42.0193L21.2134 34.6025C21.3974 34.4354 21.6371 34.3428 21.8856 34.3428H39.066C43.4475 34.3428 46.9993 31.0044 46.9993 26.8855V10.0156C46.9993 5.98813 44.199 2.47741 39.916 2.38026C35.3012 2.27558 28.8669 2.38029 24.3327 2.38029H9.59817C5.21671 2.38029 1.66602 5.71931 1.66602 9.83821Z" stroke="#0B0C0E" stroke-width="3" stroke-linecap="round"/>
<circle cx="13.6667" cy="18.3337" r="2.66667" fill="#0B0C0E"/>
<circle cx="24.3327" cy="18.3337" r="2.66667" fill="#0B0C0E"/>
<ellipse cx="34.9987" cy="18.3337" rx="2.66667" ry="2.66667" fill="#0B0C0E"/>
</svg>
