<svg width="45" height="45" viewBox="0 0 45 45" fill="none" xmlns="http://www.w3.org/2000/svg">
<circle cx="22.5" cy="22.5" r="22" stroke="black"/>
<path d="M19.4514 26.1327C19.7999 26.1327 20.0824 25.7604 20.0824 25.3011C20.0824 24.8419 19.7999 24.4696 19.4514 24.4696C19.1028 24.4696 18.8203 24.8419 18.8203 25.3011C18.8203 25.7604 19.1028 26.1327 19.4514 26.1327Z" fill="black"/>
<path d="M24.6801 25.3011C24.6801 25.4316 24.6393 25.531 24.597 25.5868C24.574 25.6172 24.5571 25.628 24.549 25.6316C24.541 25.628 24.5241 25.6172 24.5011 25.5868C24.4587 25.531 24.418 25.4316 24.418 25.3011C24.418 25.1706 24.4587 25.0713 24.5011 25.0154C24.5241 24.9851 24.541 24.9742 24.549 24.9706C24.5571 24.9742 24.574 24.9851 24.597 25.0154C24.6393 25.0713 24.6801 25.1706 24.6801 25.3011ZM24.5438 25.6333C24.5438 25.6332 24.5446 25.6329 24.5462 25.6328L24.5438 25.6333ZM24.5519 25.6328C24.5535 25.6329 24.5542 25.6332 24.5542 25.6333L24.5519 25.6328ZM24.5542 24.969C24.5542 24.9691 24.5535 24.9693 24.5519 24.9695L24.5542 24.969ZM24.5462 24.9695C24.5446 24.9693 24.5438 24.9691 24.5438 24.969L24.5462 24.9695Z" fill="black" stroke="black"/>
<path d="M31.224 25.5257C31.224 24.7661 30.8697 24.0885 30.3191 23.6466V20.5591C30.3191 19.4395 30.1002 18.3525 29.6682 17.329C29.2518 16.3407 28.6532 15.4527 27.8937 14.689C27.1327 13.9252 26.2461 13.3252 25.2593 12.9045C24.2372 12.4697 23.1515 12.2466 22.032 12.2424C20.9181 12.2381 19.8339 12.457 18.8104 12.8918C17.8235 13.3097 16.9341 13.9097 16.1675 14.6748C15.3911 15.4485 14.7798 16.3506 14.352 17.3544C13.9087 18.3934 13.6842 19.4932 13.6842 20.624V23.648C13.1322 24.0885 12.7793 24.7675 12.7793 25.5271C12.7793 26.8527 13.8579 27.9313 15.1835 27.9313H15.7906C15.8344 28.6315 15.9939 29.312 16.2678 29.9586C16.5812 30.6998 17.0301 31.3647 17.6019 31.9365C18.1737 32.5083 18.8386 32.9572 19.5798 33.2706C20.3478 33.5953 21.1624 33.7605 22.0024 33.7605C22.8424 33.7605 23.6569 33.5953 24.4249 33.2706C25.1661 32.9572 25.8311 32.5083 26.4028 31.9365C26.8673 31.472 27.2499 30.9468 27.5449 30.368H28.968C29.6386 30.368 30.1835 29.8231 30.1835 29.1525V27.5064C30.8104 27.0701 31.224 26.3459 31.224 25.5257ZM30.7158 25.5257C30.7158 26.5718 29.8645 27.4217 28.8198 27.4217H28.2254V23.6297H28.8198C29.8645 23.6297 30.7158 24.4795 30.7158 25.5257ZM14.1925 20.6226C14.1925 18.5177 15.0212 16.5327 16.5261 15.0334C18.0028 13.561 19.9468 12.7506 22.0024 12.7506C22.0108 12.7506 22.0207 12.7506 22.0306 12.7506C26.3209 12.7661 29.8108 16.2687 29.8108 20.5591V23.3332C29.5087 23.1963 29.1727 23.12 28.8198 23.12H28.2254V22.129C28.2254 22.0668 28.2028 22.0061 28.1605 21.9595L25.7266 19.2447C25.68 19.1925 25.6137 19.1628 25.5445 19.16C25.4739 19.1586 25.4075 19.1854 25.3581 19.2348C23.9026 20.689 21.456 21.3313 19.6617 21.6123C17.6951 21.9214 16.056 21.8763 16.0391 21.8763C15.9699 21.8748 15.9035 21.9003 15.8541 21.9483C15.8047 21.9963 15.7765 22.0612 15.7765 22.1304V23.1214H15.1821C14.8292 23.1214 14.4932 23.1977 14.1911 23.3346V20.6226H14.1925ZM13.2861 25.5257C13.2861 24.4795 14.136 23.6297 15.1821 23.6297H15.7765V27.4217H15.1821C14.1374 27.4217 13.2861 26.5704 13.2861 25.5257ZM22.0009 33.2494C18.8499 33.2494 16.2847 30.6857 16.2847 27.5332V23.3755V22.3873C16.8311 22.3873 18.1638 22.3605 19.7308 22.1163C20.9167 21.9313 21.9868 21.6574 22.9129 21.3059C23.9774 20.9007 24.8541 20.3883 25.5233 19.7798L27.7172 22.2278V23.3755V27.5346C27.7172 28.3619 27.5407 29.1483 27.2231 29.8584H23.6569C23.5398 29.2923 23.0372 28.8659 22.4358 28.8659H21.5675C20.88 28.8659 20.3209 29.425 20.3209 30.1125C20.3209 30.8 20.88 31.3591 21.5675 31.3591H22.4358C23.0358 31.3591 23.5384 30.9327 23.6569 30.3666H26.9647C25.9779 32.0875 24.1228 33.2494 22.0009 33.2494ZM23.1741 30.1125C23.1741 30.5191 22.8424 30.8508 22.4358 30.8508H21.5675C21.1595 30.8508 20.8292 30.5191 20.8292 30.1125C20.8292 29.7059 21.1609 29.3741 21.5675 29.3741H22.4358C22.8424 29.3741 23.1741 29.7045 23.1741 30.1125ZM29.6739 29.1511C29.6739 29.5407 29.3562 29.8584 28.9666 29.8584H27.7751C28.0235 29.2414 28.1704 28.5948 28.2113 27.9299H28.8184C29.1191 27.9299 29.4071 27.8748 29.6725 27.7732V29.1511H29.6739Z" fill="black" stroke="#0B0C0E" stroke-width="0.3"/>
</svg>
