<svg width="22" height="15" viewBox="0 0 22 15" fill="none" xmlns="http://www.w3.org/2000/svg">
<path d="M19.2333 0.671875H1.89052C0.893312 0.671875 0.0839844 1.47688 0.0839844 2.46875V4.26562V6.78125V12.5312C0.0839844 13.5231 0.893312 14.3281 1.89052 14.3281H19.2333C20.2305 14.3281 21.0398 13.5231 21.0398 12.5312V6.78125V4.26562V2.46875C21.0398 1.47688 20.2305 0.671875 19.2333 0.671875ZM1.89052 1.39062H19.2333C19.8294 1.39062 20.3172 1.87578 20.3172 2.46875V3.90625H0.806599V2.46875C0.806599 1.87578 1.29436 1.39062 1.89052 1.39062ZM20.3172 6.42188H0.806599V4.625H20.3172V6.42188ZM19.2333 13.6094H1.89052C1.29436 13.6094 0.806599 13.1242 0.806599 12.5312V7.14062H20.3172V12.5312C20.3172 13.1242 19.8294 13.6094 19.2333 13.6094Z" fill="black"/>
<path d="M17.7888 10.375H13.4531C13.2544 10.375 13.0918 10.5367 13.0918 10.7344C13.0918 10.932 13.2544 11.0938 13.4531 11.0938H17.7888C17.9875 11.0938 18.1501 10.932 18.1501 10.7344C18.1501 10.5367 17.9875 10.375 17.7888 10.375Z" fill="black"/>
</svg>
