<svg width="22" height="22" viewBox="0 0 22 22" fill="none" xmlns="http://www.w3.org/2000/svg">
<path d="M11 19.25C15.5563 19.25 19.25 15.5563 19.25 11C19.25 6.44365 15.5563 2.75 11 2.75C6.44365 2.75 2.75 6.44365 2.75 11C2.75 15.5563 6.44365 19.25 11 19.25Z" stroke="black" stroke-linecap="round" stroke-linejoin="round"/>
<path d="M4.26105 15.7604L5.26461 15.1546C5.36542 15.0937 5.44891 15.008 5.50708 14.9056C5.56524 14.8033 5.59614 14.6876 5.5968 14.5699L5.61423 11.465C5.61495 11.3353 5.65237 11.2085 5.72215 11.0991L7.42737 8.42665C7.47777 8.34766 7.54379 8.27981 7.62136 8.22726C7.69894 8.1747 7.78644 8.13857 7.87849 8.12106C7.97054 8.10355 8.0652 8.10505 8.15665 8.12545C8.2481 8.14586 8.33442 8.18474 8.4103 8.23972L10.0995 9.46353C10.2425 9.56718 10.42 9.61178 10.5951 9.58807L13.3004 9.22169C13.4664 9.19922 13.6184 9.11695 13.728 8.99032L15.6321 6.79025C15.7477 6.65669 15.8075 6.48376 15.799 6.30733L15.6986 4.21875M16.0758 17.504L15.1535 16.5799C15.0673 16.4935 14.9595 16.4316 14.8414 16.4006L12.9973 15.9166C12.8337 15.8737 12.6916 15.7719 12.5983 15.6307C12.505 15.4895 12.467 15.3189 12.4917 15.1515L12.6966 13.7597C12.7139 13.6422 12.7614 13.5312 12.8343 13.4375C12.9073 13.3438 13.0033 13.2706 13.1129 13.225L15.7298 12.1373C15.8506 12.087 15.9833 12.0724 16.1123 12.0949C16.2412 12.1175 16.361 12.1765 16.4576 12.2648L18.597 14.2214" stroke="black" stroke-linecap="round" stroke-linejoin="round"/>
</svg>
