<svg width="20" height="19" viewBox="0 0 20 19" fill="none" xmlns="http://www.w3.org/2000/svg">
<path d="M18.7808 11.4997C18.6513 11.4997 18.5271 11.5512 18.4355 11.6427C18.344 11.7343 18.2925 11.8585 18.2925 11.988V16.3235C18.2921 16.7119 18.1376 17.0842 17.863 17.3588C17.5884 17.6334 17.2161 17.7879 16.8277 17.7883H3.12695C2.73859 17.7879 2.36625 17.6334 2.09164 17.3588C1.81702 17.0842 1.66255 16.7119 1.66211 16.3235V3.59937C1.66255 3.211 1.81702 2.83867 2.09164 2.56405C2.36625 2.28943 2.73859 2.13496 3.12695 2.13452H7.46245C7.59195 2.13452 7.71615 2.08308 7.80772 1.99151C7.89929 1.89994 7.95073 1.77574 7.95073 1.64624C7.95073 1.51674 7.89929 1.39254 7.80772 1.30097C7.71615 1.2094 7.59195 1.15796 7.46245 1.15796H3.12695C2.47968 1.1587 1.85912 1.41615 1.40143 1.87384C0.943739 2.33154 0.686284 2.95209 0.685547 3.59937V16.3235C0.686284 16.9708 0.943739 17.5914 1.40143 18.0491C1.85912 18.5067 2.47968 18.7642 3.12695 18.7649H16.8277C17.475 18.7642 18.0955 18.5067 18.5532 18.0491C19.0109 17.5914 19.2684 16.9708 19.2691 16.3235V11.988C19.2691 11.9239 19.2565 11.8604 19.2319 11.8012C19.2074 11.7419 19.1714 11.6881 19.1261 11.6427C19.0808 11.5974 19.0269 11.5614 18.9677 11.5369C18.9084 11.5123 18.8449 11.4997 18.7808 11.4997Z" fill="black"/>
<path d="M15.4499 1.80055L8.32031 8.93015L10.6197 11.2295L17.7492 4.09989L15.4499 1.80055Z" fill="black"/>
<path d="M7.15625 12.3928L9.69727 11.6889L7.86016 9.85181L7.15625 12.3928Z" fill="black"/>
<path d="M18.3848 0.59209C18.1557 0.363491 17.8453 0.235107 17.5217 0.235107C17.198 0.235107 16.8876 0.363491 16.6585 0.59209L16.1406 1.10996L18.44 3.40933L18.9579 2.89145C19.1864 2.66235 19.3148 2.35193 19.3148 2.0283C19.3148 1.70466 19.1864 1.39425 18.9579 1.16514L18.3848 0.59209Z" fill="black"/>
</svg>
