<svg width="13" height="12" viewBox="0 0 13 12" fill="none" xmlns="http://www.w3.org/2000/svg">
<mask id="path-1-inside-1_183_2887" fill="white">
<path d="M12.0521 7.29502C11.9682 7.29502 11.8878 7.32833 11.8285 7.38763C11.7692 7.44693 11.7359 7.52737 11.7359 7.61123V10.4189C11.7356 10.6704 11.6355 10.9115 11.4577 11.0894C11.2798 11.2672 11.0387 11.3673 10.7872 11.3676H1.91456C1.66305 11.3673 1.42193 11.2672 1.24409 11.0894C1.06624 10.9115 0.966207 10.6704 0.965922 10.4189V2.17872C0.966207 1.92721 1.06624 1.68609 1.24409 1.50825C1.42193 1.3304 1.66305 1.23037 1.91456 1.23008H4.72225C4.80611 1.23008 4.88654 1.19677 4.94584 1.13747C5.00515 1.07816 5.03846 0.997734 5.03846 0.913869C5.03846 0.830004 5.00515 0.749574 4.94584 0.690273C4.88654 0.630971 4.80611 0.597656 4.72225 0.597656H1.91456C1.49538 0.598133 1.09351 0.764863 0.797106 1.06127C0.500702 1.35767 0.333973 1.75954 0.333496 2.17872V10.4189C0.333973 10.8381 0.500702 11.24 0.797106 11.5364C1.09351 11.8328 1.49538 11.9995 1.91456 12H10.7872C11.2064 11.9995 11.6083 11.8328 11.9047 11.5364C12.2011 11.24 12.3678 10.8381 12.3683 10.4189V7.61126C12.3683 7.56973 12.3601 7.52861 12.3442 7.49024C12.3283 7.45187 12.305 7.41701 12.2757 7.38765C12.2463 7.35828 12.2114 7.33498 12.1731 7.31909C12.1347 7.3032 12.0936 7.29502 12.0521 7.29502Z"/>
</mask>
<path d="M12.0521 7.29502C11.9682 7.29502 11.8878 7.32833 11.8285 7.38763C11.7692 7.44693 11.7359 7.52737 11.7359 7.61123V10.4189C11.7356 10.6704 11.6355 10.9115 11.4577 11.0894C11.2798 11.2672 11.0387 11.3673 10.7872 11.3676H1.91456C1.66305 11.3673 1.42193 11.2672 1.24409 11.0894C1.06624 10.9115 0.966207 10.6704 0.965922 10.4189V2.17872C0.966207 1.92721 1.06624 1.68609 1.24409 1.50825C1.42193 1.3304 1.66305 1.23037 1.91456 1.23008H4.72225C4.80611 1.23008 4.88654 1.19677 4.94584 1.13747C5.00515 1.07816 5.03846 0.997734 5.03846 0.913869C5.03846 0.830004 5.00515 0.749574 4.94584 0.690273C4.88654 0.630971 4.80611 0.597656 4.72225 0.597656H1.91456C1.49538 0.598133 1.09351 0.764863 0.797106 1.06127C0.500702 1.35767 0.333973 1.75954 0.333496 2.17872V10.4189C0.333973 10.8381 0.500702 11.24 0.797106 11.5364C1.09351 11.8328 1.49538 11.9995 1.91456 12H10.7872C11.2064 11.9995 11.6083 11.8328 11.9047 11.5364C12.2011 11.24 12.3678 10.8381 12.3683 10.4189V7.61126C12.3683 7.56973 12.3601 7.52861 12.3442 7.49024C12.3283 7.45187 12.305 7.41701 12.2757 7.38765C12.2463 7.35828 12.2114 7.33498 12.1731 7.31909C12.1347 7.3032 12.0936 7.29502 12.0521 7.29502Z" fill="black"/>
<path d="M12.0521 7.29502L12.0521 8.79502L12.0521 7.29502ZM11.7359 7.61123H10.2359H11.7359ZM11.7359 10.4189L13.2359 10.4206V10.4189H11.7359ZM10.7872 11.3676L10.7872 12.8676L10.7889 12.8676L10.7872 11.3676ZM1.91456 11.3676L1.91286 12.8676H1.91456V11.3676ZM0.965922 10.4189L-0.534079 10.4189L-0.534077 10.4206L0.965922 10.4189ZM0.965922 2.17872L-0.534078 2.17702V2.17872H0.965922ZM1.91456 1.23008L1.91456 -0.269919L1.91286 -0.269917L1.91456 1.23008ZM4.72225 1.23008V-0.269918V1.23008ZM1.91456 0.597656L1.91456 -0.902345L1.91285 -0.902343L1.91456 0.597656ZM0.333496 2.17872L-1.1665 2.17701V2.17872H0.333496ZM0.333496 10.4189L-1.1665 10.4189L-1.1665 10.4207L0.333496 10.4189ZM1.91456 12L1.91285 13.5H1.91456V12ZM10.7872 12L10.7872 13.5L10.7889 13.5L10.7872 12ZM12.3683 10.4189L13.8683 10.4207V10.4189H12.3683ZM12.3683 7.61126L10.8683 7.61111V7.61126H12.3683ZM12.0521 5.79502C11.5704 5.79502 11.1084 5.98636 10.7678 6.32697L12.8891 8.44829C12.6671 8.6703 12.366 8.79502 12.0521 8.79502V5.79502ZM10.7678 6.32697C10.4272 6.66758 10.2359 7.12954 10.2359 7.61123L13.2359 7.61123C13.2359 7.92519 13.1111 8.22629 12.8891 8.44829L10.7678 6.32697ZM10.2359 7.61123V10.4189H13.2359V7.61123H10.2359ZM10.2359 10.4172C10.236 10.2715 10.294 10.1318 10.397 10.0287L12.5183 12.1501C12.9771 11.6913 13.2351 11.0694 13.2359 10.4206L10.2359 10.4172ZM10.397 10.0287C10.5001 9.92569 10.6398 9.86772 10.7855 9.86756L10.7889 12.8676C11.4377 12.8668 12.0596 12.6088 12.5183 12.1501L10.397 10.0287ZM10.7872 9.86756H1.91456V12.8676H10.7872V9.86756ZM1.91626 9.86756C2.06199 9.86772 2.2017 9.92568 2.30475 10.0287L0.183426 12.1501C0.642159 12.6088 1.26412 12.8668 1.91286 12.8676L1.91626 9.86756ZM2.30475 10.0287C2.40779 10.1318 2.46576 10.2715 2.46592 10.4172L-0.534077 10.4206C-0.533343 11.0694 -0.275305 11.6913 0.183426 12.1501L2.30475 10.0287ZM2.46592 10.4189V2.17872H-0.534078V10.4189H2.46592ZM2.46592 2.18042C2.46576 2.32615 2.40779 2.46586 2.30475 2.56891L0.183426 0.447586C-0.275305 0.906318 -0.533343 1.52828 -0.534077 2.17702L2.46592 2.18042ZM2.30475 2.56891C2.2017 2.67195 2.06199 2.72992 1.91626 2.73008L1.91286 -0.269917C1.26412 -0.269183 0.642157 -0.0111447 0.183426 0.447586L2.30475 2.56891ZM1.91456 2.73008H4.72225V-0.269918H1.91456V2.73008ZM4.72225 2.73008C5.20394 2.73008 5.6659 2.53873 6.0065 2.19813L3.88518 0.0768055C4.10719 -0.145197 4.40829 -0.269918 4.72225 -0.269918L4.72225 2.73008ZM6.0065 2.19813C6.34711 1.85752 6.53846 1.39556 6.53846 0.913869H3.53846C3.53846 0.599907 3.66318 0.298807 3.88518 0.0768055L6.0065 2.19813ZM6.53846 0.913869C6.53846 0.432177 6.34711 -0.0297833 6.0065 -0.370387L3.88518 1.75093C3.66318 1.52893 3.53846 1.22783 3.53846 0.913869H6.53846ZM6.0065 -0.370387C5.6659 -0.710992 5.20394 -0.902344 4.72225 -0.902344V2.09766C4.40829 2.09766 4.10719 1.97294 3.88518 1.75093L6.0065 -0.370387ZM4.72225 -0.902344H1.91456V2.09766H4.72225V-0.902344ZM1.91285 -0.902343C1.09644 -0.901414 0.313736 -0.576684 -0.263554 0.000606238L1.85777 2.12193C1.87328 2.10641 1.89432 2.09768 1.91627 2.09766L1.91285 -0.902343ZM-0.263554 0.000606238C-0.840844 0.577896 -1.16557 1.3606 -1.1665 2.17701L1.8335 2.18043C1.83352 2.15848 1.84225 2.13744 1.85777 2.12193L-0.263554 0.000606238ZM-1.1665 2.17872V10.4189H1.8335V2.17872H-1.1665ZM-1.1665 10.4207C-1.16557 11.2371 -0.840844 12.0198 -0.263554 12.5971L1.85777 10.4757C1.84225 10.4602 1.83352 10.4392 1.8335 10.4172L-1.1665 10.4207ZM-0.263554 12.5971C0.313737 13.1744 1.09644 13.4991 1.91285 13.5L1.91627 10.5C1.89432 10.5 1.87328 10.4913 1.85777 10.4757L-0.263554 12.5971ZM1.91456 13.5H10.7872V10.5H1.91456V13.5ZM10.7889 13.5C11.6053 13.4991 12.388 13.1744 12.9653 12.5971L10.844 10.4757C10.8285 10.4913 10.8075 10.5 10.7855 10.5L10.7889 13.5ZM12.9653 12.5971C13.5426 12.0198 13.8673 11.2371 13.8683 10.4207L10.8683 10.4172C10.8683 10.4392 10.8595 10.4602 10.844 10.4757L12.9653 12.5971ZM13.8683 10.4189V7.61126H10.8683V10.4189H13.8683ZM13.8683 7.61141C13.8683 7.37288 13.8213 7.13669 13.7301 6.91632L10.9584 8.06416C10.8989 7.92054 10.8683 7.76659 10.8683 7.61111L13.8683 7.61141ZM13.7301 6.91632C13.6388 6.69594 13.505 6.49571 13.3364 6.32704L11.215 8.44825C11.105 8.33832 11.0178 8.2078 10.9584 8.06416L13.7301 6.91632ZM13.3364 6.32704C13.1677 6.15837 12.9675 6.02457 12.7471 5.93329L11.599 8.7049C11.4554 8.64539 11.3249 8.55818 11.215 8.44825L13.3364 6.32704ZM12.7471 5.93329C12.5268 5.842 12.2906 5.79502 12.0521 5.79502L12.0521 8.79502C11.8966 8.79502 11.7427 8.7644 11.599 8.7049L12.7471 5.93329Z" fill="black" mask="url(#path-1-inside-1_183_2887)"/>
<path d="M6.33849 5.63086L9.89499 2.07437L10.3234 2.50277L6.76689 6.05926L6.33849 5.63086Z" fill="black" stroke="black" stroke-width="1.5"/>
<mask id="path-4-inside-2_183_2887" fill="white">
<path d="M4.52393 7.87336L6.1695 7.4175L4.97978 6.22778L4.52393 7.87336Z"/>
</mask>
<path d="M4.52393 7.87336L6.1695 7.4175L4.97978 6.22778L4.52393 7.87336Z" fill="black"/>
<path d="M4.52393 7.87336L3.07837 7.47291L2.37105 10.0262L4.92437 9.31892L4.52393 7.87336ZM6.1695 7.4175L6.56994 8.86306L9.0495 8.17618L7.23016 6.35684L6.1695 7.4175ZM4.97978 6.22778L6.04044 5.16712L4.2211 3.34778L3.53422 5.82734L4.97978 6.22778ZM4.92437 9.31892L6.56994 8.86306L5.76905 5.97194L4.12348 6.4278L4.92437 9.31892ZM7.23016 6.35684L6.04044 5.16712L3.91912 7.28844L5.10884 8.47816L7.23016 6.35684ZM3.53422 5.82734L3.07837 7.47291L5.96949 8.2738L6.42534 6.62823L3.53422 5.82734Z" fill="black" mask="url(#path-4-inside-2_183_2887)"/>
<mask id="path-6-inside-3_183_2887" fill="white">
<path d="M11.7956 0.231183C11.6473 0.0831418 11.4462 0 11.2366 0C11.0271 0 10.826 0.0831418 10.6777 0.231183L10.3423 0.566559L11.8314 2.05564L12.1667 1.72026C12.3148 1.57189 12.3979 1.37086 12.3979 1.16128C12.3979 0.951691 12.3148 0.750663 12.1667 0.602291L11.7956 0.231183Z"/>
</mask>
<path d="M11.7956 0.231183C11.6473 0.0831418 11.4462 0 11.2366 0C11.0271 0 10.826 0.0831418 10.6777 0.231183L10.3423 0.566559L11.8314 2.05564L12.1667 1.72026C12.3148 1.57189 12.3979 1.37086 12.3979 1.16128C12.3979 0.951691 12.3148 0.750663 12.1667 0.602291L11.7956 0.231183Z" fill="black"/>
<path d="M11.7956 0.231183L12.8563 -0.829477L12.8551 -0.83063L11.7956 0.231183ZM11.2366 0L11.2366 1.5L11.2366 0ZM10.6777 0.231183L9.61815 -0.830631L9.617 -0.829477L10.6777 0.231183ZM10.3423 0.566559L9.28162 -0.494101L8.22097 0.566559L9.28162 1.62722L10.3423 0.566559ZM11.8314 2.05564L10.7707 3.1163L11.8314 4.17696L12.892 3.1163L11.8314 2.05564ZM12.1667 1.72026L13.2274 2.78092L13.2286 2.77968L12.1667 1.72026ZM12.3979 1.16128L13.8979 1.16128L12.3979 1.16128ZM12.1667 0.602291L13.2286 -0.457131L13.2274 -0.458369L12.1667 0.602291ZM12.8551 -0.83063C12.4256 -1.25927 11.8435 -1.5 11.2366 -1.5L11.2366 1.5C11.049 1.5 10.869 1.42556 10.7361 1.293L12.8551 -0.83063ZM11.2366 -1.5C10.6298 -1.5 10.0477 -1.25927 9.61815 -0.83063L11.7372 1.293C11.6043 1.42555 11.4243 1.5 11.2366 1.5V-1.5ZM9.617 -0.829477L9.28162 -0.494101L11.4029 1.62722L11.7383 1.29184L9.617 -0.829477ZM9.28162 1.62722L10.7707 3.1163L12.892 0.994977L11.4029 -0.494102L9.28162 1.62722ZM12.892 3.1163L13.2274 2.78092L11.1061 0.659603L10.7707 0.994978L12.892 3.1163ZM13.2286 2.77968C13.6572 2.35011 13.8979 1.76808 13.8979 1.16128L10.8979 1.16128C10.8979 0.973642 10.9723 0.793671 11.1048 0.660841L13.2286 2.77968ZM13.8979 1.16128C13.8979 0.554472 13.6572 -0.0275558 13.2286 -0.45713L11.1048 1.66171C10.9723 1.52888 10.8979 1.34891 10.8979 1.16128L13.8979 1.16128ZM13.2274 -0.458369L12.8563 -0.829477L10.735 1.29184L11.1061 1.66295L13.2274 -0.458369Z" fill="black" mask="url(#path-6-inside-3_183_2887)"/>
</svg>
