<svg width="15" height="13" viewBox="0 0 15 13" fill="none" xmlns="http://www.w3.org/2000/svg">
<path d="M6.92666 1.17449C5.33698 -0.385299 2.76519 -0.392879 1.18239 1.16016C-0.400407 2.7132 -0.392682 5.23664 1.19699 6.79643L7.08158 12.5704C7.32566 12.8099 7.72141 12.8099 7.96549 12.5704L13.8195 6.82982C15.3986 5.27173 15.3936 2.75536 13.8037 1.1953C12.2111 -0.367283 9.63815 -0.374864 8.05252 1.18095L7.49342 1.7306L6.92666 1.17449ZM12.9331 5.96494L7.52353 11.2694L2.08091 5.92913C0.978222 4.84718 0.972875 3.10034 2.06631 2.02746C3.15974 0.954584 4.94006 0.959831 6.04274 2.04178L7.05447 3.0345C7.30273 3.27808 7.70671 3.27331 7.94891 3.02392L8.93644 2.04825C10.0327 0.972598 11.8142 0.977848 12.9198 2.0626C14.0227 3.14482 14.0262 4.88645 12.9331 5.96494Z" fill="#0B0C0E"/>
</svg>
