<svg width="20" height="17" viewBox="0 0 20 17" fill="none" xmlns="http://www.w3.org/2000/svg">
<path d="M10.5156 16.6534L10.5156 16.6534C10.2485 16.9155 9.81426 16.9155 9.54716 16.6534L1.70104 8.95484C-0.359153 6.93338 -0.368337 3.66533 1.68158 1.65395C3.73311 -0.359012 7.06874 -0.349939 9.13049 1.67305L9.88618 2.41453L9.99133 2.51771L10.0964 2.41443L10.8418 1.68167C10.8418 1.68164 10.8418 1.68161 10.8419 1.68157C12.8972 -0.334992 16.2343 -0.325884 18.2998 1.7008C20.3602 3.72243 20.3663 6.98128 18.3206 8.99965L10.5156 16.6534ZM17.3492 8.06036L17.3495 8.06003C18.8669 6.56287 18.8615 4.14439 17.3314 2.64306C15.7997 1.14015 13.3309 1.13182 11.8102 2.62393L11.8098 2.6243L10.4931 3.92519L10.4931 3.92517L10.4909 3.92739C10.226 4.20021 9.78273 4.20552 9.51102 3.93893L8.16204 2.61531C6.63414 1.11613 4.16695 1.1078 2.65002 2.59621C1.13147 4.08622 1.14004 6.51188 2.66949 8.01258L9.92632 15.133L10.0313 15.236L10.1364 15.133L17.3492 8.06036Z" fill="#212121" stroke="white" stroke-width="0.3"/>
</svg>
