<svg width="26" height="24" viewBox="0 0 26 24" fill="none" xmlns="http://www.w3.org/2000/svg">
<path d="M13.6028 22.5522L13.6029 22.5522L23.6606 12.4673C26.2767 9.82801 26.269 5.56456 23.6339 2.92075C20.9945 0.272681 16.7325 0.261107 14.1067 2.89538L13.6028 22.5522ZM13.6028 22.5522C13.2812 22.875 12.7599 22.875 12.4383 22.5522L2.32747 12.4082C-0.307528 9.76453 -0.319023 5.48904 2.30238 2.85902C4.92333 0.229457 9.18339 0.240972 11.8179 2.88419L12.7917 3.8612L12.969 4.03902L13.1461 3.86103L14.1065 2.89555L13.6028 22.5522ZM22.4922 11.3004L22.4928 11.2999C24.4681 9.30695 24.4609 6.08968 22.4693 4.0915C20.4733 2.08889 17.2535 2.07734 15.2711 4.0663L15.2705 4.06691L13.5737 5.78103L13.5737 5.78099L13.5702 5.78473C13.2509 6.12083 12.7189 6.12724 12.3917 5.79899L10.6533 4.05494C8.6622 2.05724 5.44455 2.04569 3.46698 4.02977C1.48987 6.01338 1.50135 9.24019 3.49206 11.2374L12.8435 20.6196L13.0205 20.7972L13.1976 20.6197L22.4922 11.3004Z" fill="#212121" stroke="#F1F2F4" stroke-width="0.5"/>
</svg>
