<svg width="18" height="18" viewBox="0 0 18 18" fill="none" xmlns="http://www.w3.org/2000/svg">
<path d="M8.59375 12.0439C10.1125 12.0439 11.3438 10.8127 11.3438 9.29395C11.3438 7.77516 10.1125 6.54395 8.59375 6.54395C7.07497 6.54395 5.84375 7.77516 5.84375 9.29395C5.84375 10.8127 7.07497 12.0439 8.59375 12.0439Z" fill="black"/>
<path d="M12.375 0.700195H4.8125C3.53659 0.70164 2.31335 1.20913 1.41114 2.11134C0.508939 3.01355 0.00144502 4.23678 0 5.5127V13.0752C0.00144502 14.3511 0.508939 15.5743 1.41114 16.4766C2.31335 17.3788 3.53659 17.8863 4.8125 17.8877H12.375C13.6509 17.8863 14.8741 17.3788 15.7764 16.4766C16.6786 15.5743 17.1861 14.3511 17.1875 13.0752V5.5127C17.1861 4.23678 16.6786 3.01355 15.7764 2.11134C14.8741 1.20913 13.6509 0.70164 12.375 0.700195ZM8.59375 13.4189C7.7779 13.4189 6.98038 13.177 6.30202 12.7238C5.62367 12.2705 5.09496 11.6263 4.78275 10.8725C4.47054 10.1188 4.38885 9.28937 4.54801 8.4892C4.70718 7.68903 5.10004 6.95402 5.67693 6.37713C6.25383 5.80024 6.98883 5.40737 7.789 5.24821C8.58917 5.08904 9.41857 5.17073 10.1723 5.48294C10.9261 5.79515 11.5703 6.32387 12.0236 7.00222C12.4768 7.68057 12.7187 8.4781 12.7188 9.29395C12.7175 10.3876 12.2825 11.4361 11.5092 12.2094C10.7359 12.9827 9.68739 13.4177 8.59375 13.4189ZM13.0625 5.85645C12.8585 5.85645 12.6592 5.79596 12.4896 5.68265C12.32 5.56933 12.1878 5.40827 12.1097 5.21984C12.0317 5.0314 12.0113 4.82405 12.0511 4.62401C12.0909 4.42397 12.1891 4.24021 12.3333 4.09599C12.4775 3.95177 12.6613 3.85355 12.8613 3.81376C13.0614 3.77397 13.2687 3.79439 13.4571 3.87244C13.6456 3.9505 13.8066 4.08268 13.92 4.25226C14.0333 4.42185 14.0938 4.62123 14.0938 4.8252C14.0938 5.0987 13.9851 5.361 13.7917 5.5544C13.5983 5.7478 13.336 5.85645 13.0625 5.85645Z" fill="black"/>
</svg>
