<svg width="19" height="20" viewBox="0 0 19 20" fill="none" xmlns="http://www.w3.org/2000/svg">
<path d="M4.71909 19.0351H0.822932V6.77362H4.71909V19.0351ZM2.77101 5.05473C1.51049 5.05473 0.59375 4.13798 0.59375 2.87746C0.59375 1.61694 1.62508 0.700195 2.77101 0.700195C4.03153 0.700195 4.94827 1.61694 4.94827 2.87746C4.94827 4.13798 4.03153 5.05473 2.77101 5.05473ZM18.9286 19.0351H15.0324V12.3887C15.0324 10.4406 14.2303 9.86763 13.0843 9.86763C11.9384 9.86763 10.7925 10.7844 10.7925 12.5033V19.0351H6.89634V6.77362H10.5633V8.49251C10.9071 7.69036 12.2822 6.42984 14.2303 6.42984C16.4075 6.42984 18.6994 7.69036 18.6994 11.4719V19.0351H18.9286Z" fill="black"/>
</svg>
