<svg width="147" height="26" viewBox="0 0 147 26" fill="none" xmlns="http://www.w3.org/2000/svg">
<path d="M7.26886 17.4237V0.395752H11.6513V17.7317C11.6513 20.0901 10.9913 21.8941 9.67126 23.1349C8.35126 24.3757 6.45926 25.0005 4.00405 25.0005H4.57764e-05V21.0757H3.26485C4.72565 21.0757 5.75525 20.8029 6.36246 20.2485C6.96086 19.6941 7.26886 18.7525 7.26886 17.4237Z" fill="#1D1D1B"/>
<path d="M28.4499 0.00878906C32.1107 0.00878906 35.1467 1.20559 37.5403 3.59918C39.9339 5.99278 41.1307 9.02877 41.1307 12.6896C41.1307 16.3504 39.9339 19.4216 37.5403 21.7975C35.1467 24.1823 32.1107 25.3703 28.4499 25.3703C24.7891 25.3703 21.7531 24.1823 19.3595 21.7975C16.9659 19.4128 15.7691 16.3768 15.7691 12.6896C15.7691 9.00237 16.9659 5.99278 19.3595 3.59918C21.7531 1.20559 24.7803 0.00878906 28.4499 0.00878906ZM28.4499 21.3487C30.8875 21.3487 32.8587 20.5567 34.3723 18.964C35.8859 17.3712 36.6427 15.2856 36.6427 12.6984C36.6427 10.1112 35.8859 8.01677 34.3723 6.41518C32.8587 4.81358 30.8875 4.01278 28.4499 4.01278C26.0123 4.01278 24.0411 4.81358 22.5275 6.41518C21.0139 8.01677 20.2571 10.1112 20.2571 12.6984C20.2571 15.2856 21.0139 17.38 22.5275 18.964C24.0411 20.5567 26.0123 21.3487 28.4499 21.3487Z" fill="#1D1D1B"/>
<path d="M60.5883 0.395996H65.4283L55.4315 15.1976V25.0008H51.0491V15.1976L41.1315 0.395996H46.2443L53.3899 11.2728L60.5883 0.395996Z" fill="#1D1D1B"/>
<path d="M69.6347 11.616C68.9395 10.7976 68.4291 9.95278 68.0947 9.09918C67.7603 8.24558 67.5931 7.34799 67.5931 6.42399C67.5931 4.47919 68.2707 2.92159 69.6347 1.7512C70.9899 0.589599 72.7851 0 75.0203 0C77.4579 0 79.4379 0.756798 80.9603 2.2704C82.4827 3.78399 83.2483 5.70239 83.2483 8.03438H78.9451C78.9187 6.77599 78.5667 5.76399 77.8891 4.99839C77.2115 4.23279 76.3227 3.84559 75.2139 3.84559C74.2899 3.84559 73.5331 4.10959 72.9435 4.63759C72.3539 5.16559 72.0635 5.85199 72.0635 6.69679C72.0635 7.31279 72.2571 7.94638 72.6443 8.59758C73.0315 9.24878 73.6211 9.93518 74.4131 10.6568L80.2915 15.9984V12.6192H88.5547V16.3856H80.7491L90.2443 25.0008H84.3659L81.1715 22.1584C80.1683 23.232 79.0419 24.0416 77.7923 24.5784C76.5427 25.1152 75.1523 25.388 73.6387 25.388C71.1043 25.388 69.0715 24.7456 67.5491 23.4432C66.0267 22.1496 65.2611 20.4424 65.2611 18.3128C65.2611 16.8784 65.6395 15.5848 66.3963 14.432C67.1531 13.2792 68.2355 12.3464 69.6435 11.6248L69.6347 11.616ZM69.5203 17.7672C69.5203 18.92 69.9075 19.8352 70.6907 20.5128C71.4739 21.1904 72.5299 21.5336 73.8587 21.5336C74.7299 21.5336 75.5483 21.3664 76.3227 21.032C77.0883 20.6976 77.7747 20.2224 78.3643 19.6064L71.9491 13.8776C71.1571 14.3176 70.5499 14.8632 70.1451 15.532C69.7315 16.2008 69.5291 16.94 69.5291 17.7584L69.5203 17.7672Z" fill="#1D1D1B"/>
<path d="M112.552 15.0744H117.128C116.618 18.1456 115.227 20.6359 112.975 22.5279C110.722 24.4199 108.003 25.3703 104.826 25.3703C101.209 25.3703 98.2169 24.1735 95.8497 21.7799C93.4825 19.3864 92.2945 16.3504 92.2945 12.6896C92.2945 9.02877 93.4825 5.99278 95.8497 3.59918C98.2169 1.20559 101.209 0.00878906 104.826 0.00878906C108.003 0.00878906 110.722 0.950387 112.975 2.83358C115.227 4.71678 116.618 7.20717 117.128 10.3136H112.552C112.095 8.34237 111.179 6.79358 109.824 5.68478C108.469 4.56718 106.797 4.01278 104.826 4.01278C102.441 4.01278 100.505 4.80478 99.0177 6.39758C97.5305 7.99037 96.7913 10.0848 96.7913 12.6984C96.7913 15.312 97.5305 17.38 99.0177 18.964C100.505 20.5567 102.441 21.3487 104.826 21.3487C106.823 21.3487 108.504 20.7943 109.859 19.6944C111.215 18.5944 112.112 17.0544 112.552 15.0832V15.0744Z" fill="#1D1D1B"/>
<path d="M133.927 0.00878906C137.588 0.00878906 140.624 1.20559 143.017 3.59918C145.411 5.99278 146.608 9.02877 146.608 12.6896C146.608 16.3504 145.411 19.4216 143.017 21.7975C140.624 24.1823 137.588 25.3703 133.927 25.3703C130.266 25.3703 127.23 24.1823 124.837 21.7975C122.443 19.4128 121.246 16.3768 121.246 12.6896C121.246 9.00237 122.443 5.99278 124.837 3.59918C127.23 1.20559 130.266 0.00878906 133.927 0.00878906ZM133.927 21.3487C136.365 21.3487 138.336 20.5567 139.849 18.964C141.363 17.3712 142.12 15.2856 142.12 12.6984C142.12 10.1112 141.363 8.01677 139.849 6.41518C138.336 4.81358 136.365 4.01278 133.927 4.01278C131.489 4.01278 129.518 4.81358 128.005 6.41518C126.491 8.01677 125.734 10.1112 125.734 12.6984C125.734 15.2856 126.491 17.38 128.005 18.964C129.518 20.5567 131.489 21.3487 133.927 21.3487Z" fill="#1D1D1B"/>
</svg>
