<svg width="22" height="22" viewBox="0 0 22 22" fill="none" xmlns="http://www.w3.org/2000/svg">
<g clip-path="url(#clip0_109_2396)">
<path d="M13.6217 14.5017V18.8742C13.6195 19.33 13.4406 19.7672 13.1226 20.0938C12.8046 20.4203 12.3723 20.6108 11.9167 20.625H3.12583C2.66223 20.6226 2.21829 20.4374 1.89047 20.1095C1.56264 19.7817 1.37741 19.3378 1.375 18.8742V3.12583C1.37741 2.66223 1.56264 2.21829 1.89047 1.89047C2.21829 1.56264 2.66223 1.37741 3.12583 1.375H11.9167C12.3803 1.37741 12.8242 1.56264 13.152 1.89047C13.4799 2.21829 13.6651 2.66223 13.6675 3.12583V5.7475" stroke="black" stroke-width="1.3" stroke-miterlimit="10"/>
<path d="M9.24945 2.24589H5.74779C5.5127 2.23412 5.29115 2.13237 5.12904 1.96172C4.96692 1.79107 4.87666 1.5646 4.87695 1.32922H10.1295C10.1296 1.56612 10.0381 1.79389 9.87406 1.96478C9.71 2.13567 9.48616 2.23641 9.24945 2.24589Z" stroke="black" stroke-width="1.3" stroke-miterlimit="10"/>
<path d="M6.62793 18.0033H8.37876" stroke="black" stroke-width="1.3" stroke-miterlimit="10"/>
<path d="M8.37876 10.1292V11.9167L6.62793 14.5017H16.2529C17.4118 14.4993 18.5226 14.0379 19.3421 13.2184C20.1616 12.3989 20.623 11.2881 20.6254 10.1292C20.6254 8.96872 20.1651 7.85561 19.3453 7.03416C18.5256 6.2127 17.4134 5.74999 16.2529 5.74756H12.7513C12.1763 5.74756 11.607 5.86096 11.0759 6.08127C10.5448 6.30158 10.0623 6.62448 9.65619 7.03147C9.25005 7.43847 8.92816 7.92157 8.70897 8.45313C8.48977 8.98468 8.37756 9.55425 8.37876 10.1292Z" stroke="black" stroke-width="1.3" stroke-miterlimit="10"/>
<path d="M11 10.1292H12.7508" stroke="black" stroke-width="1.3" stroke-miterlimit="10"/>
<path d="M13.6221 10.1292H15.3729" stroke="black" stroke-width="1.3" stroke-miterlimit="10"/>
<path d="M16.2529 10.1292H18.0038" stroke="black" stroke-width="1.3" stroke-miterlimit="10"/>
</g>
<defs>
<clipPath id="clip0_109_2396">
<rect width="22" height="22" fill="white"/>
</clipPath>
</defs>
</svg>
