<svg width="58" height="58" viewBox="0 0 58 58" fill="none" xmlns="http://www.w3.org/2000/svg">
<circle cx="29" cy="29" r="28.5" stroke="black"/>
<path d="M26.1345 19.3334C24.9602 19.3334 23.9864 20.2818 23.9864 21.4687C23.9864 22.0054 24.1926 22.487 24.5191 22.8608H20.4061C19.8175 22.8608 19.332 23.3648 19.332 23.9757V26.9487C19.332 27.4296 19.6335 27.8391 20.0481 27.9937V38.51C20.0481 39.3119 20.6997 39.9556 21.4802 39.9556H36.5172C37.2977 39.9556 37.9493 39.3119 37.9493 38.51V27.9937C38.3632 27.8384 38.6654 27.4289 38.6654 26.9487V23.9757C38.6654 23.3648 38.1799 22.8608 37.5913 22.8608H33.4783C33.8048 22.487 34.011 22.0061 34.011 21.4687C34.011 20.2818 33.0372 19.3334 31.8629 19.3334H31.6488C30.5776 19.3334 29.8701 19.8849 29.467 20.6237C29.2665 20.9923 29.1219 21.4011 28.9987 21.8255C28.8755 21.4011 28.7323 20.9923 28.5318 20.6237C28.1287 19.8849 27.422 19.3334 26.35 19.3334H26.1345ZM26.1345 20.0766H26.3493C27.2114 20.0766 27.5895 20.4074 27.9082 20.9908C28.1624 21.4568 28.322 22.1644 28.5039 22.8608H26.1345C25.3254 22.8608 24.7024 22.2365 24.7024 21.4687C24.7024 20.7017 25.3254 20.0766 26.1345 20.0766ZM31.6488 20.0766H31.8629C32.672 20.0766 33.295 20.7017 33.295 21.4687C33.295 22.2358 32.672 22.8608 31.8629 22.8608H29.4949C29.6768 22.1644 29.835 21.4568 30.0892 20.9908C30.4079 20.4074 30.7874 20.0766 31.6488 20.0766ZM20.4061 23.6041H26.2899C25.5466 24.2165 25.0604 25.1471 25.0604 26.201C25.0604 26.2996 25.0981 26.3941 25.1653 26.4638C25.2324 26.5335 25.3235 26.5726 25.4185 26.5726C25.5134 26.5726 25.6045 26.5335 25.6716 26.4638C25.7388 26.3941 25.7765 26.2996 25.7765 26.201C25.7765 24.7643 26.9021 23.6041 28.3041 23.6041H28.6407V27.3203H20.4061C20.3588 27.3216 20.3117 27.3128 20.2677 27.2945C20.2237 27.2763 20.1838 27.249 20.1503 27.2142C20.1168 27.1795 20.0905 27.138 20.0729 27.0924C20.0554 27.0467 20.0469 26.9979 20.0481 26.9487V23.9757C20.0481 23.7631 20.2013 23.6041 20.4061 23.6041ZM29.3567 23.6041H29.6933C31.096 23.6041 32.2209 24.7636 32.2209 26.201C32.2209 26.2996 32.2586 26.3941 32.3258 26.4638C32.3929 26.5335 32.484 26.5726 32.5789 26.5726C32.6739 26.5726 32.765 26.5335 32.8321 26.4638C32.8993 26.3941 32.937 26.2996 32.937 26.201C32.937 25.1471 32.4493 24.2165 31.7061 23.6041H37.5913C37.7961 23.6041 37.9493 23.7631 37.9493 23.9757V26.9487C37.9493 27.1613 37.7961 27.3203 37.5913 27.3203H29.3567V23.6041ZM20.7641 28.0636H28.6407V39.2123H21.4802C21.0699 39.2123 20.7641 38.8972 20.7641 38.51V28.0636ZM29.3567 28.0636H37.2333V38.51C37.2333 38.8972 36.9275 39.2123 36.5172 39.2123H29.3567V28.0636Z" fill="#0B0C0E" stroke="black" stroke-width="0.5"/>
</svg>
