<svg width="19" height="20" viewBox="0 0 19 20" fill="none" xmlns="http://www.w3.org/2000/svg">
<g clip-path="url(#clip0_1_44)">
<path d="M9.75875 0.700195C4.69681 0.700195 0.59375 4.80325 0.59375 9.8652C0.59375 14.9266 4.69681 19.0302 9.75875 19.0302C14.8207 19.0302 18.9237 14.9266 18.9237 9.8652C18.9237 4.80325 14.8207 0.700195 9.75875 0.700195Z" fill="black"/>
<path d="M13.3334 8.99094C13.3334 11.2434 12.0809 12.9268 10.2351 12.9268C9.61469 12.9268 9.03198 12.5917 8.83227 12.2106C8.83227 12.2106 8.4986 13.5337 8.42848 13.789C8.17992 14.6913 7.44827 15.5942 7.39169 15.6682C7.35204 15.7194 7.26451 15.7035 7.25532 15.6353C7.23936 15.5202 7.05319 14.3819 7.27273 13.4529L8.01115 10.3237C8.01115 10.3237 7.82788 9.95712 7.82788 9.41503C7.82788 8.56394 8.32112 7.92852 8.93527 7.92852C9.45753 7.92852 9.70947 8.32022 9.70947 8.79025C9.70947 9.31542 9.37532 10.1007 9.20269 10.828C9.05858 11.4374 9.50831 11.9345 10.1089 11.9345C11.197 11.9345 11.9296 10.5369 11.9296 8.88117C11.9296 7.6229 11.0823 6.68041 9.54022 6.68041C7.79886 6.68041 6.71323 7.97929 6.71323 9.43051C6.71323 9.93101 6.86121 10.284 7.09236 10.5568C7.19826 10.6825 7.21325 10.7328 7.17456 10.8769C7.14652 10.9828 7.08413 11.2367 7.05705 11.3377C7.01885 11.4833 6.90086 11.535 6.76981 11.4814C5.96756 11.154 5.59375 10.2748 5.59375 9.28737C5.59375 7.65626 6.96953 5.7002 9.69787 5.7002C11.8909 5.70165 13.3334 7.28778 13.3334 8.99094Z" fill="white"/>
</g>
<defs>
<clipPath id="clip0_1_44">
<rect width="18.33" height="18.33" fill="white" transform="translate(0.59375 0.700195)"/>
</clipPath>
</defs>
</svg>
