<svg width="45" height="45" viewBox="0 0 45 45" fill="none" xmlns="http://www.w3.org/2000/svg">
<circle cx="22.5" cy="22.5" r="22" stroke="black"/>
<path d="M18.3624 15.6378C18.1623 15.4377 17.8378 15.4377 17.6377 15.6378L14.3769 18.8986C14.1768 19.0987 14.1768 19.4231 14.3769 19.6232C14.577 19.8233 14.9014 19.8233 15.1015 19.6232L18.0001 16.7247L20.8986 19.6232C21.0987 19.8233 21.4231 19.8233 21.6232 19.6232C21.8233 19.4231 21.8233 19.0987 21.6232 18.8986L18.3624 15.6378ZM18.5125 27.1796V16.0001H17.4877V27.1796H18.5125Z" fill="black"/>
<path d="M26.0224 28.4734C26.2225 28.6735 26.5469 28.6735 26.747 28.4734L30.0079 25.2126C30.208 25.0125 30.208 24.6881 30.0079 24.488C29.8078 24.2879 29.4833 24.2879 29.2832 24.488L26.3847 27.3865L23.4862 24.488C23.2861 24.2879 22.9616 24.2879 22.7615 24.488C22.5614 24.6881 22.5614 25.0125 22.7615 25.2126L26.0224 28.4734ZM25.8723 16.9316V28.1111H26.8971V16.9316H25.8723Z" fill="black"/>
</svg>
