<svg width="20" height="14" viewBox="0 0 20 14" fill="none" xmlns="http://www.w3.org/2000/svg">
<path d="M18.4492 5.64453L16.1406 3.50781C15.6357 3.04055 14.9731 2.78107 14.2852 2.78125H13.1055V2.54297C13.1053 2.02502 12.8994 1.52835 12.5332 1.16211C12.167 0.795865 11.6703 0.59003 11.1523 0.589844H2.625C2.10706 0.59003 1.61038 0.795865 1.24414 1.16211C0.877896 1.52835 0.672061 2.02502 0.671875 2.54297V11.2891C0.672174 11.3926 0.713425 11.4918 0.786617 11.5649C0.859808 11.6381 0.958992 11.6794 1.0625 11.6797H2.28125C2.3629 12.1635 2.61329 12.6027 2.98799 12.9195C3.36269 13.2363 3.83748 13.4101 4.32813 13.4101C4.81878 13.4101 5.29357 13.2363 5.66826 12.9195C6.04296 12.6027 6.29335 12.1635 6.375 11.6797H13.6484C13.7301 12.1635 13.9805 12.6027 14.3552 12.9195C14.7299 13.2363 15.2047 13.4101 15.6953 13.4101C16.186 13.4101 16.6608 13.2363 17.0355 12.9195C17.4102 12.6027 17.6605 12.1635 17.7422 11.6797H18.9336C19.0371 11.6794 19.1363 11.6381 19.2095 11.5649C19.2827 11.4918 19.3239 11.3926 19.3242 11.2891V7.65234C19.3255 7.2753 19.2484 6.9021 19.0978 6.55645C18.9472 6.2108 18.7263 5.90026 18.4492 5.64453ZM17.918 6.21875H15.6055V4.07812L15.6094 4.08203L17.918 6.21875ZM2.625 1.37109H11.1523C11.4629 1.372 11.7604 1.49576 11.98 1.71533C12.1996 1.9349 12.3233 2.23245 12.3242 2.54297V3.95312V7.01562V7.07031H1.45312V2.54297C1.45403 2.23245 1.57779 1.9349 1.79736 1.71533C2.01693 1.49576 2.31448 1.372 2.625 1.37109ZM4.32813 12.6289C4.0724 12.6289 3.82242 12.5531 3.60979 12.411C3.39716 12.2689 3.23144 12.067 3.13358 11.8307C3.03572 11.5945 3.01011 11.3345 3.06 11.0837C3.10989 10.8329 3.23303 10.6025 3.41386 10.4217C3.59468 10.2408 3.82507 10.1177 4.07588 10.0678C4.32669 10.0179 4.58666 10.0435 4.82292 10.1414C5.05918 10.2393 5.26112 10.405 5.40319 10.6176C5.54526 10.8302 5.62109 11.0802 5.62109 11.3359C5.62069 11.6787 5.48434 12.0074 5.24195 12.2498C4.99956 12.4921 4.67092 12.6285 4.32813 12.6289ZM4.32813 9.25781C3.85317 9.25847 3.39272 9.42155 3.02324 9.71999C2.65375 10.0184 2.39744 10.4342 2.29687 10.8984H1.45312V7.85156H12.3242V10.8984H6.35938C6.25935 10.434 6.0032 10.0178 5.63359 9.71928C5.26398 9.42075 4.80324 9.25788 4.32813 9.25781ZM15.6953 12.6289C15.4396 12.6289 15.1896 12.5531 14.977 12.411C14.7643 12.2689 14.5986 12.067 14.5008 11.8307C14.4029 11.5945 14.3773 11.3345 14.4272 11.0837C14.4771 10.8329 14.6002 10.6025 14.781 10.4217C14.9619 10.2408 15.1923 10.1177 15.4431 10.0678C15.6939 10.0179 15.9539 10.0435 16.1901 10.1414C16.4264 10.2393 16.6283 10.405 16.7704 10.6176C16.9124 10.8302 16.9883 11.0802 16.9883 11.3359C16.9879 11.6787 16.8515 12.0074 16.6091 12.2498C16.3667 12.4921 16.0381 12.6285 15.6953 12.6289ZM18.5469 10.8984H17.7266C17.6266 10.4339 17.3705 10.0177 17.0009 9.71915C16.6312 9.42059 16.1705 9.25774 15.6953 9.25774C15.2202 9.25774 14.7594 9.42059 14.3898 9.71915C14.0201 10.0177 13.764 10.4339 13.6641 10.8984H13.1055V7.01562V3.5625H14.2852C14.4673 3.56334 14.6486 3.58829 14.8242 3.63672V6.21875C14.8248 6.42576 14.9073 6.62412 15.0537 6.77051C15.2001 6.91689 15.3985 6.99939 15.6055 7H18.4336C18.5087 7.20927 18.5471 7.42999 18.5469 7.65234V10.8984Z" fill="#0B0C0E"/>
<path d="M4.32813 10.2227C4.10871 10.2227 3.89423 10.2877 3.71179 10.4096C3.52935 10.5315 3.38716 10.7048 3.3032 10.9075C3.21923 11.1102 3.19726 11.3333 3.24007 11.5485C3.28287 11.7637 3.38853 11.9613 3.54368 12.1165C3.69883 12.2716 3.8965 12.3773 4.1117 12.4201C4.32689 12.4629 4.54995 12.4409 4.75266 12.357C4.95538 12.273 5.12864 12.1308 5.25054 11.9484C5.37244 11.7659 5.4375 11.5514 5.4375 11.332C5.43704 11.0379 5.32001 10.756 5.11206 10.5481C4.90411 10.3401 4.62221 10.2231 4.32813 10.2227ZM4.32813 11.6641C4.26323 11.6641 4.19979 11.6448 4.14583 11.6088C4.09187 11.5727 4.04981 11.5215 4.02498 11.4615C4.00014 11.4015 3.99364 11.3356 4.00631 11.2719C4.01897 11.2083 4.05022 11.1498 4.09611 11.1039C4.142 11.058 4.20046 11.0268 4.26411 11.0141C4.32776 11.0015 4.39374 11.0079 4.45369 11.0328C4.51365 11.0576 4.5649 11.0997 4.60095 11.1536C4.63701 11.2076 4.65625 11.271 4.65625 11.3359C4.65573 11.4228 4.62099 11.506 4.55957 11.5674C4.49814 11.6288 4.41499 11.6635 4.32813 11.6641ZM15.6953 10.2227C15.4759 10.2227 15.2614 10.2877 15.079 10.4096C14.8965 10.5315 14.7544 10.7048 14.6704 10.9075C14.5864 11.1102 14.5644 11.3333 14.6073 11.5485C14.6501 11.7637 14.7557 11.9613 14.9109 12.1165C15.066 12.2716 15.2637 12.3773 15.4789 12.4201C15.6941 12.4629 15.9171 12.4409 16.1199 12.357C16.3226 12.273 16.4958 12.1308 16.6177 11.9484C16.7396 11.7659 16.8047 11.5514 16.8047 11.332C16.8042 11.0379 16.6872 10.756 16.4792 10.5481C16.2713 10.3401 15.9894 10.2231 15.6953 10.2227ZM15.6953 11.6641C15.6304 11.6641 15.567 11.6448 15.513 11.6088C15.4591 11.5727 15.417 11.5215 15.3922 11.4615C15.3673 11.4015 15.3608 11.3356 15.3735 11.2719C15.3862 11.2083 15.4174 11.1498 15.4633 11.1039C15.5092 11.058 15.5676 11.0268 15.6313 11.0141C15.6949 11.0015 15.7609 11.0079 15.8209 11.0328C15.8808 11.0576 15.9321 11.0997 15.9681 11.1536C16.0042 11.2076 16.0234 11.271 16.0234 11.3359C16.0229 11.4228 15.9882 11.506 15.9268 11.5674C15.8653 11.6288 15.7822 11.6635 15.6953 11.6641ZM6.06641 5.29687C6.10258 5.33379 6.14572 5.36316 6.19333 5.38328C6.24094 5.4034 6.29207 5.41386 6.34375 5.41406C6.44731 5.4133 6.54662 5.37274 6.62109 5.30078L8.5 3.42187C8.57304 3.34883 8.61407 3.24977 8.61407 3.14648C8.61407 3.04319 8.57304 2.94413 8.5 2.87109C8.42696 2.79805 8.3279 2.75702 8.22461 2.75702C8.12132 2.75702 8.02226 2.79805 7.94922 2.87109L6.34766 4.47265L5.57031 3.67968C5.49779 3.60613 5.39902 3.56439 5.29573 3.56366C5.19244 3.56293 5.09309 3.60326 5.01953 3.67578C4.94598 3.7483 4.90424 3.84707 4.90351 3.95036C4.90278 4.05365 4.94311 4.153 5.01563 4.22656L6.06641 5.29687Z" fill="#0B0C0E"/>
</svg>
