<svg width="45" height="45" viewBox="0 0 45 45" fill="none" xmlns="http://www.w3.org/2000/svg">
<circle cx="22.5" cy="22.5" r="22" stroke="black"/>
<g clip-path="url(#clip0_1_69)">
<path d="M17.875 21.625V16H25.12C25.2195 16 25.3148 15.9605 25.3852 15.8902C25.4555 15.8198 25.495 15.7245 25.495 15.625C25.495 15.5255 25.4555 15.4302 25.3852 15.3598C25.3148 15.2895 25.2195 15.25 25.12 15.25H17.875V14.875C17.875 14.5766 17.9935 14.2905 18.2045 14.0795C18.4155 13.8685 18.7016 13.75 19 13.75H25.405C25.5045 13.75 25.5998 13.7105 25.6702 13.6402C25.7405 13.5698 25.78 13.4745 25.78 13.375C25.78 13.2755 25.7405 13.1802 25.6702 13.1098C25.5998 13.0395 25.5045 13 25.405 13H19C18.5027 13 18.0258 13.1975 17.6742 13.5492C17.3225 13.9008 17.125 14.3777 17.125 14.875V21.625C17.125 21.7245 17.1645 21.8198 17.2348 21.8902C17.3052 21.9605 17.4005 22 17.5 22C17.5995 22 17.6948 21.9605 17.7652 21.8902C17.8355 21.8198 17.875 21.7245 17.875 21.625ZM27.625 19.375V28H17.5C17.4005 28 17.3052 28.0395 17.2348 28.1098C17.1645 28.1802 17.125 28.2755 17.125 28.375V29.125C17.125 29.3712 17.1735 29.615 17.2677 29.8425C17.362 30.07 17.5001 30.2767 17.6742 30.4508C17.8483 30.6249 18.055 30.763 18.2825 30.8573C18.51 30.9515 18.7538 31 19 31H26.5C26.7462 31 26.99 30.9515 27.2175 30.8573C27.445 30.763 27.6517 30.6249 27.8258 30.4508C27.9999 30.2767 28.138 30.07 28.2323 29.8425C28.3265 29.615 28.375 29.3712 28.375 29.125V19.375C28.375 19.2755 28.3355 19.1802 28.2652 19.1098C28.1948 19.0395 28.0995 19 28 19C27.9005 19 27.8052 19.0395 27.7348 19.1098C27.6645 19.1802 27.625 19.2755 27.625 19.375ZM26.5 30.25H19C18.7016 30.25 18.4155 30.1315 18.2045 29.9205C17.9935 29.7095 17.875 29.4234 17.875 29.125V28.75H27.625V29.125C27.625 29.4234 27.5065 29.7095 27.2955 29.9205C27.0845 30.1315 26.7984 30.25 26.5 30.25Z" fill="black"/>
<path d="M23.125 29.125H22.375C22.2755 29.125 22.1802 29.1645 22.1098 29.2348C22.0395 29.3052 22 29.4005 22 29.5C22 29.5995 22.0395 29.6948 22.1098 29.7652C22.1802 29.8355 22.2755 29.875 22.375 29.875H23.125C23.2245 29.875 23.3198 29.8355 23.3902 29.7652C23.4605 29.6948 23.5 29.5995 23.5 29.5C23.5 29.4005 23.4605 29.3052 23.3902 29.2348C23.3198 29.1645 23.2245 29.125 23.125 29.125ZM19.75 26.875V23.125C19.75 23.0255 19.7105 22.9302 19.6402 22.8598C19.5698 22.7895 19.4745 22.75 19.375 22.75H14.125C14.0255 22.75 13.9302 22.7895 13.8598 22.8598C13.7895 22.9302 13.75 23.0255 13.75 23.125V26.875C13.75 26.9745 13.7895 27.0698 13.8598 27.1402C13.9302 27.2105 14.0255 27.25 14.125 27.25H19.375C19.4745 27.25 19.5698 27.2105 19.6402 27.1402C19.7105 27.0698 19.75 26.9745 19.75 26.875ZM14.5 23.5H15.25V26.5H14.5V23.5ZM19 26.5H16V23.5H17.125V24.25C17.125 24.3495 17.1645 24.4448 17.2348 24.5152C17.3052 24.5855 17.4005 24.625 17.5 24.625C17.5995 24.625 17.6948 24.5855 17.7652 24.5152C17.8355 24.4448 17.875 24.3495 17.875 24.25V23.5H19V26.5ZM28.3075 18.0887C28.57 17.71 29.875 15.775 29.875 14.875C29.875 14.3777 29.6775 13.9008 29.3258 13.5492C28.9742 13.1975 28.4973 13 28 13C27.5027 13 27.0258 13.1975 26.6742 13.5492C26.3225 13.9008 26.125 14.3777 26.125 14.875C26.125 15.775 27.43 17.71 27.6925 18.0887C27.7271 18.1383 27.7731 18.1787 27.8266 18.2066C27.8801 18.2345 27.9396 18.2491 28 18.2491C28.0604 18.2491 28.1199 18.2345 28.1734 18.2066C28.2269 18.1787 28.2729 18.1383 28.3075 18.0887ZM28 13.75C28.2984 13.75 28.5845 13.8685 28.7955 14.0795C29.0065 14.2905 29.125 14.5766 29.125 14.875C29.125 15.2838 28.54 16.3525 28 17.1962C27.46 16.3525 26.875 15.2838 26.875 14.875C26.875 14.5766 26.9935 14.2905 27.2045 14.0795C27.4155 13.8685 27.7016 13.75 28 13.75ZM22 20.125C21.6022 20.125 21.2206 20.283 20.9393 20.5643C20.658 20.8456 20.5 21.2272 20.5 21.625C20.5 22.0228 20.658 22.4044 20.9393 22.6857C21.2206 22.967 21.6022 23.125 22 23.125H25.375C25.5739 23.125 25.7647 23.204 25.9053 23.3447C26.046 23.4853 26.125 23.6761 26.125 23.875C26.125 24.0739 26.046 24.2647 25.9053 24.4053C25.7647 24.546 25.5739 24.625 25.375 24.625H20.875C20.7755 24.625 20.6802 24.6645 20.6098 24.7348C20.5395 24.8052 20.5 24.9005 20.5 25C20.5 25.0995 20.5395 25.1948 20.6098 25.2652C20.6802 25.3355 20.7755 25.375 20.875 25.375H25.375C25.7728 25.375 26.1544 25.217 26.4357 24.9357C26.717 24.6544 26.875 24.2728 26.875 23.875C26.875 23.4772 26.717 23.0956 26.4357 22.8143C26.1544 22.533 25.7728 22.375 25.375 22.375H22C21.8011 22.375 21.6103 22.296 21.4697 22.1553C21.329 22.0147 21.25 21.8239 21.25 21.625C21.25 21.4261 21.329 21.2353 21.4697 21.0947C21.6103 20.954 21.8011 20.875 22 20.875H25.375C25.7728 20.875 26.1544 20.717 26.4357 20.4357C26.717 20.1544 26.875 19.7728 26.875 19.375V18.25C26.875 18.1505 26.8355 18.0552 26.7652 17.9848C26.6948 17.9145 26.5995 17.875 26.5 17.875C26.4005 17.875 26.3052 17.9145 26.2348 17.9848C26.1645 18.0552 26.125 18.1505 26.125 18.25V19.375C26.125 19.5739 26.046 19.7647 25.9053 19.9053C25.7647 20.046 25.5739 20.125 25.375 20.125H22Z" fill="black"/>
<path d="M28.375 14.875C28.375 14.7755 28.3355 14.6802 28.2652 14.6098C28.1948 14.5395 28.0995 14.5 28 14.5C27.9005 14.5 27.8052 14.5395 27.7348 14.6098C27.6645 14.6802 27.625 14.7755 27.625 14.875C27.625 14.9745 27.6645 15.0698 27.7348 15.1402C27.8052 15.2105 27.9005 15.25 28 15.25C28.0995 15.25 28.1948 15.2105 28.2652 15.1402C28.3355 15.0698 28.375 14.9745 28.375 14.875Z" fill="black"/>
</g>
<defs>
<clipPath id="clip0_1_69">
<rect width="18" height="18" fill="white" transform="translate(13 13)"/>
</clipPath>
</defs>
</svg>
