<svg width="17" height="17" viewBox="0 0 17 17" fill="none" xmlns="http://www.w3.org/2000/svg">
<path d="M8.5 7.1579C7.79215 7.1579 7.1002 6.94799 6.51164 6.55473C5.92309 6.16147 5.46437 5.60252 5.19348 4.94855C4.9226 4.29459 4.85173 3.57498 4.98982 2.88073C5.12792 2.18648 5.46878 1.54878 5.9693 1.04825C6.46983 0.547726 7.10753 0.206865 7.80178 0.0687701C8.49603 -0.0693244 9.21564 0.00155069 9.8696 0.272433C10.5236 0.543315 11.0825 1.00204 11.4758 1.59059C11.869 2.17915 12.0789 2.8711 12.0789 3.57895C12.0789 4.52814 11.7019 5.43846 11.0307 6.10965C10.3595 6.78083 9.4492 7.1579 8.5 7.1579ZM8.5 0.894738C7.96911 0.894738 7.45015 1.05216 7.00873 1.34711C6.56732 1.64205 6.22327 2.06127 6.02011 2.55175C5.81695 3.04222 5.76379 3.58193 5.86737 4.10261C5.97094 4.6233 6.22658 5.10158 6.60198 5.47697C6.97737 5.85237 7.45565 6.10801 7.97634 6.21158C8.49702 6.31515 9.03673 6.262 9.5272 6.05884C10.0177 5.85567 10.4369 5.51163 10.7318 5.07022C11.0268 4.6288 11.1842 4.10984 11.1842 3.57895C11.1842 2.86705 10.9014 2.18431 10.398 1.68093C9.89464 1.17754 9.2119 0.894738 8.5 0.894738ZM17 17H16.1053V16.5526C16.1053 14.5356 15.304 12.6012 13.8777 11.1749C12.4515 9.74864 10.517 8.94737 8.5 8.94737C6.48296 8.94737 4.54853 9.74864 3.12227 11.1749C1.696 12.6012 0.894737 14.5356 0.894737 16.5526V17H0V16.5526C0 14.2983 0.895533 12.1363 2.48959 10.5422C4.08365 8.94817 6.24566 8.05263 8.5 8.05263C10.7543 8.05263 12.9163 8.94817 14.5104 10.5422C16.1045 12.1363 17 14.2983 17 16.5526V17Z" fill="black"/>
</svg>
